<svg width="275" height="213" viewBox="0 0 275 213" fill="none" xmlns="http://www.w3.org/2000/svg">
<g clip-path="url(#clip0_203_2656)">
<path d="M136.796 180.353L136.818 93.5815L107.162 93.576L107.14 180.353H136.796ZM133.799 160.098L111.353 160.093V158.474L133.799 158.48V160.098ZM133.755 155.881L111.309 155.876V154.257L133.755 154.262V155.881ZM133.711 151.669L111.265 151.664V150.045L133.711 150.051V151.669ZM133.672 147.458L111.227 147.452V145.834L133.672 145.839V147.458ZM133.628 143.241L111.183 143.235V141.616L133.628 141.622V143.241ZM133.59 139.029L111.144 139.023V137.405L133.59 137.41V139.029ZM133.546 134.817L111.1 134.812V133.193L133.546 133.199V134.817ZM133.502 130.606L111.056 130.6V128.981L133.502 128.987V130.606ZM133.463 126.388L111.018 126.383V124.764L133.463 124.77V126.388ZM133.419 122.177L110.974 122.171V120.553L133.419 120.558V122.177ZM133.381 117.965L110.935 117.96V116.341L133.381 116.346V117.965ZM133.336 113.753L110.891 113.748V112.129L133.336 112.135V113.753ZM133.293 109.536L110.847 109.531V107.912L133.293 107.918V109.536ZM133.254 105.325L110.809 105.319V103.7L133.254 103.706V105.325ZM110.77 99.4888L133.216 99.4943V101.113L110.77 101.107V99.4888Z" fill="#EBEBEB"/>
<path d="M141.13 180.353H182.204L182.16 80.5391H175.021L175.015 70.1944H168.756L168.751 59.3982H162.64L162.635 44.4069H160.584L160.589 59.3982H154.478L154.484 70.1944H148.225L148.231 80.5391L141.091 80.5446L141.13 180.353ZM174.053 88.577L177.001 88.5825L176.77 173.581L173.822 173.576L174.053 88.577ZM167.173 88.5605L170.12 88.566L169.89 173.565L166.941 173.559L167.173 88.5605ZM160.286 88.544L163.235 88.5495L163.003 173.548L160.056 173.542L160.286 88.544ZM153.401 88.5275L156.348 88.533L156.118 173.531L153.169 173.526L153.401 88.5275ZM149.468 88.5165L149.237 173.515L146.289 173.509L146.52 88.511L149.468 88.5165Z" fill="#EBEBEB"/>
<path d="M275 180.276H0V180.413H275V180.276Z" fill="#EBEBEB"/>
<path d="M247.445 189.134H229.229V189.272H247.445V189.134Z" fill="#EBEBEB"/>
<path d="M182.171 190.631H177.392V190.769H182.171V190.631Z" fill="#EBEBEB"/>
<path d="M228.679 184.025H218.124V184.162H228.679V184.025Z" fill="#EBEBEB"/>
<path d="M52.6075 184.95H28.853V185.087H52.6075V184.95Z" fill="#EBEBEB"/>
<path d="M60.9895 184.95H57.508V185.087H60.9895V184.95Z" fill="#EBEBEB"/>
<path d="M123.833 187.273H72.3085V187.411H123.833V187.273Z" fill="#EBEBEB"/>
<path d="M130.355 155.721H24.156C22.4235 155.721 21.0155 154.312 21.0155 152.578V3.14361C21.0155 1.40939 22.4235 0 24.156 0H130.361C132.094 0 133.502 1.40939 133.502 3.14361V152.578C133.496 154.312 132.088 155.721 130.355 155.721ZM24.156 0.137636C22.5005 0.137636 21.153 1.48647 21.153 3.14361V152.578C21.153 154.235 22.5005 155.584 24.156 155.584H130.361C132.017 155.584 133.364 154.235 133.364 152.578V3.14361C133.364 1.48647 132.017 0.137636 130.361 0.137636H24.156Z" fill="#EBEBEB"/>
<path d="M249.32 155.721H143.115C141.383 155.721 139.975 154.312 139.975 152.578V3.14361C139.975 1.40939 141.383 0 143.115 0H249.32C251.053 0 252.461 1.40939 252.461 3.14361V152.578C252.461 154.312 251.053 155.721 249.32 155.721ZM143.115 0.137636C141.46 0.137636 140.112 1.48647 140.112 3.14361V152.578C140.112 154.235 141.46 155.584 143.115 155.584H249.32C250.976 155.584 252.323 154.235 252.323 152.578V3.14361C252.323 1.48647 250.976 0.137636 249.32 0.137636H143.115Z" fill="#EBEBEB"/>
<path d="M96.9375 180.353L94.6275 168.191C94.5725 167.861 94.2865 167.619 93.951 167.624H93.049C92.6695 167.624 92.3615 167.316 92.3615 166.936V165.989C92.3615 165.609 92.0535 165.301 91.674 165.301H90.4145C90.035 165.301 89.727 164.993 89.727 164.613L89.507 156.47C89.507 156.393 89.485 156.316 89.452 156.244L88.1155 153.459H88.0165V150.299C88.0165 149.99 87.769 149.742 87.461 149.742H87.2905V147.513H87.142V149.742H86.9C86.592 149.742 86.3445 149.99 86.3445 150.299V150.442H85.7175V150.299C85.7175 149.99 85.47 149.742 85.162 149.742H85.019V147.513H84.8705V149.742H84.601C84.293 149.742 84.0455 149.99 84.0455 150.299V153.448H83.9465L82.61 156.233C82.577 156.305 82.555 156.382 82.555 156.459L82.3405 164.607C82.3405 164.987 82.0325 165.295 81.653 165.295H80.7565C80.377 165.295 80.069 164.987 80.069 164.607V142.778L80.0415 142.8V140.956H79.893V142.905L73.0675 147.799L72.6935 148.069V152.561C72.6935 152.732 72.6275 152.605 72.512 152.732L67.0505 155.87C67.034 155.887 67.023 155.909 67.0065 155.925V153.679H66.858V157.323H66.8635V164.613C66.8635 164.993 66.5555 165.301 66.176 165.301H65.45C65.0705 165.301 64.7625 164.993 64.7625 164.613V161.001C64.7625 160.621 64.4545 160.313 64.075 160.313H61.699C61.3195 160.313 61.0115 160.621 61.0115 161.001V164.607C61.0115 164.987 60.7035 165.295 60.324 165.295H60.0985C59.719 165.295 59.411 164.987 59.411 164.607V163.633C59.411 163.253 59.103 162.945 58.7235 162.945H56.3255C55.946 162.945 55.638 163.253 55.638 163.633V166.947C55.638 167.327 55.33 167.635 54.9505 167.635H53.4875C53.108 167.635 52.8 167.943 52.8 168.318V168.323V174.39C52.8 174.77 52.492 175.079 52.107 175.079H45.2375C44.858 175.079 44.55 174.77 44.55 174.39V172.739C44.55 172.359 44.242 172.051 43.8625 172.051L39.1765 172.067C39.1765 172.067 39.094 177.765 39.1215 180.358H96.9375V180.353Z" fill="#E0E0E0"/>
<path d="M109.043 180.353C102.663 177.165 84.931 168.428 81.697 168.191C78.1 167.927 66.6655 178.442 64.625 180.353H109.043Z" fill="#F0F0F0"/>
<path d="M203.577 39.0391C202.087 34.5907 197.796 31.381 192.736 31.381C187.671 31.381 183.386 34.5962 181.89 39.0391H203.577Z" fill="#F0F0F0"/>
<path d="M230.411 39.0391C229.509 29.7074 222.337 22.4347 213.62 22.4347C204.902 22.4347 197.736 29.7074 196.828 39.0391H230.411Z" fill="#F0F0F0"/>
<path d="M246.031 39.0391C244.926 33.2914 241.142 29.0467 236.627 29.0467C232.111 29.0467 228.327 33.2914 227.222 39.0391H246.031Z" fill="#F0F0F0"/>
<path d="M50.743 42.2928C49.467 38.4995 45.8095 35.7578 41.4865 35.7578C37.1635 35.7578 33.506 38.4995 32.23 42.2928H50.743Z" fill="#F0F0F0"/>
<path d="M73.6395 42.2928C72.8695 34.3264 66.748 28.1218 59.312 28.1218C51.876 28.1218 45.7545 34.3264 44.9845 42.2928H73.6395Z" fill="#F0F0F0"/>
<path d="M86.9715 42.2928C86.0255 37.3874 82.797 33.7649 78.947 33.7649C75.097 33.7649 71.863 37.3874 70.9225 42.2928H86.9715Z" fill="#F0F0F0"/>
<path d="M113.526 23.5853C112.321 20.4142 108.856 18.1184 104.764 18.1184C100.672 18.1184 97.207 20.4142 96.0025 23.5853H113.526Z" fill="#F0F0F0"/>
<path d="M125.516 23.5853C125.076 16.9237 121.594 11.7376 117.353 11.7376C113.118 11.7376 109.631 16.9292 109.191 23.5853H125.516Z" fill="#F0F0F0"/>
<path d="M135.02 23.5853C134.052 19.4838 130.74 16.4558 126.791 16.4558C122.842 16.4558 119.532 19.4838 118.564 23.5853H135.02Z" fill="#F0F0F0"/>
<path d="M129.465 56.0674C128.552 52.4448 125.922 49.8242 122.82 49.8242C119.718 49.8242 117.089 52.4448 116.176 56.0674H129.465Z" fill="#F0F0F0"/>
<path d="M143.17 56.0674C142.67 50.0334 138.688 45.3318 133.843 45.3318C129.003 45.3318 125.02 50.0334 124.514 56.0674H143.17Z" fill="#F0F0F0"/>
<path d="M150.821 56.0674C150.095 52.9789 147.598 50.6996 144.623 50.6996C141.647 50.6996 139.155 52.9789 138.424 56.0674H150.821Z" fill="#F0F0F0"/>
<path d="M241.94 180.353L241.862 152.093L234.575 152.11L234.536 137.884C232.991 137.889 231.445 137.889 229.9 137.895C229.196 142.64 228.498 147.381 227.794 152.126L215.506 152.159L215.468 137.933C213.923 137.939 212.377 137.939 210.826 137.944C210.122 142.69 209.423 147.43 208.719 152.176L201.366 152.198L201.443 180.353H241.94ZM205.474 175.409L205.469 173.933L236.104 173.851L236.109 175.326L205.474 175.409ZM236.247 156.894L236.252 158.37L205.618 158.452L205.612 156.977L236.247 156.894ZM236.219 160.285L236.225 161.761L205.59 161.843L205.585 160.368L236.219 160.285ZM236.192 163.677L236.198 165.152L205.562 165.235L205.557 163.759L236.192 163.677ZM236.165 167.068L236.17 168.544L205.535 168.626L205.529 167.151L236.165 167.068ZM236.137 170.459L236.142 171.935L205.507 172.017L205.502 170.542L236.137 170.459Z" fill="#E0E0E0"/>
<path d="M214.401 137.355C214.022 137.03 213.746 136.612 213.994 136.023C214.357 135.159 215.688 135.081 216.018 134.19C216.486 132.923 214.654 133.072 214.373 132.098C214.115 131.189 216.425 131.327 216.447 130.215C216.453 129.862 216.029 129.719 216.095 129.306C216.155 128.888 216.887 128.398 217.239 128.211C216.348 128.431 215.209 128.431 215.286 129.538C215.336 130.264 215.583 130.573 214.67 130.881C213.944 131.129 212.812 130.892 212.751 131.916C212.696 132.918 213.714 132.863 214.214 133.446C214.797 134.124 214.159 134.938 213.449 135.296C212.652 135.698 211.777 135.544 211.64 136.645C211.607 136.904 211.635 137.135 211.701 137.35H214.401V137.355Z" fill="#E0E0E0"/>
<path d="M230.852 137.355H233.673C233.486 137.157 233.354 136.942 233.376 136.557C233.431 135.698 234.162 135.665 234.542 135.07C235.482 133.606 232.479 133.865 233.106 132.532C233.348 132.02 234.564 131.916 234.702 131.459C234.872 130.908 233.899 130.919 233.635 130.479C232.881 129.185 236.027 129.345 235.956 128.145C235.934 127.765 235.472 127.655 235.488 127.22C235.516 126.609 236.291 126.416 236.726 126.168C236.159 126.311 234.949 126.251 234.674 126.9C234.371 127.616 235.284 127.798 234.448 128.58C233.942 129.053 232.05 129.119 232.237 130.116C232.358 130.782 233.508 130.6 233.304 131.459C233.073 132.439 231.33 131.773 231.121 132.714C230.868 133.881 233.04 133.325 233.348 134.03C233.86 135.192 231.209 135.555 230.731 135.885C229.994 136.408 230.351 136.926 230.852 137.355Z" fill="#E0E0E0"/>
<path d="M219.917 180.353C212.888 178.134 167.524 163.913 160.803 164.183C154.665 164.426 139.991 176.537 135.514 180.353H219.917Z" fill="#F0F0F0"/>
<path d="M74.2335 180.353C64.7625 177.082 39.6385 168.533 35.0185 168.296C29.9035 168.037 13.8325 178.211 10.5105 180.353H74.2335Z" fill="#EBEBEB"/>
<path d="M238.926 180.353H258.555C256.025 176.119 255.931 169.375 256.036 166.358H249.161C249.254 168.956 249.199 174.33 247.566 178.47C246.416 175.117 246.405 171.004 246.482 169.039H240.856C240.95 171.401 240.9 176.829 238.926 180.353Z" fill="#E0E0E0"/>
<path d="M248.743 164.475H256.465C256.575 164.475 256.663 164.563 256.663 164.673V165.741C256.663 165.851 256.575 165.939 256.465 165.939H256.058H249.15C249.15 165.939 249.15 165.939 249.15 165.934H248.743C248.633 165.934 248.545 165.846 248.545 165.736V164.668C248.539 164.563 248.633 164.475 248.743 164.475Z" fill="#E0E0E0"/>
<path d="M246.911 167.476V168.455C246.911 168.549 246.834 168.626 246.741 168.626H246.505V168.632H240.84V168.626H240.603C240.509 168.626 240.432 168.549 240.432 168.455V167.476C240.432 167.382 240.509 167.305 240.603 167.305H246.735C246.834 167.31 246.911 167.382 246.911 167.476Z" fill="#E0E0E0"/>
<path d="M247.94 155.066C247.934 155.039 247.924 155.006 247.913 154.978C247.726 154.472 247.027 154.681 246.741 154.284C246.779 154.444 246.779 154.549 246.944 154.637C247.076 154.703 247.225 154.719 247.335 154.83C247.841 155.303 246.939 155.606 246.659 155.798C246.224 156.096 245.817 156.514 245.828 157.076C245.833 157.379 245.888 157.637 245.657 157.88C245.124 158.441 243.974 158.243 243.749 159.157C243.661 159.515 243.716 159.906 243.87 160.23C243.991 160.489 244.183 160.577 244.128 160.885C243.952 161.865 242.704 161.7 242.215 162.278C241.753 162.829 242.424 163.231 242.858 163.462C243.441 163.77 244.162 164.233 243.59 164.948C243.216 165.422 242.61 165.598 242.165 165.978C241.846 166.248 241.588 166.556 241.434 166.93H245.965C245.861 166.518 245.471 166.248 245.317 165.846C245.168 165.472 245.333 165.07 245.531 164.756C245.735 164.431 245.911 164.018 245.515 163.77C245.229 163.589 244.849 163.616 244.53 163.539C244.134 163.446 243.826 163.275 243.556 162.978C243.666 162.113 246.835 162.256 245.938 161.117C245.586 160.671 244.079 160.346 244.855 159.581C245.251 159.195 245.872 159.129 246.318 158.821C246.604 158.628 246.708 158.358 246.659 158.017C246.609 157.709 246.4 157.417 246.439 157.103C246.472 156.833 246.504 156.597 246.702 156.388C246.84 156.244 246.989 156.129 247.159 156.03C247.484 155.831 248.044 155.529 247.94 155.066Z" fill="#E0E0E0"/>
<path d="M255.387 164.035C254.881 163.71 254.381 163.396 254.034 162.884C253.836 162.598 253.715 162.273 253.836 161.932C253.951 161.601 254.182 161.37 253.891 161.04C253.682 160.803 253.346 160.737 253.165 160.478C252.758 159.895 253.534 159.316 253.968 159.041C254.216 158.882 255.426 158.463 254.777 158.171C254.43 158.012 253.643 158.017 254.237 157.516C254.672 157.153 255.436 157.048 255.799 156.591C256.058 156.266 255.788 156.156 255.623 155.881C255.145 155.088 256.349 154.675 256.987 154.675C256.212 154.301 254.716 154.428 254.919 155.507C254.947 155.644 255.057 155.958 255.024 156.09C254.958 156.355 254.48 156.613 254.227 156.69C253.479 156.922 252.681 156.426 252.257 157.307C251.988 157.874 252.626 158.017 252.807 158.441C253.126 159.179 252.131 159.421 251.691 159.746C251.08 160.197 251.619 160.423 252.081 160.561C252.664 160.737 252.928 161.106 252.571 161.667C252.158 162.317 251.273 162.284 250.673 162.669C250.184 162.983 249.881 163.495 249.936 164.035H255.387Z" fill="#E0E0E0"/>
<path d="M137.5 205.138C201.17 205.138 252.785 202.348 252.785 198.906C252.785 195.464 201.17 192.674 137.5 192.674C73.8296 192.674 22.2145 195.464 22.2145 198.906C22.2145 202.348 73.8296 205.138 137.5 205.138Z" fill="#F5F5F5"/>
<path d="M214.362 213C233.408 213 248.847 210.737 248.847 207.946C248.847 205.155 233.408 202.892 214.362 202.892C195.317 202.892 179.877 205.155 179.877 207.946C179.877 210.737 195.317 213 214.362 213Z" fill="#F5F5F5"/>
<path d="M22.6435 77.3569H36.872C39.292 77.3569 41.2555 79.3224 41.2555 81.7448V94.143C41.2555 96.5654 39.292 98.5309 36.872 98.5309H34.782L34.793 102.941L31.834 98.5309H22.6435C20.2235 98.5309 18.26 96.5654 18.26 94.143V81.7448C18.26 79.3169 20.2235 77.3569 22.6435 77.3569Z" fill="#00C185"/>
<path opacity="0.7" d="M22.6435 77.3569H36.872C39.292 77.3569 41.2555 79.3224 41.2555 81.7448V94.143C41.2555 96.5654 39.292 98.5309 36.872 98.5309H34.782L34.793 102.941L31.834 98.5309H22.6435C20.2235 98.5309 18.26 96.5654 18.26 94.143V81.7448C18.26 79.3169 20.2235 77.3569 22.6435 77.3569Z" fill="white"/>
<path d="M35.4422 89.4469C35.4422 89.4529 35.4422 89.4529 35.4422 89.459C35.4362 89.4529 35.4422 89.4469 35.4422 89.4469Z" fill="#00C185"/>
<path d="M32.5765 82.72C32.5987 82.6922 32.621 82.67 32.6432 82.6422C32.6154 82.6644 32.5987 82.6922 32.5765 82.72Z" fill="#00C185"/>
<path d="M25.5585 85.2132C25.4925 85.3068 25.4265 85.4059 25.366 85.505C24.816 86.4024 24.563 87.3989 24.563 88.3788C24.563 87.2007 24.937 86.1106 25.5695 85.2187C25.5695 85.2132 25.564 85.2132 25.5585 85.2132Z" fill="#00C185"/>
<path d="M35.5465 88.3788C35.5465 88.6596 35.5245 88.9294 35.486 89.1992C35.5905 88.4945 35.563 87.7843 35.398 87.1016C35.398 87.0961 35.3925 87.0906 35.3925 87.0851C35.321 86.7823 35.222 86.485 35.101 86.1987C35.0075 85.9785 34.8975 85.7638 34.7765 85.5545C34.3365 84.8058 33.7095 84.1507 32.9175 83.6662C32.714 83.5396 32.4995 83.4294 32.285 83.3359C32.2795 83.3414 32.2795 83.3469 32.274 83.3524C34.199 84.2112 35.5465 86.1381 35.5465 88.3788Z" fill="#00C185"/>
<path d="M30.1235 85.4444C30.063 85.483 30.041 85.5105 30.096 85.5601C30.217 85.6757 30.316 85.8078 30.0245 85.7142C29.8045 85.6481 29.909 85.5931 29.9255 85.5215C29.942 85.4499 29.8595 85.4665 29.7935 85.4885C29.7275 85.5105 29.623 85.527 29.601 85.483C29.59 85.4665 29.5845 85.4444 29.546 85.4279C29.3865 85.3564 29.315 85.4995 29.425 85.5656C29.4855 85.6041 29.5185 85.6096 29.491 85.6426C29.4635 85.6757 29.3865 85.6647 29.315 85.6867C29.095 85.7527 28.721 86.1216 28.589 86.2592C28.5175 86.3363 28.5065 86.4684 28.457 86.518C28.369 86.6061 28.226 86.6336 28.1435 86.7217C28.0005 86.8814 26.8895 86.8373 26.741 87.3163C26.576 87.8503 26.9995 87.7127 27.2965 87.542C27.357 87.5035 27.4285 87.531 27.423 87.6026C27.423 87.6411 27.412 87.6852 27.3955 87.7182C27.368 87.7843 27.379 87.8228 27.4505 87.8338C27.665 87.8668 27.6265 88.032 27.643 88.2907C27.654 88.4504 28.0555 88.4064 28.1435 88.3018C28.292 88.1311 28.5065 88.0045 28.677 88.2467C28.743 88.3348 28.8695 88.3568 28.9575 88.3128C29.0235 88.2797 29.1005 88.2302 29.1555 88.2797C29.2545 88.3733 29.2655 88.5165 29.392 88.5935C29.502 88.6596 29.667 88.522 29.744 88.6541C29.8045 88.7642 29.821 89.0505 29.9035 89.0835C30.0685 89.1441 30.1895 89.1992 30.36 89.1992C30.635 89.2047 30.9925 89.3918 30.943 89.6616C30.921 89.7772 30.734 89.8488 30.723 89.9754C30.7065 90.1571 30.6845 90.3388 30.668 90.5205C30.6405 90.8122 30.1895 90.6085 30.0795 90.8728C30.0135 91.038 30.206 91.1205 30.0685 91.2967C29.9805 91.4123 29.876 91.5224 29.8045 91.6491C29.6945 91.8473 29.469 91.8803 29.3205 91.9629C29.26 91.9959 29.293 92.0289 29.326 92.095C29.3425 92.1335 29.337 92.1831 29.282 92.2381C29.1995 92.3207 29.2435 92.3648 29.315 92.3868C29.3865 92.4033 29.425 92.4529 29.4085 92.5244C29.381 92.64 29.392 92.7281 29.4965 92.8162C29.7165 93.0034 29.48 93.0695 29.2765 93.0034C28.787 92.8437 28.8255 92.2877 28.7705 91.9298C28.7595 91.8473 28.6 91.7757 28.5945 91.6931C28.5835 91.583 28.6385 91.4399 28.6605 91.3298C28.677 91.2252 28.5615 91.3187 28.5615 91.2362C28.5615 91.0985 28.5615 90.9609 28.5615 90.8233C28.5615 90.4599 28.6055 90.4048 28.303 90.1956C28.1105 90.0635 28.1325 90.0415 27.984 89.8598C27.764 89.5845 27.7035 89.546 27.7145 89.2267C27.7255 88.9239 28.006 88.9459 27.973 88.6706C27.9345 88.3458 27.698 88.6376 27.533 88.4449C27.346 88.2357 27.247 88.2082 27.0435 88.076C27.038 88.076 26.9995 88.0375 26.961 88.0045C26.917 87.9604 26.8565 87.9219 26.8015 87.9274C26.741 87.9384 26.6915 87.9494 26.62 87.9329C26.4 87.8723 26.3065 87.8723 26.147 87.6301C26.0865 87.5365 26.2295 87.5035 26.169 87.4264C26.0865 87.3108 26.0095 87.1952 25.927 87.0741C25.861 86.975 25.905 86.8483 25.861 86.7823C25.8225 86.7217 25.751 86.7988 25.773 86.8703C25.85 87.1016 26.037 87.4649 25.872 87.4429C25.619 87.4044 25.586 87.0575 25.586 86.8098C25.586 86.7382 25.52 86.6777 25.4705 86.6226C25.465 86.6171 25.465 86.6171 25.465 86.6116C25.421 86.5565 25.4045 86.5455 25.3825 86.6116C25.1735 87.1621 25.058 87.7622 25.058 88.3843C25.058 91.1426 27.291 93.3778 30.0465 93.3778C31.636 93.3778 33.0495 92.6345 33.9625 91.4784C34.0065 91.4233 34.0065 91.4233 33.946 91.4674C33.8855 91.5114 33.847 91.5169 33.847 91.4454C33.847 91.1921 33.836 91.1426 33.682 90.9389C33.594 90.8177 33.682 90.6306 33.649 90.4929C33.616 90.3553 33.4015 90.3388 33.506 90.1406C33.5885 89.9864 33.7095 89.8763 33.6215 89.7222C33.5885 89.6671 33.3355 89.1111 33.286 88.8688C33.275 88.7973 33.253 88.7477 33.187 88.7257C33.066 88.6816 32.956 88.6101 32.868 88.6101C32.6755 88.6101 32.6095 88.7147 32.406 88.7147C31.944 88.7147 31.933 88.6871 31.581 88.2797C31.4325 88.1091 31.4875 87.8723 31.5645 87.6852C31.592 87.6191 31.5535 87.564 31.4985 87.5255C31.3555 87.4209 31.7185 87.2062 31.845 87.1181C32.0815 86.9474 31.933 86.7547 32.1585 86.6226C32.428 86.474 32.901 86.4464 33.253 86.4244C33.3245 86.4189 33.363 86.474 33.363 86.5455C33.374 86.7657 33.649 86.8153 33.8745 86.8593C33.946 86.8704 33.9735 86.8098 34.034 86.7713C34.1385 86.6997 34.43 86.7878 34.661 86.8428C34.7325 86.8593 34.771 86.8153 34.749 86.7492C34.7325 86.6942 34.7105 86.6446 34.6885 86.5896C34.661 86.5235 34.5785 86.4685 34.518 86.4299C34.4465 86.3859 34.4025 86.3033 34.386 86.2097C34.375 86.1381 34.3255 86.0996 34.276 86.1491C34.232 86.1932 34.2045 86.2482 34.188 86.3088C34.1715 86.3804 34.122 86.4079 34.078 86.3473C33.924 86.1491 33.8965 85.7968 33.616 85.7803C33.5445 85.7748 33.4895 85.8573 33.5225 85.9179C33.572 86.0115 33.6655 86.0555 33.759 86.1106C33.8195 86.1491 33.8525 86.2427 33.814 86.3033C33.759 86.3859 33.671 86.4519 33.5885 86.3969C33.528 86.3583 33.561 86.3088 33.6215 86.2868C33.682 86.2647 33.682 86.2097 33.6215 86.1767C33.5225 86.1216 33.429 86.061 33.363 85.9785C33.319 85.9234 33.275 85.9179 33.2145 85.9564C33.1045 86.0225 32.9945 85.9564 32.89 86.0886C32.8185 86.1822 32.7085 86.4244 32.5985 86.4354C32.4775 86.4464 32.2355 86.4905 32.142 86.3804C32.065 86.2868 32.0815 85.984 32.2135 85.9509C32.3675 85.9179 32.428 85.9179 32.5875 85.9509C32.6645 85.9675 32.67 85.9509 32.6645 85.9179C32.659 85.8573 32.626 85.8188 32.5985 85.7527C32.5655 85.6757 32.571 85.5711 32.681 85.5545C33.0055 85.505 33.0385 85.2462 33.3575 85.2462C33.429 85.2462 33.4895 85.2022 33.484 85.1361C33.473 85.0701 33.4125 85.0425 33.352 85.0591C33.2915 85.0756 33.2255 85.0425 33.1815 84.9875C33.088 84.8774 32.967 84.8223 33.132 84.6627C33.154 84.6461 33.1815 84.6296 33.2035 84.6186C33.2475 84.6021 33.2365 84.5526 33.1815 84.5085C32.802 84.2002 32.3785 83.947 31.9165 83.7598C31.4435 84.2663 30.8275 84.7838 30.074 85.1471C30.1565 85.2683 30.217 85.3894 30.1235 85.4444Z" fill="#00C185"/>
<path d="M24.255 83.2863C24.255 83.2863 24.156 84.1011 24.6675 85.0701C24.673 85.0701 24.6785 85.0756 24.6785 85.0756C26.411 82.9835 24.6345 80.974 24.6345 80.974C24.288 81.7558 23.0725 82.4385 23.4905 83.8368C23.6335 84.3158 23.9415 84.6737 24.255 84.8498C24.1835 84.7012 23.881 84.013 24.255 83.2863Z" fill="#00C185"/>
<path d="M35.4695 85.6426C35.464 85.6261 35.453 85.6096 35.442 85.5931C35.2825 85.2848 35.101 84.9875 34.892 84.7122C34.4465 84.1176 33.88 83.6001 33.209 83.1872C33.022 83.0716 32.8295 82.9725 32.6315 82.8789C32.527 83.0275 32.4115 83.1817 32.2795 83.3469C32.494 83.4405 32.703 83.5506 32.912 83.6772C33.704 84.1617 34.331 84.8168 34.771 85.5656C34.892 85.7748 35.002 85.9895 35.0955 86.2097C35.2165 86.496 35.3155 86.7933 35.387 87.0961C35.387 87.1016 35.387 87.1071 35.3925 87.1126C35.552 87.7953 35.585 88.5055 35.4805 89.2102C35.4695 89.2927 35.453 89.3753 35.4365 89.4579C35.4365 89.4634 35.4365 89.4634 35.4365 89.4689C35.3155 90.08 35.0845 90.6801 34.7435 91.2417C33.2915 93.62 30.3105 94.5064 27.83 93.4053C27.6155 93.3117 27.401 93.1961 27.192 93.0695C25.5805 92.084 24.651 90.3938 24.5685 88.6376C24.563 88.566 24.563 88.4889 24.563 88.4174C24.563 88.4119 24.563 88.4009 24.563 88.3954C24.5575 87.4154 24.816 86.4189 25.366 85.5215C25.4265 85.4224 25.4925 85.3233 25.5585 85.2297C25.6575 85.0866 25.762 84.949 25.872 84.8223C25.8885 84.8003 25.9105 84.7783 25.927 84.7563C28.8475 85.6757 30.9045 84.4149 32.076 83.2698C32.098 83.2753 32.549 82.7633 32.571 82.7358C32.593 82.7082 32.615 82.6862 32.637 82.6587C32.8955 82.3504 33.066 82.0916 33.154 81.943C33.2035 81.8659 33.2255 81.8219 33.2255 81.8219C31.5315 81.6897 29.447 79.8674 27.0985 81.5796C26.466 82.0421 26.048 82.6477 25.8335 83.2257C26.048 82.6477 26.466 82.0476 27.093 81.5851C29.436 79.8729 31.526 81.6952 33.2145 81.8219C33.2145 81.8219 33.2145 81.8274 33.209 81.8274C32.615 82.1632 31.262 82.3834 30.371 82.3229C29.326 82.2513 28.116 82.6312 28.149 82.6146C28.1435 82.6146 28.1435 82.6146 28.1435 82.6146C28.094 82.6312 28.05 82.6477 28.0005 82.6642C27.9125 82.6917 27.83 82.7247 27.7475 82.7633C26.587 83.2368 25.5695 84.0681 24.871 85.2132C24.838 85.2683 24.805 85.3288 24.772 85.3839C24.7555 85.4169 24.739 85.4444 24.7225 85.4775C24.695 85.527 24.673 85.5711 24.6455 85.6206C24.145 86.5841 23.892 87.7237 23.9635 88.8688C23.969 88.9349 23.9745 89.0009 23.98 89.067C24.2055 90.8563 25.212 92.5299 26.862 93.5374C26.895 93.5595 26.9335 93.5815 26.9665 93.6035C27.511 93.9228 28.0885 94.1485 28.677 94.2807C28.743 94.2972 28.8035 94.3082 28.8695 94.3247C29.3865 94.4238 29.909 94.4568 30.426 94.4238C30.4865 94.4183 30.5525 94.4183 30.6185 94.4073C30.6845 94.4018 30.745 94.3963 30.811 94.3853C30.833 94.3853 30.855 94.3798 30.877 94.3743C30.976 94.3632 31.075 94.3467 31.174 94.3247C32.7965 94.0164 34.2925 93.0475 35.2165 91.5279C36.355 89.6726 36.3715 87.4484 35.4695 85.6426Z" fill="#00C185"/>
<path d="M30.3875 82.3118C31.2785 82.3724 32.626 82.1522 33.2255 81.8164C33.2255 81.8108 33.231 81.8108 33.231 81.8108C31.537 81.6787 29.4525 79.8619 27.1095 81.5741C26.477 82.0366 26.059 82.6367 25.85 83.2147C25.7895 83.3744 25.7455 83.5285 25.718 83.6772C25.7455 83.6497 25.7785 83.6166 25.8225 83.5726C25.8445 83.5506 25.872 83.5285 25.8995 83.5065C26.268 83.1872 27.0655 82.6256 28.16 82.6146H28.1655C28.1325 82.6146 29.3425 82.2403 30.3875 82.3118Z" fill="#00C185"/>
<path d="M221.551 86.0335H207.323C204.903 86.0335 202.939 87.999 202.939 90.4214V102.82C202.939 105.242 204.903 107.207 207.323 107.207H212.949H215.925H218.773L220.22 111.865L221.667 107.202C224.037 107.141 225.94 105.209 225.94 102.82V90.4214C225.929 87.9935 223.971 86.0335 221.551 86.0335Z" fill="#00C185"/>
<path opacity="0.7" d="M221.551 86.0335H207.323C204.903 86.0335 202.939 87.999 202.939 90.4214V102.82C202.939 105.242 204.903 107.207 207.323 107.207H218.773L220.22 111.865L221.667 107.202C224.037 107.141 225.94 105.209 225.94 102.82V90.4214C225.929 87.9935 223.971 86.0335 221.551 86.0335Z" fill="white"/>
<path d="M209.181 92.0124V92.2437C209.181 92.5134 209.396 92.7336 209.665 92.7336H219.197C219.467 92.7336 219.681 92.5134 219.681 92.2437V92.0124C219.681 91.7427 219.467 91.5224 219.197 91.5224H216.441C216.342 90.526 215.495 89.7662 214.428 89.7662C213.367 89.7662 212.514 90.5205 212.415 91.5224H209.66C209.402 91.5224 209.181 91.7427 209.181 92.0124ZM215.49 91.5224H213.378C213.471 91.027 213.911 90.6471 214.434 90.6471C214.956 90.6526 215.396 91.027 215.49 91.5224Z" fill="#00C185"/>
<path d="M209.913 93.2401C209.847 93.3062 209.819 93.3943 209.825 93.4824L210.567 102.908C210.589 103.277 210.793 103.464 211.178 103.464H217.717C218.146 103.464 218.251 103.271 218.306 102.913V102.908L219.048 93.4824C219.054 93.3943 219.021 93.3062 218.96 93.2401C218.889 93.1686 218.79 93.1245 218.68 93.1245H210.199C210.089 93.119 209.984 93.1631 209.913 93.2401ZM211.563 94.3412C211.607 94.2807 211.662 94.2476 211.728 94.2421L211.805 94.2366C211.81 94.2366 211.816 94.2366 211.821 94.2366C211.882 94.2366 211.937 94.2642 211.986 94.3082C212.041 94.3633 212.074 94.4403 212.08 94.5284L212.646 102.082C212.652 102.17 212.63 102.247 212.586 102.313C212.542 102.374 212.487 102.407 212.421 102.412L212.344 102.418C212.278 102.423 212.217 102.396 212.168 102.346C212.113 102.291 212.08 102.214 212.074 102.126L211.508 94.5725C211.497 94.4844 211.519 94.4018 211.563 94.3412ZM214.395 94.2256H214.473C214.61 94.2256 214.725 94.3688 214.725 94.5394V102.109C214.725 102.28 214.61 102.423 214.473 102.423H214.395C214.258 102.423 214.142 102.28 214.142 102.109V94.5394C214.142 94.3688 214.258 94.2256 214.395 94.2256ZM216.166 102.076L216.755 94.5284C216.766 94.3688 216.887 94.2366 217.013 94.2366C217.019 94.2366 217.024 94.2366 217.03 94.2366L217.107 94.2421C217.173 94.2476 217.228 94.2807 217.272 94.3412C217.316 94.4073 217.338 94.4844 217.332 94.5725L216.744 102.12C216.733 102.291 216.606 102.423 216.469 102.412L216.392 102.407C216.254 102.396 216.155 102.247 216.166 102.076Z" fill="#00C185"/>
<path d="M78.9855 71.0202L78.3805 69.3465C77.726 67.5407 75.922 66.4176 74.0135 66.6323L61.413 68.0417C59.5045 68.2565 57.992 69.7484 57.75 71.6588L56.6775 80.1923L59.521 105.655C59.851 108.606 62.5075 110.736 65.461 110.406L92.631 107.367C95.579 107.037 97.7075 104.378 97.3775 101.421L94.534 75.9586L94.0445 71.5652C93.907 70.354 92.818 69.4787 91.608 69.6163L78.9855 71.0202ZM63.3655 73.861L63.514 72.6608C63.6405 71.6478 64.4435 70.855 65.4555 70.7394L72.1435 69.9907C73.1555 69.8751 74.1125 70.4751 74.4645 71.4331L74.877 72.5672C75.46 74.1748 74.3875 75.909 72.688 76.0962L66.286 76.8119C64.581 77.0101 63.151 75.5567 63.3655 73.861Z" fill="#00C185"/>
<g opacity="0.6">
<path d="M78.9855 71.0202L78.3805 69.3465C77.726 67.5407 75.922 66.4176 74.0135 66.6323L61.413 68.0417C59.5045 68.2565 57.992 69.7484 57.75 71.6588L56.6775 80.1923L59.521 105.655C59.851 108.606 62.5075 110.736 65.461 110.406L92.631 107.367C95.579 107.037 97.7075 104.378 97.3775 101.421L94.534 75.9586L94.0445 71.5652C93.907 70.354 92.818 69.4787 91.608 69.6163L78.9855 71.0202ZM63.3655 73.861L63.514 72.6608C63.6405 71.6478 64.4435 70.855 65.4555 70.7394L72.1435 69.9907C73.1555 69.8751 74.1125 70.4751 74.4645 71.4331L74.877 72.5672C75.46 74.1748 74.3875 75.909 72.688 76.0962L66.286 76.8119C64.581 77.0101 63.151 75.5567 63.3655 73.861Z" fill="white"/>
</g>
<path d="M92.0905 68.1183L82.7875 69.1593L82.9531 70.6421L92.2561 69.601L92.0905 68.1183Z" fill="#3056CE"/>
<path opacity="0.1" d="M62.9475 105.264L59.95 79.8234L61.1765 71.2734C61.4185 69.3686 62.7715 67.8876 64.68 67.6784L61.413 68.0417C59.5045 68.2565 57.992 69.7484 57.75 71.6588L56.6775 80.1923L59.521 105.655C59.851 108.606 62.5075 110.736 65.461 110.406L68.574 110.059C65.626 110.379 63.2775 108.22 62.9475 105.264Z" fill="#263238"/>
<path opacity="0.1" d="M94.5617 76.2307L56.7104 80.4664L56.7935 81.2105L94.6448 76.9748L94.5617 76.2307Z" fill="#263238"/>
<path d="M97.3342 101.054L59.4828 105.29L59.5659 106.034L97.4173 101.798L97.3342 101.054Z" fill="#899D9E"/>
<path d="M92.0905 68.1183L82.7875 69.1593L82.9531 70.642L92.2561 69.601L92.0905 68.1183Z" fill="#00C185"/>
<path d="M87.989 65.0688L86.119 65.278C84.601 65.4487 83.512 66.814 83.6825 68.3335L83.765 69.0547L91.124 68.2289L91.0415 67.5077C90.871 65.9882 89.5015 64.8981 87.989 65.0688Z" fill="#00C185"/>
<path opacity="0.3" d="M92.0905 68.1183L82.7875 69.1593L82.9531 70.642L92.2561 69.601L92.0905 68.1183Z" fill="#263238"/>
<path opacity="0.1" d="M87.989 65.0688L86.119 65.278C84.601 65.4487 83.512 66.814 83.6825 68.3335L83.765 69.0547L91.124 68.2289L91.0415 67.5077C90.871 65.9882 89.5015 64.8981 87.989 65.0688Z" fill="#263238"/>
<path d="M89.5895 109.773C87.736 109.019 86.8065 108.639 86.1685 108.38C85.723 108.198 84.4855 107.697 84.4855 107.697C84.04 107.516 83.7265 107.207 83.5505 106.784C83.105 105.71 83.71 104.257 83.7375 104.196C83.7705 104.119 86.966 96.3562 87.307 95.3763C87.571 94.622 89.6885 91.6546 90.926 89.9534C91.3 89.4359 91.6135 88.8743 91.8555 88.2797L92.5375 86.5896C92.7355 86.0941 92.8455 85.5711 92.8675 85.037L92.884 84.514C92.9115 83.6552 93.082 82.8183 93.39 82.0146C94.4955 79.1297 96.415 74.1968 96.833 73.5747C97.372 72.7709 101.816 70.7229 102.619 70.3595L103.043 69.319L108.059 71.3505L107.635 72.391C107.954 73.2114 109.725 77.7809 109.555 78.7278C109.423 79.4655 107.371 84.3434 106.161 87.1842C105.826 87.9714 105.364 88.6926 104.786 89.3313L104.434 89.7222C104.077 90.1186 103.791 90.57 103.593 91.0655L102.911 92.7557C102.669 93.3503 102.504 93.9724 102.416 94.6055C102.124 96.6866 101.58 100.293 101.244 101.019C100.81 101.961 97.7075 109.762 97.6745 109.845C97.6525 109.905 97.075 111.37 96.0135 111.832C95.59 112.014 95.1555 112.014 94.71 111.838C94.71 111.838 93.731 111.441 93.225 111.232C91.4045 110.505 89.5895 109.773 89.5895 109.773Z" fill="#00C185"/>
<path opacity="0.8" d="M89.5895 109.773C87.736 109.019 86.8065 108.639 86.1685 108.38C85.723 108.198 84.4855 107.697 84.4855 107.697C84.04 107.516 83.7265 107.207 83.5505 106.784C83.105 105.71 83.71 104.257 83.7375 104.196C83.7705 104.119 86.966 96.3562 87.307 95.3763C87.571 94.622 89.6885 91.6546 90.926 89.9534C91.3 89.4359 91.6135 88.8743 91.8555 88.2797L92.5375 86.5896C92.7355 86.0941 92.8455 85.5711 92.8675 85.037L92.884 84.514C92.9115 83.6552 93.082 82.8183 93.39 82.0146C94.4955 79.1297 96.415 74.1968 96.833 73.5747C97.372 72.7709 101.816 70.7229 102.619 70.3595L103.043 69.319L108.059 71.3505L107.635 72.391C107.954 73.2114 109.725 77.7809 109.555 78.7278C109.423 79.4655 107.371 84.3434 106.161 87.1842C105.826 87.9714 105.364 88.6926 104.786 89.3313L104.434 89.7222C104.077 90.1186 103.791 90.57 103.593 91.0655L102.911 92.7557C102.669 93.3503 102.504 93.9724 102.416 94.6055C102.124 96.6866 101.58 100.293 101.244 101.019C100.81 101.961 97.7075 109.762 97.6745 109.845C97.6525 109.905 97.075 111.37 96.0135 111.832C95.59 112.014 95.1555 112.014 94.71 111.838C94.71 111.838 93.731 111.441 93.225 111.232C91.4045 110.505 89.5895 109.773 89.5895 109.773Z" fill="white"/>
<path d="M107.789 71.4771L107.415 72.4076C107.415 72.4076 109.522 77.7533 109.351 78.7113C109.219 79.449 106.986 84.7397 105.974 87.1291C105.65 87.8944 105.199 88.5991 104.638 89.2157L104.286 89.6066C103.912 90.0195 103.615 90.4929 103.406 91.0104L102.724 92.7006C102.476 93.3117 102.306 93.9448 102.218 94.5945C101.959 96.4168 101.398 100.227 101.063 100.953C100.623 101.911 97.4875 109.784 97.4875 109.784C97.4875 109.784 96.4975 112.361 94.7815 111.661C94.314 111.469 93.808 111.265 93.302 111.061C91.487 110.324 89.672 109.591 89.672 109.591C87.8185 108.837 86.889 108.457 86.251 108.198C85.613 107.94 85.261 107.797 84.5625 107.516C82.852 106.822 83.9245 104.284 83.9245 104.284C83.9245 104.284 87.1475 96.4443 87.4995 95.4533C87.7635 94.6991 90.0075 91.572 91.091 90.0855C91.476 89.557 91.795 88.9789 92.0425 88.3678L92.7245 86.6777C92.9335 86.1601 93.049 85.6151 93.0655 85.0591L93.082 84.536C93.1095 83.7047 93.2745 82.8844 93.5715 82.1026C94.501 79.6802 96.5745 74.329 96.9925 73.7068C97.537 72.8975 102.768 70.5302 102.768 70.5302L103.142 69.5998L105.463 70.5412L107.789 71.4771ZM108.312 71.2514L107.938 71.1028L105.617 70.1613L103.296 69.2199L102.922 69.0713L102.773 69.4456L102.46 70.2274C101.31 70.7504 97.218 72.6608 96.6625 73.4811C96.2555 74.0867 94.556 78.425 93.1975 81.9595C92.884 82.7798 92.708 83.6442 92.6805 84.5195L92.664 85.0425C92.6475 85.5546 92.543 86.05 92.3505 86.5235L91.6685 88.2137C91.4375 88.7917 91.1295 89.3368 90.761 89.8433C89.243 91.9299 87.373 94.5725 87.1145 95.3157C86.7735 96.2902 83.578 104.053 83.5505 104.13C83.523 104.19 82.8905 105.721 83.3635 106.866C83.5615 107.345 83.9135 107.686 84.4085 107.885L84.975 108.116C85.349 108.27 85.6515 108.391 86.097 108.567C86.735 108.826 87.6645 109.206 89.518 109.96C89.518 109.96 91.333 110.692 93.148 111.43C93.654 111.634 94.16 111.843 94.6275 112.03C95.128 112.234 95.6175 112.228 96.0905 112.025C97.229 111.529 97.834 109.988 97.8615 109.922C97.889 109.845 100.991 102.049 101.426 101.113C101.756 100.403 102.251 97.2041 102.614 94.644C102.702 94.0274 102.861 93.4218 103.098 92.8438L103.78 91.1536C103.972 90.6801 104.242 90.2507 104.583 89.8708L104.935 89.4799C105.523 88.8303 106.002 88.0871 106.343 87.2778C107.822 83.7983 109.621 79.4931 109.747 78.7773C109.923 77.8029 108.312 73.5857 107.85 72.402L108.163 71.6203L108.312 71.2514Z" fill="#00C185"/>
<path opacity="0.5" d="M107.789 71.4771L107.415 72.4076C107.415 72.4076 109.522 77.7533 109.351 78.7113C109.219 79.449 106.986 84.7397 105.974 87.1291C105.65 87.8944 105.199 88.5991 104.638 89.2157L104.286 89.6066C103.912 90.0195 103.615 90.4929 103.406 91.0104L102.724 92.7006C102.476 93.3117 102.306 93.9448 102.218 94.5945C101.959 96.4168 101.398 100.227 101.063 100.953C100.623 101.911 97.4875 109.784 97.4875 109.784C97.4875 109.784 96.4975 112.361 94.7815 111.661C94.314 111.469 93.808 111.265 93.302 111.061C91.487 110.324 89.672 109.591 89.672 109.591C87.8185 108.837 86.889 108.457 86.251 108.198C85.613 107.94 85.261 107.797 84.5625 107.516C82.852 106.822 83.9245 104.284 83.9245 104.284C83.9245 104.284 87.1475 96.4443 87.4995 95.4533C87.7635 94.6991 90.0075 91.572 91.091 90.0855C91.476 89.557 91.795 88.9789 92.0425 88.3678L92.7245 86.6777C92.9335 86.1601 93.049 85.6151 93.0655 85.0591L93.082 84.536C93.1095 83.7047 93.2745 82.8844 93.5715 82.1026C94.501 79.6802 96.5745 74.329 96.9925 73.7068C97.537 72.8975 102.768 70.5302 102.768 70.5302L103.142 69.5998L105.463 70.5412L107.789 71.4771ZM108.312 71.2514L107.938 71.1028L105.617 70.1613L103.296 69.2199L102.922 69.0713L102.773 69.4456L102.46 70.2274C101.31 70.7504 97.218 72.6608 96.6625 73.4811C96.2555 74.0867 94.556 78.425 93.1975 81.9595C92.884 82.7798 92.708 83.6442 92.6805 84.5195L92.664 85.0425C92.6475 85.5546 92.543 86.05 92.3505 86.5235L91.6685 88.2137C91.4375 88.7917 91.1295 89.3368 90.761 89.8433C89.243 91.9299 87.373 94.5725 87.1145 95.3157C86.7735 96.2902 83.578 104.053 83.5505 104.13C83.523 104.19 82.8905 105.721 83.3635 106.866C83.5615 107.345 83.9135 107.686 84.4085 107.885L84.975 108.116C85.349 108.27 85.6515 108.391 86.097 108.567C86.735 108.826 87.6645 109.206 89.518 109.96C89.518 109.96 91.333 110.692 93.148 111.43C93.654 111.634 94.16 111.843 94.6275 112.03C95.128 112.234 95.6175 112.228 96.0905 112.025C97.229 111.529 97.834 109.988 97.8615 109.922C97.889 109.845 100.991 102.049 101.426 101.113C101.756 100.403 102.251 97.2041 102.614 94.644C102.702 94.0274 102.861 93.4218 103.098 92.8438L103.78 91.1536C103.972 90.6801 104.242 90.2507 104.583 89.8708L104.935 89.4799C105.523 88.8303 106.002 88.0871 106.343 87.2778C107.822 83.7983 109.621 79.4931 109.747 78.7773C109.923 77.8029 108.312 73.5857 107.85 72.402L108.163 71.6203L108.312 71.2514Z" fill="white"/>
<path d="M84.777 107.604C85.9595 108.083 86.1355 108.154 86.1355 108.154C86.1355 108.154 86.7075 108.386 87.527 108.716C86.5425 108.314 85.932 108.072 84.777 107.604Z" fill="#C1DEE1"/>
<path d="M91.9867 110.527C91.9155 110.5 91.8387 110.467 91.7675 110.439C91.8387 110.467 91.9155 110.494 91.9867 110.527Z" fill="#C1DEE1"/>
<path opacity="0.1" d="M97.482 109.778C97.482 109.778 100.617 101.906 101.057 100.948C101.393 100.227 101.954 96.4113 102.212 94.589C102.306 93.9393 102.476 93.3007 102.718 92.6951L103.4 91.0049C103.609 90.4874 103.906 90.014 104.28 89.601L104.632 89.2102C105.193 88.5935 105.644 87.8889 105.969 87.1236C106.986 84.7397 109.214 79.449 109.346 78.7058C109.516 77.7478 107.41 72.402 107.41 72.402L107.784 71.4716L106.948 71.1303C106.948 71.1303 107.47 76.9165 107.3 77.8745C107.168 78.6122 104.935 83.9029 103.923 86.2923C103.598 87.0575 103.147 87.7622 102.586 88.3788L102.234 88.7697C101.86 89.1826 101.563 89.6561 101.354 90.1736L100.672 91.8638C100.425 92.4749 100.254 93.108 100.166 93.7577C99.9075 95.58 99.3465 99.3897 99.011 100.116C98.571 101.074 95.436 108.947 95.436 108.947C95.436 108.947 94.446 111.518 92.7355 110.825C93.632 111.188 93.9015 111.298 94.776 111.65C96.4865 112.355 97.482 109.778 97.482 109.778Z" fill="#263238"/>
<path d="M84.557 107.516C84.6282 107.543 84.705 107.576 84.7762 107.604C84.705 107.571 84.6282 107.543 84.557 107.516C84.557 107.51 84.5515 107.51 84.557 107.516Z" fill="#C1DEE1"/>
<path d="M87.527 108.721C88.3465 109.057 89.661 109.591 89.661 109.591C89.661 109.591 90.5795 109.96 91.762 110.439C90.6125 109.966 88.517 109.118 87.527 108.721Z" fill="#C1DEE1"/>
<path d="M91.058 110.147C91.8775 110.483 92.4495 110.714 92.4495 110.714C92.4495 110.714 93.368 111.083 94.5505 111.562C93.3955 111.094 92.048 110.549 91.058 110.147Z" fill="#C1DEE1"/>
<path d="M94.7752 111.656C94.704 111.628 94.6272 111.595 94.556 111.568C94.6272 111.595 94.6985 111.628 94.7752 111.656Z" fill="#C1DEE1"/>
<path d="M85.9595 105.104C85.9595 105.104 89.1825 97.2646 89.5345 96.2736C89.7985 95.5194 92.0425 92.3923 93.126 90.9058C93.511 90.3773 93.83 89.7992 94.0775 89.1881L94.7595 87.498C94.9685 86.9805 95.084 86.4354 95.1005 85.8794L95.117 85.3564C95.1445 84.525 95.3095 83.7047 95.6065 82.9229C96.536 80.5006 98.6095 75.1493 99.0275 74.5271C99.572 73.7178 104.715 70.2274 104.715 70.2274L103.136 69.5888L102.762 70.5192C102.762 70.5192 97.5315 72.892 96.987 73.6958C96.569 74.3179 94.49 79.6747 93.566 82.0916C93.269 82.8679 93.104 83.6882 93.0765 84.525L93.06 85.048C93.0435 85.6041 92.928 86.1491 92.719 86.6666L92.037 88.3568C91.7895 88.9679 91.4705 89.5405 91.0855 90.0745C90.002 91.561 87.758 94.6936 87.494 95.4423C87.1475 96.4388 83.919 104.273 83.919 104.273C83.919 104.273 82.841 106.817 84.557 107.51C85.4315 107.863 85.701 107.973 86.5975 108.336C84.887 107.642 85.9595 105.104 85.9595 105.104Z" fill="white"/>
<path d="M108.598 70.7064L109.214 69.1869C109.555 68.3445 109.148 67.3921 108.312 67.0508L105.853 66.0543C105.012 65.7129 104.06 66.1203 103.719 66.9572L103.103 68.4767L102.548 68.2509L102.333 68.7795L108.939 71.4551L109.153 70.9266L108.598 70.7064Z" fill="#00C185"/>
<path opacity="0.5" d="M108.598 70.7064L109.214 69.1869C109.555 68.3445 109.148 67.3921 108.312 67.0508L105.853 66.0543C105.012 65.7129 104.06 66.1203 103.719 66.9572L103.103 68.4767L102.548 68.2509L102.333 68.7795L108.939 71.4551L109.153 70.9266L108.598 70.7064Z" fill="white"/>
<path d="M96.1496 75.5767L95.811 76.4136L108.321 81.4854L108.66 80.6485L96.1496 75.5767Z" fill="white"/>
<path d="M95.1486 78.036L94.81 78.8729L107.32 83.9447L107.659 83.1078L95.1486 78.036Z" fill="white"/>
<path d="M94.1541 80.4997L93.8155 81.3366L106.326 86.4084L106.664 85.5715L94.1541 80.4997Z" fill="white"/>
<path d="M121.534 195.504L128.018 100.083H56.3805L62.9035 195.504H121.534Z" fill="#00C185"/>
<path d="M128.964 100.083H55.4345C53.0585 100.083 51.128 98.151 51.128 95.7726V94.9303C51.128 92.552 53.0585 90.6196 55.4345 90.6196H128.964C131.34 90.6196 133.271 92.552 133.271 94.9303V95.7726C133.271 98.151 131.34 100.083 128.964 100.083Z" fill="#00C185"/>
<path opacity="0.21" d="M127.353 107.51L128.018 100.083H56.3805L57.0405 107.51H127.353Z" fill="black"/>
<path d="M97.6635 143.389C97.6635 143.389 105.336 155.303 103.862 158.43C105.82 156.867 108.906 154.604 109.159 151.515C109.357 149.071 103.708 140.246 103.708 140.246L97.6635 143.389Z" fill="white"/>
<path d="M102.135 152.616C102.135 152.616 104.148 156.564 103.213 158.485H97.7845V160.346L93.016 155.496L97.7845 150.645V152.622H102.135V152.616Z" fill="white"/>
<path d="M91.3605 151.587C91.3605 151.587 77.2255 152.369 75.2345 149.544C75.625 152.027 76.065 155.826 78.617 157.571C80.641 158.953 91.0965 158.403 91.0965 158.403L91.3605 151.587Z" fill="white"/>
<path d="M81.136 150.921C81.136 150.921 76.714 150.722 75.5095 148.955L78.1935 144.232L76.5765 143.312L83.149 141.561L85.0025 148.107L83.2865 147.133L81.136 150.921Z" fill="white"/>
<path d="M87.428 142.244C87.428 142.244 93.8905 129.631 97.328 129.339C94.9905 128.425 91.4925 126.889 88.6985 128.211C86.482 129.262 81.6805 138.577 81.6805 138.577L87.428 142.244Z" fill="white"/>
<path d="M93.1645 133.749C93.1645 133.749 95.568 130.027 97.702 129.879L100.419 134.586L102.025 133.656L100.216 140.218L93.632 138.517L95.337 137.526L93.1645 133.749Z" fill="white"/>
<path opacity="0.2" d="M72.9465 195.504V166.782L69.7785 100.083H56.3805L62.8595 195.504H72.9465Z" fill="white"/>
<path opacity="0.21" d="M121.534 195.504L128.018 100.083H114.626L111.551 168.252V195.504H121.534Z" fill="black"/>
<path opacity="0.2" d="M66.3414 90.6196H55.3084C53.0039 90.6196 51.1339 92.4914 51.1339 94.7982V95.8993C51.1339 98.2061 53.0039 100.078 55.3084 100.078H66.3414V90.6196Z" fill="white"/>
<path opacity="0.21" d="M118.228 100.083H129.091C131.395 100.083 133.265 98.2116 133.265 95.9048V94.8037C133.265 92.4969 131.395 90.6251 129.091 90.6251H118.228V100.083Z" fill="black"/>
<path d="M144.853 76.1843H143.06V76.5587C141.454 77.2523 140.332 78.8544 140.332 80.7153V197.645H149.38V80.7153C149.375 78.2103 147.35 76.1843 144.853 76.1843Z" fill="#263238"/>
<path opacity="0.1" d="M144.853 76.1843H143.06V76.5587C141.454 77.2523 140.332 78.8544 140.332 80.7153V197.645H149.38V80.7153C149.375 78.2103 147.35 76.1843 144.853 76.1843Z" fill="white"/>
<path d="M147.581 197.645H138.534V80.4565C138.534 78.1002 140.443 76.1843 142.802 76.1843H143.314C145.668 76.1843 147.581 78.0947 147.581 80.4565V197.645Z" fill="#263238"/>
<path opacity="0.2" d="M147.581 197.645H138.534V80.4565C138.534 78.1002 140.443 76.1843 142.802 76.1843H143.314C145.668 76.1843 147.581 78.0947 147.581 80.4565V197.645Z" fill="white"/>
<path d="M247.781 199.154V186.089C247.781 183.59 245.757 181.564 243.26 181.564H241.466V181.938C239.86 182.632 238.739 184.234 238.739 186.095V199.159H247.781V199.154Z" fill="#263238"/>
<path opacity="0.1" d="M247.781 199.154V186.089C247.781 183.59 245.757 181.564 243.26 181.564H241.466V181.938C239.86 182.632 238.739 184.234 238.739 186.095V199.159H247.781V199.154Z" fill="white"/>
<path d="M245.982 199.154V186.089C245.982 183.59 243.958 181.564 241.461 181.564C238.964 181.564 236.94 183.59 236.94 186.089V199.154H245.982Z" fill="#263238"/>
<path opacity="0.2" d="M245.982 199.154V186.089C245.982 183.59 243.958 181.564 241.461 181.564C238.964 181.564 236.94 183.59 236.94 186.089V199.154H245.982Z" fill="white"/>
<path d="M238.75 191.017H202.312L101.464 77.1698H136.719C138.963 77.1698 141.114 78.0892 142.665 79.7133L241.868 183.717C244.492 186.464 242.545 191.017 238.75 191.017Z" fill="#263238"/>
<path opacity="0.4" d="M238.75 191.017H202.312L101.464 77.1698H136.719C138.963 77.1698 141.114 78.0892 142.665 79.7133L241.868 183.717C244.492 186.464 242.545 191.017 238.75 191.017Z" fill="white"/>
<path opacity="0.2" d="M202.669 142.806H166.644V143.318H202.669V142.806Z" fill="black"/>
<path opacity="0.2" d="M183.128 122.221H147.103V122.733H183.128V122.221Z" fill="black"/>
<path opacity="0.2" d="M163.586 101.63H127.562V102.142H163.586V101.63Z" fill="black"/>
<path opacity="0.2" d="M144.04 81.0401H108.015V81.5521H144.04V81.0401Z" fill="black"/>
<path opacity="0.2" d="M222.821 163.352H186.797V163.864H222.821V163.352Z" fill="black"/>
<path d="M202.312 191.017C201.091 191.017 199.92 190.516 199.073 189.629L99.022 84.7452C96.305 81.8934 98.3235 77.1698 102.261 77.1698C103.482 77.1698 104.654 77.6708 105.501 78.5571L205.552 183.447C208.269 186.299 206.25 191.017 202.312 191.017Z" fill="#263238"/>
<path opacity="0.5" d="M202.312 191.017C201.091 191.017 199.92 190.516 199.073 189.629L99.022 84.7452C96.305 81.8934 98.3235 77.1698 102.261 77.1698C103.482 77.1698 104.654 77.6708 105.501 78.5571L205.552 183.447C208.269 186.299 206.25 191.017 202.312 191.017Z" fill="white"/>
<path d="M202.312 189.486C201.509 189.486 200.734 189.156 200.184 188.572L100.133 83.6827C99.2915 82.8018 99.077 81.6071 99.5555 80.4895C100.034 79.3719 101.046 78.7003 102.262 78.7003C103.065 78.7003 103.84 79.0306 104.39 79.6142L204.441 184.504C205.282 185.385 205.497 186.579 205.018 187.697C204.54 188.82 203.528 189.486 202.312 189.486Z" fill="#00C185"/>
<path opacity="0.4" d="M202.312 189.486C201.509 189.486 200.734 189.156 200.184 188.572L100.133 83.6827C99.2915 82.8018 99.077 81.6071 99.5555 80.4895C100.034 79.3719 101.046 78.7003 102.262 78.7003C103.065 78.7003 103.84 79.0306 104.39 79.6142L204.441 184.504C205.282 185.385 205.497 186.579 205.018 187.697C204.54 188.82 203.528 189.486 202.312 189.486Z" fill="black"/>
<path d="M102.058 83.4955C103.227 83.4955 104.176 82.5465 104.176 81.3759C104.176 80.2053 103.227 79.2563 102.058 79.2563C100.889 79.2563 99.9405 80.2053 99.9405 81.3759C99.9405 82.5465 100.889 83.4955 102.058 83.4955Z" fill="#00C185"/>
<path d="M124.273 102.473C124.273 103.645 123.327 104.592 122.155 104.592C120.984 104.592 120.038 103.645 120.038 102.473C120.038 101.3 120.984 100.353 122.155 100.353C123.327 100.353 124.273 101.3 124.273 102.473Z" fill="#00C185"/>
<path d="M144.364 123.575C144.364 124.748 143.418 125.695 142.247 125.695C141.075 125.695 140.129 124.748 140.129 123.575C140.129 122.402 141.075 121.456 142.247 121.456C143.418 121.456 144.364 122.402 144.364 123.575Z" fill="#00C185"/>
<path d="M162.338 146.792C163.507 146.792 164.456 145.843 164.456 144.672C164.456 143.501 163.507 142.552 162.338 142.552C161.169 142.552 160.221 143.501 160.221 144.672C160.221 145.843 161.169 146.792 162.338 146.792Z" fill="#00C185"/>
<path d="M182.435 167.894C183.604 167.894 184.553 166.945 184.553 165.774C184.553 164.604 183.604 163.655 182.435 163.655C181.266 163.655 180.318 164.604 180.318 165.774C180.318 166.945 181.266 167.894 182.435 167.894Z" fill="#00C185"/>
<path d="M204.644 186.871C204.644 188.044 203.698 188.991 202.527 188.991C201.355 188.991 200.409 188.044 200.409 186.871C200.409 185.699 201.355 184.752 202.527 184.752C203.698 184.752 204.644 185.704 204.644 186.871Z" fill="#00C185"/>
<g opacity="0.2">
<path d="M102.058 83.4955C103.227 83.4955 104.176 82.5465 104.176 81.3759C104.176 80.2053 103.227 79.2563 102.058 79.2563C100.889 79.2563 99.9405 80.2053 99.9405 81.3759C99.9405 82.5465 100.889 83.4955 102.058 83.4955Z" fill="white"/>
<path d="M124.273 102.473C124.273 103.645 123.327 104.592 122.155 104.592C120.984 104.592 120.038 103.645 120.038 102.473C120.038 101.3 120.984 100.353 122.155 100.353C123.327 100.353 124.273 101.3 124.273 102.473Z" fill="white"/>
<path d="M144.364 123.575C144.364 124.748 143.418 125.695 142.247 125.695C141.075 125.695 140.129 124.748 140.129 123.575C140.129 122.402 141.075 121.456 142.247 121.456C143.418 121.456 144.364 122.402 144.364 123.575Z" fill="white"/>
<path d="M162.338 146.792C163.507 146.792 164.456 145.843 164.456 144.672C164.456 143.501 163.507 142.552 162.338 142.552C161.169 142.552 160.221 143.501 160.221 144.672C160.221 145.843 161.169 146.792 162.338 146.792Z" fill="white"/>
<path d="M182.435 167.894C183.604 167.894 184.553 166.945 184.553 165.774C184.553 164.604 183.604 163.655 182.435 163.655C181.266 163.655 180.318 164.604 180.318 165.774C180.318 166.945 181.266 167.894 182.435 167.894Z" fill="white"/>
<path d="M204.644 186.871C204.644 188.044 203.698 188.991 202.527 188.991C201.355 188.991 200.409 188.044 200.409 186.871C200.409 185.699 201.355 184.752 202.527 184.752C203.698 184.752 204.644 185.704 204.644 186.871Z" fill="white"/>
</g>
<path opacity="0.2" d="M242.852 185.654H206.827V186.166H242.852V185.654Z" fill="black"/>
<path d="M103.669 76.1843H101.876V76.5587C100.27 77.2523 99.1485 78.8544 99.1485 80.7153V197.645H108.196V80.7153C108.196 78.2103 106.172 76.1843 103.669 76.1843Z" fill="#263238"/>
<path opacity="0.1" d="M103.669 76.1843H101.876V76.5587C100.27 77.2523 99.1485 78.8544 99.1485 80.7153V197.645H108.196V80.7153C108.196 78.2103 106.172 76.1843 103.669 76.1843Z" fill="white"/>
<path d="M106.403 197.645H97.3555V80.4565C97.3555 78.1002 99.264 76.1843 101.624 76.1843H102.135C104.489 76.1843 106.403 78.0947 106.403 80.4565V197.645Z" fill="#263238"/>
<path opacity="0.2" d="M106.403 197.645H97.3555V80.4565C97.3555 78.1002 99.264 76.1843 101.624 76.1843H102.135C104.489 76.1843 106.403 78.0947 106.403 80.4565V197.645Z" fill="white"/>
<path opacity="0.5" d="M104.176 80.908C104.176 82.0806 103.23 83.0275 102.058 83.0275C100.887 83.0275 99.9405 82.0806 99.9405 80.908C99.9405 79.7353 100.887 78.7884 102.058 78.7884C103.23 78.7884 104.176 79.7353 104.176 80.908Z" fill="white"/>
<path d="M206.597 199.154V186.089C206.597 183.59 204.573 181.564 202.076 181.564H200.282V181.938C198.676 182.632 197.555 184.234 197.555 186.095V199.159H206.597V199.154Z" fill="#263238"/>
<path opacity="0.1" d="M206.597 199.154V186.089C206.597 183.59 204.573 181.564 202.076 181.564H200.282V181.938C198.676 182.632 197.555 184.234 197.555 186.095V199.159H206.597V199.154Z" fill="white"/>
<path d="M204.803 199.154V186.089C204.803 183.59 202.779 181.564 200.282 181.564C197.785 181.564 195.761 183.59 195.761 186.089V199.154H204.803Z" fill="#263238"/>
<path opacity="0.2" d="M204.803 199.154V186.089C204.803 183.59 202.779 181.564 200.282 181.564C197.785 181.564 195.761 183.59 195.761 186.089V199.154H204.803Z" fill="white"/>
<path opacity="0.5" d="M200.459 188.407C201.628 188.407 202.576 187.458 202.576 186.288C202.576 185.117 201.628 184.168 200.459 184.168C199.289 184.168 198.341 185.117 198.341 186.288C198.341 187.458 199.289 188.407 200.459 188.407Z" fill="white"/>
<path d="M188.254 120.316C188.226 118.505 188.21 117.596 188.205 116.974C188.199 116.539 188.182 115.328 188.182 115.328C188.177 114.893 188.023 114.524 187.72 114.238C186.961 113.511 185.542 113.544 185.482 113.55C185.405 113.55 177.826 113.698 176.891 113.665C176.17 113.643 172.981 114.453 171.144 114.937C170.583 115.086 170.01 115.163 169.433 115.174L167.789 115.196C167.305 115.201 166.831 115.124 166.375 114.965L165.93 114.805C165.198 114.546 164.439 114.414 163.664 114.414C160.875 114.403 156.09 114.403 155.435 114.552C154.583 114.744 151.398 117.822 150.832 118.372L149.82 118.389L149.886 123.283L150.898 123.267C151.481 123.806 154.748 126.796 155.606 126.961C156.272 127.093 161.046 126.961 163.834 126.873C164.61 126.851 165.369 126.697 166.089 126.416L166.529 126.245C166.98 126.075 167.453 125.981 167.937 125.975L169.581 125.953C170.159 125.948 170.737 126.009 171.298 126.141C173.146 126.576 176.357 127.302 177.078 127.258C178.013 127.203 185.597 127.143 185.674 127.143C185.735 127.143 187.154 127.137 187.891 126.394C188.182 126.097 188.331 125.728 188.32 125.293C188.32 125.293 188.303 124.335 188.298 123.839C188.276 122.083 188.254 120.316 188.254 120.316Z" fill="#00C185"/>
<path opacity="0.8" d="M188.254 120.316C188.226 118.505 188.21 117.596 188.205 116.974C188.199 116.539 188.182 115.328 188.182 115.328C188.177 114.893 188.023 114.524 187.72 114.238C186.961 113.511 185.542 113.544 185.482 113.55C185.405 113.55 177.826 113.698 176.891 113.665C176.17 113.643 172.981 114.453 171.144 114.937C170.583 115.086 170.01 115.163 169.433 115.174L167.789 115.196C167.305 115.201 166.831 115.124 166.375 114.965L165.93 114.805C165.198 114.546 164.439 114.414 163.664 114.414C160.875 114.403 156.09 114.403 155.435 114.552C154.583 114.744 151.398 117.822 150.832 118.372L149.82 118.389L149.886 123.283L150.898 123.267C151.481 123.806 154.748 126.796 155.606 126.961C156.272 127.093 161.046 126.961 163.834 126.873C164.61 126.851 165.369 126.697 166.089 126.416L166.529 126.245C166.98 126.075 167.453 125.981 167.937 125.975L169.581 125.953C170.159 125.948 170.737 126.009 171.298 126.141C173.146 126.576 176.357 127.302 177.078 127.258C178.013 127.203 185.597 127.143 185.674 127.143C185.735 127.143 187.154 127.137 187.891 126.394C188.182 126.097 188.331 125.728 188.32 125.293C188.32 125.293 188.303 124.335 188.298 123.839C188.276 122.083 188.254 120.316 188.254 120.316Z" fill="white"/>
<path d="M150.062 123.102L150.029 120.833L149.996 118.565L150.903 118.554C150.903 118.554 154.616 114.921 155.474 114.728C156.134 114.579 161.321 114.585 163.664 114.596C164.417 114.601 165.159 114.728 165.869 114.976L166.315 115.135C166.788 115.3 167.288 115.383 167.789 115.378L169.433 115.356C170.027 115.35 170.616 115.267 171.188 115.113C172.794 114.689 176.165 113.819 176.88 113.847C177.832 113.88 185.488 113.731 185.488 113.731C185.488 113.731 187.979 113.654 188.001 115.328C188.012 116.011 188.012 116.352 188.023 116.974C188.034 117.596 188.045 118.505 188.073 120.316C188.073 120.316 188.095 122.089 188.117 123.856C188.122 124.351 188.128 124.847 188.139 125.298C188.161 126.972 185.669 126.961 185.669 126.961C185.669 126.961 178.013 127.022 177.061 127.077C176.341 127.121 172.947 126.344 171.336 125.964C170.758 125.827 170.17 125.761 169.576 125.772L167.931 125.794C167.431 125.799 166.931 125.898 166.463 126.075L166.023 126.245C165.319 126.515 164.576 126.664 163.828 126.686C161.485 126.757 156.305 126.906 155.639 126.774C154.776 126.603 150.969 123.074 150.969 123.074L150.062 123.102ZM149.705 123.471L150.068 123.465L150.827 123.454C151.668 124.23 154.693 126.972 155.568 127.143C156.217 127.269 160.424 127.17 163.84 127.06C164.632 127.033 165.413 126.878 166.155 126.592L166.595 126.421C167.024 126.256 167.475 126.168 167.937 126.163L169.581 126.141C170.142 126.135 170.709 126.196 171.253 126.322C173.525 126.856 176.38 127.484 177.084 127.445C178.013 127.39 185.592 127.33 185.664 127.33C185.73 127.33 187.22 127.324 188.012 126.526C188.342 126.196 188.502 125.783 188.496 125.293C188.491 124.836 188.479 124.34 188.474 123.85C188.452 122.083 188.43 120.31 188.43 120.31C188.403 118.499 188.386 117.596 188.381 116.969C188.375 116.539 188.369 116.242 188.369 115.873L188.364 115.317C188.359 114.832 188.183 114.425 187.847 114.1C187.033 113.324 185.542 113.357 185.482 113.363C185.405 113.363 177.826 113.511 176.897 113.478C176.187 113.456 173.349 114.161 171.094 114.755C170.549 114.899 169.988 114.976 169.427 114.987L167.783 115.009C167.321 115.014 166.87 114.943 166.435 114.788L165.99 114.629C165.242 114.365 164.456 114.227 163.664 114.227C160.243 114.21 156.035 114.227 155.391 114.37C154.523 114.568 151.575 117.393 150.755 118.191L149.996 118.202L149.633 118.207L149.639 118.571L149.672 120.839L149.705 123.107V123.471Z" fill="#00C185"/>
<path opacity="0.5" d="M150.062 123.102L150.029 120.833L149.996 118.565L150.903 118.554C150.903 118.554 154.616 114.921 155.474 114.728C156.134 114.579 161.321 114.585 163.664 114.596C164.417 114.601 165.159 114.728 165.869 114.976L166.315 115.135C166.788 115.3 167.288 115.383 167.789 115.378L169.433 115.356C170.027 115.35 170.616 115.267 171.188 115.113C172.794 114.689 176.165 113.819 176.88 113.847C177.832 113.88 185.488 113.731 185.488 113.731C185.488 113.731 187.979 113.654 188.001 115.328C188.012 116.011 188.012 116.352 188.023 116.974C188.034 117.596 188.045 118.505 188.073 120.316C188.073 120.316 188.095 122.089 188.117 123.856C188.122 124.351 188.128 124.847 188.139 125.298C188.161 126.972 185.669 126.961 185.669 126.961C185.669 126.961 178.013 127.022 177.061 127.077C176.341 127.121 172.947 126.344 171.336 125.964C170.758 125.827 170.17 125.761 169.576 125.772L167.931 125.794C167.431 125.799 166.931 125.898 166.463 126.075L166.023 126.245C165.319 126.515 164.576 126.664 163.828 126.686C161.485 126.757 156.305 126.906 155.639 126.774C154.776 126.603 150.969 123.074 150.969 123.074L150.062 123.102ZM149.705 123.471L150.068 123.465L150.827 123.454C151.668 124.23 154.693 126.972 155.568 127.143C156.217 127.269 160.424 127.17 163.84 127.06C164.632 127.033 165.413 126.878 166.155 126.592L166.595 126.421C167.024 126.256 167.475 126.168 167.937 126.163L169.581 126.141C170.142 126.135 170.709 126.196 171.253 126.322C173.525 126.856 176.38 127.484 177.084 127.445C178.013 127.39 185.592 127.33 185.664 127.33C185.73 127.33 187.22 127.324 188.012 126.526C188.342 126.196 188.502 125.783 188.496 125.293C188.491 124.836 188.479 124.34 188.474 123.85C188.452 122.083 188.43 120.31 188.43 120.31C188.403 118.499 188.386 117.596 188.381 116.969C188.375 116.539 188.369 116.242 188.369 115.873L188.364 115.317C188.359 114.832 188.183 114.425 187.847 114.1C187.033 113.324 185.542 113.357 185.482 113.363C185.405 113.363 177.826 113.511 176.897 113.478C176.187 113.456 173.349 114.161 171.094 114.755C170.549 114.899 169.988 114.976 169.427 114.987L167.783 115.009C167.321 115.014 166.87 114.943 166.435 114.788L165.99 114.629C165.242 114.365 164.456 114.227 163.664 114.227C160.243 114.21 156.035 114.227 155.391 114.37C154.523 114.568 151.575 117.393 150.755 118.191L149.996 118.202L149.633 118.207L149.639 118.571L149.672 120.839L149.705 123.107V123.471Z" fill="white"/>
<path d="M188.006 115.548C188.023 116.704 188.028 116.875 188.028 116.875C188.028 116.875 188.034 117.431 188.045 118.235C188.028 117.266 188.023 116.671 188.006 115.548Z" fill="#C1DEE1"/>
<path d="M188.105 122.584C188.105 122.513 188.105 122.441 188.1 122.369C188.1 122.441 188.1 122.513 188.105 122.584Z" fill="#C1DEE1"/>
<path opacity="0.1" d="M185.669 126.972C185.669 126.972 178.013 127.033 177.061 127.088C176.341 127.132 172.947 126.355 171.336 125.975C170.758 125.838 170.17 125.772 169.576 125.783L167.931 125.805C167.431 125.81 166.931 125.909 166.463 126.086L166.023 126.256C165.319 126.526 164.576 126.675 163.828 126.697C161.485 126.768 156.305 126.917 155.639 126.785C154.776 126.614 150.969 123.085 150.969 123.085L150.062 123.096L150.051 122.281C150.051 122.281 154.748 124.621 155.611 124.792C156.277 124.924 161.464 124.775 163.801 124.704C164.555 124.682 165.297 124.533 165.995 124.263L166.435 124.093C166.903 123.911 167.403 123.817 167.904 123.812L169.548 123.79C170.142 123.784 170.731 123.845 171.309 123.983C172.926 124.362 176.319 125.139 177.034 125.095C177.986 125.034 185.642 124.979 185.642 124.979C185.642 124.979 188.133 124.985 188.111 123.316C188.122 124.186 188.128 124.45 188.139 125.309C188.166 126.977 185.669 126.972 185.669 126.972Z" fill="#263238"/>
<path d="M188.045 118.229C188.056 119.033 188.072 120.316 188.072 120.316C188.072 120.316 188.083 121.213 188.1 122.364C188.083 121.241 188.056 119.198 188.045 118.229Z" fill="#C1DEE1"/>
<path d="M188.034 117.326C188.034 117.398 188.034 117.47 188.039 117.541C188.034 117.47 188.034 117.393 188.034 117.326C188.034 117.321 188.029 117.321 188.034 117.326Z" fill="#C1DEE1"/>
<path d="M188.089 121.676C188.1 122.48 188.111 123.036 188.111 123.036C188.111 123.036 188.122 123.933 188.138 125.084C188.122 123.961 188.105 122.639 188.089 121.676Z" fill="#C1DEE1"/>
<path d="M185.52 115.724C185.52 115.724 177.865 115.873 176.913 115.84C176.193 115.818 172.821 116.682 171.22 117.106C170.648 117.26 170.06 117.337 169.466 117.348L167.822 117.37C167.321 117.376 166.821 117.293 166.348 117.128L165.902 116.969C165.193 116.721 164.445 116.589 163.697 116.589C161.354 116.578 156.167 116.572 155.507 116.721C154.649 116.914 150.029 120.107 150.029 120.107L150.007 118.565L150.915 118.554C150.915 118.554 154.627 114.921 155.485 114.728C156.145 114.579 161.331 114.585 163.674 114.596C164.428 114.601 165.171 114.728 165.88 114.976L166.326 115.135C166.799 115.3 167.299 115.383 167.799 115.378L169.444 115.356C170.038 115.35 170.626 115.267 171.198 115.113C172.804 114.689 176.176 113.819 176.891 113.847C177.842 113.88 185.498 113.731 185.498 113.731C185.498 113.731 187.99 113.654 188.012 115.328C188.023 116.181 188.029 116.446 188.04 117.321C188.007 115.653 185.52 115.724 185.52 115.724Z" fill="white"/>
<path d="M149.144 123.531L147.664 123.553C146.845 123.564 146.174 122.909 146.163 122.089L146.13 119.688C146.119 118.868 146.773 118.196 147.593 118.185L149.072 118.163L149.067 117.624L149.584 117.618L149.672 124.065L149.155 124.071L149.144 123.531Z" fill="#00C185"/>
<path opacity="0.5" d="M149.144 123.531L147.664 123.553C146.845 123.564 146.174 122.909 146.163 122.089L146.13 119.688C146.119 118.868 146.773 118.196 147.593 118.185L149.072 118.163L149.067 117.624L149.584 117.618L149.672 124.065L149.155 124.071L149.144 123.531Z" fill="white"/>
<path d="M158.159 114.621L157.306 114.633L157.472 126.848L158.325 126.837L158.159 114.621Z" fill="white"/>
<path d="M160.56 114.584L159.708 114.596L159.874 126.811L160.726 126.799L160.56 114.584Z" fill="white"/>
<path d="M162.96 114.555L162.108 114.567L162.274 126.782L163.126 126.771L162.96 114.555Z" fill="white"/>
<path d="M149.886 88.4009L130.058 92.5465C129.596 92.596 129.404 94.2807 129.717 97.0884C130.031 99.8962 130.586 101.493 131.048 101.443L151.299 101.107L149.886 88.4009Z" fill="#00C185"/>
<path opacity="0.8" d="M149.886 88.4009L130.058 92.5465C129.596 92.596 129.404 94.2807 129.717 97.0884C130.031 99.8962 130.586 101.493 131.048 101.443L151.299 101.107L149.886 88.4009Z" fill="white"/>
<path d="M144.644 101.201C144.644 101.201 143.704 98.4153 143.385 95.5634C143.11 93.0805 143.369 89.7882 143.369 89.7827L142.918 89.8763C142.918 89.8763 142.648 93.086 142.929 95.613C143.259 98.5859 144.183 101.207 144.183 101.212H144.265L144.644 101.201Z" fill="white"/>
<path d="M141.647 95.7561C141.41 93.609 141.57 90.8508 141.619 90.1461L141.169 90.2397C141.119 90.9334 140.948 93.6255 141.19 95.8057C141.476 98.3437 142.186 100.628 142.39 101.24L142.851 101.234C142.653 100.601 141.916 98.2005 141.647 95.7561Z" fill="white"/>
<path d="M139.826 95.9598C139.606 93.9614 139.728 91.4344 139.788 90.526L139.337 90.6196C139.277 91.5169 139.145 93.9834 139.376 96.0094C139.64 98.3492 140.267 100.48 140.52 101.273L140.981 101.267C140.723 100.447 140.079 98.2226 139.826 95.9598Z" fill="white"/>
<path d="M142.802 101.234L142.472 101.24L142.802 101.234Z" fill="#ACB9BA"/>
<path d="M149.694 88.1036C149.562 88.1201 149.452 88.2687 149.364 88.533L150.068 88.3843C149.941 88.1916 149.815 88.0926 149.694 88.1036Z" fill="#D0DFE1"/>
<path d="M151.184 101.432C151.305 101.421 151.404 101.295 151.486 101.074L150.766 101.085C150.909 101.328 151.052 101.449 151.184 101.432Z" fill="#D0DFE1"/>
<path d="M151.552 100.887C151.844 99.8412 151.86 97.4298 151.552 94.6495C151.244 91.8693 150.694 89.5185 150.177 88.566C150.144 88.5 150.106 88.4449 150.073 88.3954L149.369 88.544C149.044 89.513 149.011 92.0069 149.336 94.9028C149.66 97.7986 150.244 100.227 150.772 101.096L151.492 101.085C151.509 101.019 151.53 100.953 151.552 100.887Z" fill="#00C185"/>
<path opacity="0.6" d="M151.552 100.887C151.844 99.8412 151.86 97.4298 151.552 94.6495C151.244 91.8693 150.694 89.5185 150.177 88.566C150.144 88.5 150.106 88.4449 150.073 88.3954L149.369 88.544C149.044 89.513 149.011 92.0069 149.336 94.9028C149.66 97.7986 150.244 100.227 150.772 101.096L151.492 101.085C151.509 101.019 151.53 100.953 151.552 100.887Z" fill="white"/>
<path d="M151.778 94.622C151.745 94.3412 151.003 87.8008 149.677 87.9494C149.424 87.9769 149.242 88.2412 149.121 88.6541C148.604 90.3828 149.072 94.6936 149.099 94.9193C149.127 95.145 149.617 99.4558 150.502 101.025C150.711 101.399 150.947 101.619 151.2 101.586C152.526 101.443 151.811 94.8973 151.778 94.622ZM149.842 88.5055C149.963 88.6541 150.111 88.9569 150.271 89.4139C150.628 90.4324 151.046 92.2051 151.321 94.6716C151.596 97.138 151.58 98.9603 151.459 100.028C151.404 100.513 151.327 100.843 151.244 101.008C151.217 101.069 151.184 101.107 151.156 101.129C151.118 101.113 151.079 101.074 151.03 101.014C150.645 100.507 149.963 98.4042 149.567 94.8642C149.171 91.3298 149.375 89.1221 149.639 88.544C149.672 88.4724 149.704 88.4229 149.737 88.4009C149.759 88.4174 149.798 88.4504 149.842 88.5055Z" fill="#00C185"/>
<path opacity="0.4" d="M151.778 94.622C151.745 94.3412 151.003 87.8008 149.677 87.9494C149.424 87.9769 149.242 88.2412 149.121 88.6541C148.604 90.3828 149.072 94.6936 149.099 94.9193C149.127 95.145 149.617 99.4558 150.502 101.025C150.711 101.399 150.947 101.619 151.2 101.586C152.526 101.443 151.811 94.8973 151.778 94.622ZM149.842 88.5055C149.963 88.6541 150.111 88.9569 150.271 89.4139C150.628 90.4324 151.046 92.2051 151.321 94.6716C151.596 97.138 151.58 98.9603 151.459 100.028C151.404 100.513 151.327 100.843 151.244 101.008C151.217 101.069 151.184 101.107 151.156 101.129C151.118 101.113 151.079 101.074 151.03 101.014C150.645 100.507 149.963 98.4042 149.567 94.8642C149.171 91.3298 149.375 89.1221 149.639 88.544C149.672 88.4724 149.704 88.4229 149.737 88.4009C149.759 88.4174 149.798 88.4504 149.842 88.5055Z" fill="white"/>
<path d="M204.044 208.739L201.861 207.83L203.335 202.507L205.524 203.415L204.044 208.739Z" fill="#EBB376"/>
<path d="M201.96 204.478L206.382 205.292C206.382 205.292 207.135 191.248 209.137 183.667C210.237 179.51 212.201 172.871 213.922 167.178C214.769 164.359 215.561 161.777 216.155 159.839C216.81 157.709 217.228 156.366 217.228 156.366L209.363 153.205C209.363 153.205 204.044 173.79 202.653 180.859C201.129 188.611 201.96 204.478 201.96 204.478Z" fill="#263238"/>
<path d="M202.015 206.597H204.897C204.996 206.597 205.079 206.663 205.101 206.757L205.59 208.86C205.639 209.08 205.469 209.284 205.249 209.278C204.319 209.262 203.643 209.207 202.477 209.207C201.757 209.207 199.589 209.284 198.599 209.284C197.626 209.284 197.466 208.298 197.873 208.21C199.694 207.814 201.058 207.263 201.635 206.735C201.734 206.652 201.872 206.597 202.015 206.597Z" fill="#263238"/>
<path opacity="0.3" d="M212.96 170.377L214.362 165.714L214.038 163.468C214.044 163.462 213.153 166.688 212.96 170.377Z" fill="black"/>
<path d="M230.087 208.475L227.772 208.959L225.99 203.734L228.305 203.244L230.087 208.475Z" fill="#EBB376"/>
<path d="M212.977 155.876C212.977 155.876 215.858 176.939 217.25 184.014C218.773 191.754 225.56 206.124 225.56 206.124L229.96 205.199C229.96 205.199 225.335 191.92 224.312 184.146C223.168 175.453 221.452 155.815 221.452 155.815L212.977 155.876Z" fill="#263238"/>
<path d="M226.93 206.597H229.812C229.911 206.597 229.993 206.663 230.015 206.757L230.505 208.86C230.555 209.08 230.384 209.284 230.164 209.278C229.235 209.262 228.558 209.207 227.392 209.207C226.671 209.207 224.505 209.284 223.515 209.284C222.541 209.284 222.382 208.298 222.789 208.21C224.609 207.814 225.973 207.263 226.55 206.735C226.655 206.652 226.787 206.597 226.93 206.597Z" fill="#263238"/>
<path d="M212.96 137.41C209.985 138.076 203.918 144.892 203.918 144.892L192.956 145.993L192.841 148.586C192.841 148.586 203.571 148.801 204.957 148.674C206.343 148.548 212.96 143.389 212.96 143.389V137.41Z" fill="#00C185"/>
<path d="M193.182 148.482L189.92 148.234L190.591 145.454C190.591 145.454 192.896 145.305 193.699 147.034L193.182 148.482Z" fill="#EBB376"/>
<path d="M187.957 146.984L188.952 145.03L190.591 145.448L189.92 148.234L187.957 146.984Z" fill="#EBB376"/>
<path opacity="0.1" d="M209.495 145.971C210.424 145.311 211.31 144.644 211.953 144.16C212.195 143.378 212.306 142.558 212.201 141.82C212.201 141.815 209.94 143.582 209.495 145.971Z" fill="black"/>
<path d="M212.96 137.41C212.96 137.41 209.324 143.901 210.094 157.032C213.752 157.544 220.457 158.474 222.239 158.722C222.58 156.867 222.673 147.601 225.693 139.062C225.693 139.062 223.669 138.352 221.7 137.983C220.16 137.691 217.921 137.328 216.54 137.262C214.72 137.179 212.96 137.41 212.96 137.41Z" fill="#00C185"/>
<path opacity="0.4" d="M210.1 157.032C212.778 157.406 217.074 158.001 219.895 158.397C220.929 158.54 221.765 158.656 222.244 158.722C222.458 157.588 222.574 153.668 223.327 148.834C223.344 148.729 223.361 148.625 223.377 148.52C223.592 147.193 223.85 145.801 224.174 144.38C224.576 142.629 225.076 140.835 225.698 139.067C225.698 139.067 223.674 138.363 221.705 137.988C220.159 137.697 217.926 137.333 216.54 137.267C214.72 137.185 212.96 137.41 212.96 137.41C212.96 137.41 209.33 143.901 210.1 157.032Z" fill="white"/>
<path d="M221.98 132.422C221.375 134.019 220.534 136.997 221.502 138.302C219.802 138.704 218.581 138.963 217.035 139.943C216.733 138.847 216.365 137.427 216.365 137.427C218.284 137.3 218.471 135.924 218.367 134.586L221.98 132.422Z" fill="#EBB376"/>
<path opacity="0.2" d="M220.506 133.303L218.367 134.58C218.394 134.9 218.4 135.219 218.372 135.522C219.093 135.538 220.192 134.933 220.39 134.206C220.489 133.843 220.534 133.485 220.506 133.303Z" fill="black"/>
<path d="M223.218 138.324L222.211 137.069L218.944 137.697L217.283 139.601L217.074 137.405L216.464 136.667L215.122 137.245V138.621L216.078 138.313L216.903 140.229L219.51 139.156L220.094 139.893L223.218 138.324Z" fill="#00C185"/>
<path opacity="0.7" d="M223.218 138.324L222.211 137.069L218.944 137.697L217.283 139.601L217.074 137.405L216.464 136.667L215.122 137.245V138.621L216.078 138.313L216.903 140.229L219.51 139.156L220.094 139.893L223.218 138.324Z" fill="white"/>
<path opacity="0.1" d="M216.903 140.229L216.585 137.933L215.122 138.621L216.078 138.313L216.903 140.229Z" fill="black"/>
<path opacity="0.1" d="M216.903 140.229L219.323 138.445L220.094 139.893L219.51 139.156L216.903 140.229Z" fill="black"/>
<path d="M217.717 126.768C217.024 127.374 216.904 128.447 216.777 129.125C216.645 129.802 216.392 130.672 217.409 129.868C218.421 129.059 219.906 125.342 217.717 126.768Z" fill="#263238"/>
<path d="M222.69 130.749C222.052 132.978 222.294 133.408 220.897 134.305C218.796 135.654 215.914 135.379 216.013 132.995C216.101 130.853 216.711 127.071 219.12 126.68C221.49 126.3 223.328 128.519 222.69 130.749Z" fill="#EBB376"/>
<path d="M216.865 132.235C216.925 132.637 216.898 133.347 216.898 133.347C216.964 133.364 217.024 133.375 217.09 133.386C217.959 133.556 218.421 133.347 218.669 133.066C218.801 132.912 218.873 132.731 218.906 132.582C218.95 132.406 218.939 132.274 218.939 132.274C218.422 132.461 217.596 132.362 217.162 132.29C216.98 132.257 216.865 132.235 216.865 132.235Z" fill="#263238"/>
<path d="M217.162 132.285L217.178 132.615C217.998 132.775 218.598 132.775 218.906 132.577C218.95 132.4 218.939 132.268 218.939 132.268C218.427 132.455 217.602 132.356 217.162 132.285Z" fill="white"/>
<path d="M217.09 133.386C217.959 133.556 218.421 133.347 218.669 133.066C218.372 133.017 218.004 132.995 217.663 133.066C217.404 133.122 217.222 133.248 217.09 133.386Z" fill="#DE5753"/>
<path d="M221.765 133.022C220.572 132.802 221.144 131.828 221.26 131.453C221.43 130.892 221.633 130.644 221.402 129.653C221.171 128.662 222.987 127.456 224.285 128.068C225.484 128.629 223.756 133.391 221.765 133.022Z" fill="#263238"/>
<path d="M223.388 132.483C223.047 132.978 222.546 133.27 222.106 133.358C221.446 133.49 221.243 132.824 221.529 132.175C221.787 131.591 222.447 130.82 223.058 130.985C223.668 131.151 223.778 131.921 223.388 132.483Z" fill="#EBB376"/>
<path d="M217.905 130C217.905 130 217.399 130.787 216.942 131.129C217.157 131.426 217.624 131.409 217.624 131.409L217.905 130Z" fill="#D58745"/>
<path d="M224.736 127.154C223.713 124.027 218.295 125.111 218.394 123.102C217.52 123.707 216.871 125.183 217.195 126.097C217.773 127.699 219.494 127.627 219.494 127.627C221.689 127.561 221.958 128.558 221.958 128.558L223.911 128.8C223.911 128.8 225.088 128.238 224.736 127.154Z" fill="#263238"/>
<path d="M219.516 130.149C219.478 130.341 219.345 130.473 219.219 130.446C219.092 130.418 219.027 130.242 219.065 130.055C219.104 129.862 219.236 129.73 219.362 129.758C219.489 129.785 219.555 129.961 219.516 130.149Z" fill="#263238"/>
<path d="M217.371 129.686C217.333 129.879 217.2 130.011 217.074 129.983C216.947 129.956 216.881 129.78 216.92 129.593C216.958 129.4 217.091 129.268 217.217 129.295C217.344 129.317 217.41 129.493 217.371 129.686Z" fill="#263238"/>
<path d="M220.682 129.653C220.643 129.648 220.605 129.626 220.588 129.587C220.368 129.125 219.956 129.059 219.95 129.059C219.89 129.048 219.846 128.992 219.852 128.932C219.863 128.871 219.917 128.827 219.978 128.833C220 128.838 220.522 128.915 220.792 129.488C220.819 129.543 220.797 129.615 220.737 129.642C220.72 129.653 220.704 129.653 220.682 129.653Z" fill="#263238"/>
<path d="M216.964 128.8C216.942 128.8 216.92 128.789 216.904 128.778C216.854 128.739 216.843 128.668 216.881 128.618C217.266 128.123 217.789 128.167 217.811 128.161C217.871 128.167 217.921 128.222 217.916 128.288C217.91 128.348 217.855 128.398 217.795 128.392C217.773 128.387 217.371 128.359 217.063 128.761C217.036 128.789 216.997 128.8 216.964 128.8Z" fill="#263238"/>
<path opacity="0.1" d="M219.89 158.397C220.924 158.54 221.76 158.656 222.239 158.722C222.453 157.588 222.569 153.668 223.322 148.834C222.486 146.61 221.677 144.92 221.677 144.92C221.677 144.92 219.417 147.188 217.421 150.552C215.985 152.985 217.415 156.657 219.89 158.397Z" fill="black"/>
<path d="M188.919 134.845L191.972 129.389C192.214 128.959 192.593 128.679 193.022 128.602L193.787 128.475L193.677 127.814L200.15 126.73L200.26 127.39L201.025 127.264C201.459 127.192 201.91 127.335 202.273 127.66L206.932 131.822C207.531 132.356 207.949 133.144 208.092 134.013L212.432 159.944C212.778 162.009 211.689 163.913 210.006 164.2L196.537 166.457C194.854 166.738 193.204 165.295 192.863 163.225L188.523 137.295C188.386 136.425 188.523 135.544 188.919 134.845Z" fill="#00C185"/>
<g opacity="0.9">
<path d="M188.919 134.845L191.972 129.389C192.214 128.959 192.593 128.679 193.022 128.602L193.787 128.475L193.677 127.814L200.15 126.73L200.26 127.39L201.025 127.264C201.459 127.192 201.91 127.335 202.273 127.66L206.932 131.822C207.531 132.356 207.949 133.144 208.092 134.013L212.432 159.944C212.778 162.009 211.689 163.913 210.006 164.2L196.537 166.457C194.854 166.738 193.204 165.295 192.863 163.225L188.523 137.295C188.386 136.425 188.523 135.544 188.919 134.845Z" fill="white"/>
</g>
<path opacity="0.1" d="M210.985 160.192L206.646 134.261C206.503 133.391 206.085 132.604 205.485 132.07L200.827 127.908C200.459 127.578 200.007 127.434 199.578 127.512L198.814 127.638L198.704 126.977L200.161 126.735L200.272 127.396L201.036 127.269C201.47 127.198 201.922 127.341 202.285 127.666L206.943 131.828C207.543 132.362 207.96 133.149 208.103 134.019L212.443 159.95C212.79 162.014 211.701 163.919 210.018 164.205L208.56 164.448C210.243 164.161 211.332 162.256 210.985 160.192Z" fill="#263238"/>
<path d="M188.694 138.259L208.266 134.979L208.098 133.969L188.525 137.249L188.694 138.259Z" fill="#00C185"/>
<path d="M192.653 161.929L212.225 158.65L212.056 157.64L192.484 160.919L192.653 161.929Z" fill="#00C185"/>
<path opacity="0.8" d="M188.694 138.259L208.266 134.979L208.098 133.969L188.525 137.249L188.694 138.259Z" fill="white"/>
<path opacity="0.8" d="M192.653 161.929L212.225 158.65L212.056 157.64L192.484 160.919L192.653 161.929Z" fill="white"/>
<path opacity="0.1" d="M188.694 138.259L208.266 134.979L208.098 133.969L188.525 137.249L188.694 138.259Z" fill="#263238"/>
<path opacity="0.1" d="M192.653 161.929L212.225 158.65L212.056 157.64L192.484 160.919L192.653 161.929Z" fill="#263238"/>
<path d="M193.186 127.884L200.644 126.635L200.401 125.179L192.942 126.429L193.186 127.884Z" fill="#00C185"/>
<path d="M195.387 122.524L196.817 122.281C198.049 122.072 199.221 122.909 199.424 124.142L199.623 125.315L193.721 126.306L193.523 125.133C193.319 123.9 194.155 122.733 195.387 122.524Z" fill="#00C185"/>
<path opacity="0.5" d="M193.186 127.884L200.644 126.635L200.401 125.179L192.942 126.429L193.186 127.884Z" fill="white"/>
<path opacity="0.1" d="M193.186 127.884L200.644 126.635L200.401 125.179L192.942 126.429L193.186 127.884Z" fill="#263238"/>
<path opacity="0.5" d="M195.387 122.524L196.817 122.281C198.049 122.072 199.221 122.909 199.424 124.142L199.623 125.315L193.721 126.306L193.523 125.133C193.319 123.9 194.155 122.733 195.387 122.524Z" fill="white"/>
<path d="M196.548 166.457L210.017 164.2C211.7 163.919 212.789 162.014 212.443 159.944L208.103 134.013C207.96 133.144 207.542 132.356 206.943 131.822L202.284 127.66C201.916 127.33 201.465 127.187 201.036 127.264L200.271 127.39L200.161 126.73L193.688 127.814L193.798 128.475L193.033 128.602C192.599 128.673 192.219 128.959 191.983 129.389L188.93 134.845C188.54 135.549 188.397 136.43 188.545 137.295L192.885 163.225C193.215 165.295 194.859 166.738 196.548 166.457ZM193.319 163.154L188.98 137.223C188.853 136.463 188.974 135.676 189.315 135.07L192.368 129.615C192.522 129.339 192.747 129.152 193 129.075C193.033 129.064 193.066 129.059 193.094 129.053L194.309 128.849L194.199 128.189L199.776 127.253L199.886 127.913L201.102 127.71C201.399 127.66 201.712 127.765 201.976 128.001L206.635 132.164C207.152 132.626 207.526 133.331 207.652 134.091L211.992 160.021C212.272 161.711 211.475 163.324 210.171 163.699C210.094 163.721 210.023 163.737 209.94 163.748L196.471 166.006C195.035 166.248 193.622 164.965 193.319 163.154Z" fill="#00C185"/>
<path opacity="0.5" d="M196.548 166.457L210.017 164.2C211.7 163.919 212.789 162.014 212.443 159.944L208.103 134.013C207.96 133.144 207.542 132.356 206.943 131.822L202.284 127.66C201.916 127.33 201.465 127.187 201.036 127.264L200.271 127.39L200.161 126.73L193.688 127.814L193.798 128.475L193.033 128.602C192.599 128.673 192.219 128.959 191.983 129.389L188.93 134.845C188.54 135.549 188.397 136.43 188.545 137.295L192.885 163.225C193.215 165.295 194.859 166.738 196.548 166.457ZM193.319 163.154L188.98 137.223C188.853 136.463 188.974 135.676 189.315 135.07L192.368 129.615C192.522 129.339 192.747 129.152 193 129.075C193.033 129.064 193.066 129.059 193.094 129.053L194.309 128.849L194.199 128.189L199.776 127.253L199.886 127.913L201.102 127.71C201.399 127.66 201.712 127.765 201.976 128.001L206.635 132.164C207.152 132.626 207.526 133.331 207.652 134.091L211.992 160.021C212.272 161.711 211.475 163.324 210.171 163.699C210.094 163.721 210.023 163.737 209.94 163.748L196.471 166.006C195.035 166.248 193.622 164.965 193.319 163.154Z" fill="white"/>
<path d="M209.209 154.631L206.294 156.112L207.977 158.425C207.977 158.425 210.161 157.676 210.238 155.771L209.209 154.631Z" fill="#EBB376"/>
<path d="M204.957 158.017L206.624 159.438L207.977 158.425L206.294 156.112L204.957 158.017Z" fill="#EBB376"/>
<path d="M225.698 139.062C228.888 141.044 223.564 151.405 222.563 152.952C221.562 154.499 210.243 157.032 210.243 157.032L208.846 154.626L219.362 149.952L222.569 141.908C223.806 139.337 225.698 139.062 225.698 139.062Z" fill="#00C185"/>
<path d="M42.1355 120.409C44.5885 120.409 49.0765 129.339 49.0765 129.339L47.4485 132.048L42.251 125.937L42.1355 120.409Z" fill="#00C185"/>
<path opacity="0.1" d="M42.361 126.069L46.706 131.173C46.684 131.079 46.662 130.969 46.629 130.859C45.43 126.537 42.4985 124.737 42.4985 124.737C42.3885 125.166 42.3445 125.618 42.361 126.069Z" fill="black"/>
<path d="M49.093 196.632L46.6895 197.315L46.1175 193.571L45.8095 191.573L48.213 190.89L48.62 193.571L49.093 196.632Z" fill="#E4897B"/>
<path d="M35.2825 196.83L32.802 197.161L32.78 193.571L32.7635 191.342L35.244 191.017L35.2605 193.571L35.2825 196.83Z" fill="#E4897B"/>
<path opacity="0.2" d="M35.244 191.017L35.2605 193.571H32.78L32.7635 191.342L35.244 191.017Z" fill="black"/>
<path opacity="0.2" d="M48.62 193.571H46.1175L45.8095 191.573L48.213 190.89L48.62 193.571Z" fill="black"/>
<path d="M49.0655 196.258L46.3375 196.186C46.233 196.181 46.145 196.252 46.1175 196.352L45.5455 198.548C45.485 198.774 45.6555 199 45.8865 199C46.871 199.011 48.2955 198.989 49.533 199.022C50.9795 199.06 51.898 198.989 53.5975 199.033C54.6205 199.06 54.945 198.036 54.5215 197.932C52.58 197.453 51.315 197.546 49.665 196.467C49.478 196.352 49.28 196.263 49.0655 196.258Z" fill="#263238"/>
<path d="M49.258 196.561C49.258 196.533 49.269 196.511 49.291 196.5C49.4065 196.445 50.4295 195.961 50.7265 196.142C50.7815 196.175 50.8145 196.23 50.82 196.302C50.8255 196.418 50.7815 196.517 50.699 196.588C50.4185 196.825 49.7035 196.704 49.302 196.616H49.2965C49.2745 196.605 49.2635 196.583 49.258 196.561ZM49.5055 196.533C50.0555 196.638 50.468 196.627 50.622 196.495C50.677 196.451 50.7045 196.385 50.699 196.307C50.699 196.274 50.688 196.258 50.666 196.241C50.6605 196.236 50.655 196.236 50.644 196.23C50.457 196.164 49.907 196.357 49.5055 196.533Z" fill="#00C185"/>
<path d="M49.28 196.605C49.2635 196.594 49.2525 196.572 49.258 196.55C49.2635 196.522 49.3515 195.851 49.6815 195.603C49.7805 195.526 49.8905 195.493 50.0115 195.509C50.171 195.531 50.215 195.614 50.226 195.68C50.259 195.961 49.643 196.484 49.3405 196.61C49.324 196.616 49.313 196.616 49.2965 196.61C49.291 196.61 49.2855 196.605 49.28 196.605ZM49.995 195.625C49.907 195.614 49.8245 195.636 49.753 195.691C49.5385 195.856 49.434 196.252 49.3955 196.451C49.709 196.274 50.1325 195.862 50.1105 195.691C50.1105 195.68 50.105 195.652 50.0555 195.636C50.0445 195.63 50.0225 195.625 49.995 195.625Z" fill="#00C185"/>
<path d="M35.1835 196.258L32.45 196.186C32.3455 196.181 32.2575 196.252 32.23 196.352L31.658 198.548C31.5975 198.774 31.768 199 31.999 199C32.9835 199.011 34.408 198.989 35.6455 199.022C37.092 199.06 38.0105 198.989 39.71 199.033C40.733 199.06 41.0575 198.036 40.634 197.932C38.6925 197.453 37.4275 197.546 35.7775 196.467C35.596 196.352 35.398 196.263 35.1835 196.258Z" fill="#263238"/>
<path d="M35.376 196.561C35.376 196.533 35.387 196.511 35.409 196.5C35.5245 196.445 36.5475 195.961 36.8445 196.142C36.8995 196.175 36.9325 196.23 36.938 196.302C36.9435 196.418 36.8995 196.517 36.817 196.588C36.5365 196.825 35.8215 196.704 35.42 196.616H35.4145C35.3925 196.605 35.3815 196.583 35.376 196.561ZM35.6235 196.533C36.1735 196.638 36.586 196.627 36.74 196.495C36.795 196.451 36.8225 196.385 36.817 196.307C36.817 196.274 36.806 196.258 36.784 196.241C36.7785 196.236 36.773 196.236 36.762 196.23C36.575 196.164 36.025 196.357 35.6235 196.533Z" fill="#00C185"/>
<path d="M35.398 196.605C35.3815 196.594 35.3705 196.572 35.376 196.55C35.3815 196.522 35.4695 195.851 35.7995 195.603C35.8985 195.526 36.0085 195.493 36.1295 195.509C36.289 195.531 36.333 195.614 36.344 195.68C36.377 195.961 35.761 196.484 35.4585 196.61C35.442 196.616 35.431 196.616 35.4145 196.61C35.409 196.61 35.4035 196.605 35.398 196.605ZM36.113 195.625C36.025 195.614 35.9425 195.636 35.871 195.691C35.6565 195.856 35.552 196.252 35.5135 196.451C35.827 196.274 36.2505 195.862 36.2285 195.691C36.2285 195.68 36.223 195.652 36.1735 195.636C36.1625 195.63 36.1405 195.625 36.113 195.625Z" fill="#00C185"/>
<path d="M30.1675 142.316C28.853 148.014 31.108 192.806 31.108 192.806H35.4585L37.3175 155.474L44.1705 192.806L48.8235 192.465C45.782 163.545 43.0925 146.28 43.0925 146.28L42.7185 142.31H30.1675V142.316Z" fill="#263238"/>
<path d="M27.5165 121.241C28.2425 123.938 29.3205 126.636 29.612 129.224C29.8265 131.118 29.9475 132.923 30.0135 134.558C30.1785 138.396 30.063 141.325 30.1675 142.316C32.076 142.184 38.8025 142.591 42.724 142.316C44.6325 128.425 42.1355 120.409 42.1355 120.409L38.6815 119.98C38.6815 119.98 38.2305 119.958 38.005 119.953C36.531 119.92 34.1275 120.145 32.4665 120.338C32.12 120.382 31.7625 120.432 31.4215 120.487C29.678 120.767 27.5165 121.241 27.5165 121.241Z" fill="#00C185"/>
<g opacity="0.4">
<path d="M27.5165 121.241C28.2425 123.938 29.3205 126.636 29.612 129.224C29.8265 131.118 29.9475 132.923 30.0135 134.558C30.1785 138.396 30.063 141.325 30.1675 142.316C32.076 142.184 38.8025 142.591 42.724 142.316C44.6325 128.425 42.1355 120.409 42.1355 120.409L38.6815 119.98C38.6815 119.98 38.2305 119.958 38.005 119.953C36.531 119.92 34.1275 120.145 32.4665 120.338C32.12 120.382 31.7625 120.432 31.4215 120.487C29.678 120.767 27.5165 121.241 27.5165 121.241Z" fill="white"/>
</g>
<path d="M32.901 120.184C32.901 120.184 36.2835 121.868 37.158 121.676C37.7685 121.538 38.445 120.349 38.445 120.349C37.95 120.217 37.587 120.019 37.3285 119.782C36.5475 119.077 36.685 117.993 36.9875 116.963L33.6985 113.952C33.8085 114.667 33.913 115.625 33.9075 116.589C33.9075 116.594 33.9075 116.594 33.9075 116.594C33.913 118.037 33.6765 119.49 32.901 120.184Z" fill="#E4897B"/>
<path opacity="0.2" d="M33.9075 116.594C33.913 116.6 33.913 116.6 33.9075 116.594C34.496 118.092 35.5465 119.732 37.3285 119.782C36.5475 119.077 36.685 117.993 36.9875 116.963L33.6985 113.952C33.814 114.673 33.913 115.631 33.9075 116.594Z" fill="black"/>
<path d="M40.667 111.023C40.9695 111.959 40.8265 113.891 39.5065 113.274C38.192 112.658 40.1445 109.41 40.667 111.023Z" fill="#263238"/>
<path d="M33.913 112.355C33.792 114.772 33.594 116.181 34.672 117.541C36.289 119.584 39.3855 118.785 40.227 116.451C40.986 114.348 41.0575 110.747 38.808 109.547C36.597 108.364 34.034 109.938 33.913 112.355Z" fill="#E4897B"/>
<path d="M38.28 116.847C37.983 116.847 37.6035 116.737 37.2735 116.302C37.2295 116.247 37.2405 116.17 37.2955 116.126C37.3505 116.082 37.4275 116.093 37.4715 116.148C38.016 116.858 38.676 116.517 38.709 116.501C38.7695 116.468 38.8465 116.49 38.874 116.55C38.907 116.611 38.885 116.688 38.8245 116.715C38.8135 116.726 38.588 116.847 38.28 116.847Z" fill="#263238"/>
<path d="M35.6345 110.83L35.607 108.132C35.607 108.132 32.692 108.138 32.835 109.608C31.251 110.412 31.8945 113.935 34.045 115.13C35.2055 114.183 35.1835 110.869 35.1835 110.869C35.178 110.599 35.4475 110.973 35.6345 110.83Z" fill="#263238"/>
<path d="M32.7635 114.249C32.8845 114.888 33.2915 115.411 33.7425 115.697C34.419 116.132 35.002 115.581 35.0185 114.821C35.035 114.133 34.6995 113.076 33.924 112.95C33.1595 112.823 32.6205 113.517 32.7635 114.249Z" fill="#E4897B"/>
<path d="M37.488 113.401C37.466 113.599 37.554 113.764 37.6805 113.781C37.807 113.792 37.928 113.649 37.95 113.451C37.972 113.252 37.884 113.087 37.7575 113.071C37.631 113.054 37.51 113.203 37.488 113.401Z" fill="#263238"/>
<path d="M39.699 113.627C39.677 113.825 39.765 113.99 39.8915 114.007C40.018 114.018 40.139 113.875 40.161 113.676C40.183 113.478 40.095 113.313 39.9685 113.296C39.8475 113.28 39.721 113.429 39.699 113.627Z" fill="#263238"/>
<path d="M38.984 113.649C38.984 113.649 39.3195 114.783 39.754 115.361C39.38 115.631 38.808 115.422 38.808 115.422L38.984 113.649Z" fill="#DE5753"/>
<path d="M36.883 112.614C36.9215 112.625 36.9655 112.614 36.993 112.581C37.3505 112.206 37.7685 112.272 37.774 112.272C37.8345 112.283 37.895 112.239 37.9115 112.179C37.9225 112.118 37.8785 112.058 37.818 112.047C37.796 112.041 37.268 111.959 36.828 112.427C36.784 112.471 36.784 112.548 36.8335 112.592C36.85 112.603 36.8665 112.608 36.883 112.614Z" fill="#263238"/>
<path d="M40.7385 112.961C40.7605 112.966 40.7825 112.966 40.8045 112.955C40.865 112.933 40.898 112.867 40.876 112.806C40.6615 112.206 40.1445 112.085 40.1225 112.074C40.062 112.058 39.996 112.096 39.985 112.162C39.9685 112.223 40.007 112.283 40.0675 112.3C40.0895 112.305 40.4855 112.405 40.656 112.884C40.6725 112.928 40.7055 112.955 40.7385 112.961Z" fill="#263238"/>
<path d="M35.1835 110.869C36.08 111.149 37.0205 111.337 37.9555 111.447C38.4945 111.507 39.0335 111.535 39.5725 111.507C40.1445 111.474 40.7715 111.436 41.2335 111.039C41.833 110.522 41.8385 109.795 41.7615 109.074C41.7065 108.578 41.492 108.215 41.184 107.83C41.3435 108.05 41.162 108.843 40.8485 108.881C40.887 108.628 40.9475 108.386 40.865 108.132C40.8045 107.951 40.6725 107.813 40.579 107.653C40.6725 107.819 40.634 108.193 40.5075 108.336C40.425 108.424 40.304 108.507 40.216 108.589C40.3205 108.413 40.2875 108.198 40.2325 108.017C40.1005 108.176 40.084 108.364 39.8475 108.463C39.556 108.584 39.3525 108.474 39.0885 108.38C38.786 108.27 38.456 108.215 38.1425 108.154C37.5925 108.05 36.9985 107.984 36.4375 107.945C35.387 107.879 32.307 108.149 32.593 109.845C32.626 110.048 32.615 110.032 32.824 110.087C32.9065 110.109 32.9615 110.059 33.044 110.07C33.385 110.103 33.616 110.324 33.913 110.45C34.3145 110.61 34.76 110.742 35.1835 110.869Z" fill="#263238"/>
<path d="M37.158 121.676C37.158 121.676 36.586 122.469 35.904 123.261C34.7985 122.816 32.186 121.599 32.1915 120.261C32.307 119.859 33.2915 119.529 33.2915 119.529C33.2915 119.529 34.5235 120.861 37.158 121.676Z" fill="#00C185"/>
<path d="M37.158 121.676C37.158 121.676 38.0435 122.248 38.654 123.019C39.391 122.447 38.7805 120.008 38.467 119.76C37.818 119.441 37.092 119.523 37.092 119.523C37.092 119.523 37.752 120.602 37.158 121.676Z" fill="#00C185"/>
<g opacity="0.7">
<path d="M37.158 121.676C37.158 121.676 36.586 122.469 35.904 123.261C34.7985 122.816 32.186 121.599 32.1915 120.261C32.307 119.859 33.2915 119.529 33.2915 119.529C33.2915 119.529 34.5235 120.861 37.158 121.676Z" fill="white"/>
<path d="M37.158 121.676C37.158 121.676 38.0435 122.248 38.654 123.019C39.391 122.447 38.7805 120.008 38.467 119.76C37.818 119.441 37.092 119.523 37.092 119.523C37.092 119.523 37.752 120.602 37.158 121.676Z" fill="white"/>
</g>
<path opacity="0.2" d="M29.084 126.878C29.084 126.878 29.293 128.365 28.8695 129.631C28.732 128.701 28.589 127.77 28.4515 126.889C28.6385 126.845 28.8475 126.84 29.084 126.878Z" fill="black"/>
<path opacity="0.2" d="M38.7805 163.424L37.323 155.479L37.6035 151.278C37.6035 151.273 39.6055 158.562 38.7805 163.424Z" fill="black"/>
<path opacity="0.1" d="M29.5295 134.647C29.689 134.674 29.854 134.691 30.0135 134.707C30.9045 134.784 31.8175 134.696 32.604 134.547C33.308 134.415 33.913 134.239 34.32 134.085C40.2985 131.85 40.216 130.545 40.216 130.545C40.216 130.545 36.2945 131.101 34.2265 130.374C33.7865 130.22 33.341 129.857 32.9175 129.383C31.3335 127.627 29.997 124.318 29.997 124.318C29.997 124.318 29.6065 124.841 29.095 125.645C28.886 125.975 28.6495 126.35 28.4185 126.757C28.424 126.807 28.435 126.845 28.4405 126.895C28.578 127.776 28.721 128.701 28.8585 129.637V129.642C29.1225 131.382 29.3645 133.138 29.5295 134.647Z" fill="black"/>
<path d="M40.1665 128.436L40.425 130.016C41.2665 131.475 42.955 130.066 42.955 130.066L44.0385 129.714C44.407 129.593 44.627 129.185 44.5555 128.745L44.3795 127.638C44.3025 127.132 43.879 126.774 43.439 126.84L42.4545 126.988C42.1685 127.033 41.899 127.143 41.668 127.319L40.1665 128.436Z" fill="#E4897B"/>
<path d="M27.5165 121.241C24.0405 123.052 29.4745 133.771 30.91 133.87C33.627 134.052 41.0025 131.035 41.0025 131.035L40.392 128.035C40.392 128.035 33.1595 130.308 32.4775 130.16C31.5975 129.967 30.305 125.761 29.7055 123.768C29.106 121.78 27.5165 121.241 27.5165 121.241Z" fill="#00C185"/>
<path d="M43.7965 135.962L43.813 135.957L50.9905 135.126C51.26 135.098 51.513 134.845 51.557 134.564L53.1905 123.575C53.2125 123.421 53.1685 123.289 53.0695 123.212C52.998 123.146 52.8935 123.113 52.7725 123.124L45.584 123.955C45.3145 123.988 45.0615 124.236 45.0175 124.522L43.3785 135.511C43.34 135.792 43.527 135.995 43.7965 135.962Z" fill="#263238"/>
<path opacity="0.6" d="M43.7965 135.962L43.813 135.957L50.9905 135.126C51.26 135.098 51.513 134.845 51.557 134.564L53.1905 123.575C53.2125 123.421 53.1685 123.289 53.0695 123.212C52.998 123.146 52.8935 123.113 52.7725 123.124L45.584 123.955C45.3145 123.988 45.0615 124.236 45.0175 124.522L43.3785 135.511C43.34 135.792 43.527 135.995 43.7965 135.962Z" fill="white"/>
<path opacity="0.4" d="M43.8075 135.962L50.985 135.131C51.2545 135.104 51.5075 134.85 51.5515 134.569L53.185 123.581C53.207 123.426 53.163 123.294 53.064 123.217L45.8865 124.049C45.617 124.082 45.364 124.329 45.32 124.616L43.681 135.605C43.67 135.753 43.714 135.88 43.8075 135.962Z" fill="black"/>
<path d="M51.48 123.894L51.6835 122.661L47.1405 123.184L46.9975 124.39L51.48 123.894Z" fill="#263238"/>
<path opacity="0.1" d="M51.48 123.894L51.6835 122.661L47.1405 123.184L46.9975 124.39L51.48 123.894Z" fill="white"/>
<path d="M53.2125 128.387L52.8605 129.928C52.0245 131.525 50.721 130.716 50.721 130.716L49.8355 130.71C49.533 130.71 49.3845 130.391 49.478 129.961L49.7145 128.888C49.8245 128.398 50.2095 127.941 50.578 127.869L51.3975 127.715C51.634 127.671 51.854 127.699 52.0355 127.787L53.2125 128.387Z" fill="#E4897B"/>
</g>
<defs>
<clipPath id="clip0_203_2656">
<rect width="275" height="213" fill="white"/>
</clipPath>
</defs>
</svg>
