<svg width="224" height="206" viewBox="0 0 224 206" fill="none" xmlns="http://www.w3.org/2000/svg">
<g clip-path="url(#clip0_203_3257)">
<path d="M117.687 9.51365C117.687 14.7649 113.437 19.0273 108.197 19.0273C102.958 19.0273 98.7075 14.7649 98.7075 9.51365C98.7075 4.26244 102.958 0 108.197 0C113.437 0 117.687 4.26244 117.687 9.51365Z" fill="#F9E462"/>
<path d="M72.9647 10.4757C72.9647 10.4757 74.7424 2.17799 80.9041 2.44522C87.0524 2.71246 88.3489 7.1486 94.9918 7.8167C101.635 8.49815 104.228 4.89045 107.302 10.4623H72.9647V10.4757Z" fill="#E9EAF2"/>
<path d="M0 111.171H21.3722C21.3722 111.171 21.4791 105.278 16.4535 105.278C12.7912 105.278 11.4413 108.151 8.54084 109.287C5.62707 110.423 2.33904 107.042 0 111.171Z" fill="#E9EAF2"/>
<path d="M197.682 160.944H224C224 160.944 224.134 153.688 217.932 153.688C213.428 153.688 211.757 157.229 208.188 158.619C204.606 160.008 200.569 155.84 197.682 160.944Z" fill="#E9EAF2"/>
<path d="M147.747 193.707C158.266 194.228 166.072 192.438 171.405 190.38C176.564 188.376 180.774 184.514 183.314 179.597L205.742 135.97C191.253 151.056 150.808 143.346 145.261 142.197L144.646 129.503L122.258 170.23L148.335 206L147.747 193.707Z" fill="#82D190"/>
<path d="M178.061 139.966L155.62 108.498L195.143 84.8746L209.926 110.102C212.746 114.899 212.612 120.898 209.565 125.548C205.047 132.403 195.517 139.992 178.061 139.966Z" fill="#569F87"/>
<path d="M132.417 167.304C132.417 166.85 145.916 143.988 145.916 143.988L160.619 167.304H132.417Z" fill="#569F87"/>
<path d="M145.916 144.001L150.046 167.304H160.605L145.916 144.001Z" fill="#67B297"/>
<path d="M145.916 144.001L141.038 152.272L144.125 151.043L145.622 152.726L147.159 151.016L151.837 153.381L145.916 144.001Z" fill="#E9EAF2"/>
<path d="M180.828 170.163H135.825C135.036 170.163 134.395 169.522 134.395 168.734C134.395 167.945 135.036 167.304 135.825 167.304H180.828C181.617 167.304 182.258 167.945 182.258 168.734C182.258 169.522 181.617 170.163 180.828 170.163Z" fill="#7EDBEA"/>
<path d="M169.48 173.45H141.706C140.77 173.45 139.995 172.689 139.995 171.74C139.995 170.805 140.757 170.03 141.706 170.03H169.48C170.416 170.03 171.191 170.791 171.191 171.74C171.178 172.689 170.416 173.45 169.48 173.45Z" fill="#7EDBEA"/>
<path d="M168.424 176.203H146.624C145.863 176.203 145.261 175.588 145.261 174.827C145.261 174.065 145.876 173.45 146.624 173.45H168.424C169.186 173.45 169.788 174.065 169.788 174.827C169.788 175.588 169.173 176.203 168.424 176.203Z" fill="#7EDBEA"/>
<path d="M145.916 173.491H138.565C137.643 173.491 136.907 172.742 136.907 171.834C136.907 170.912 137.656 170.177 138.565 170.177H145.916C146.838 170.177 147.574 170.925 147.574 171.834C147.574 172.742 147.573 173.491 145.916 173.491Z" fill="#82D190"/>
<path d="M181.389 173.544H169.413C168.451 173.544 167.663 172.756 167.663 171.794C167.663 170.832 168.451 170.043 169.413 170.043H181.389C182.352 170.043 183.14 170.832 183.14 171.794C183.14 172.756 182.352 173.544 181.389 173.544Z" fill="#82D190"/>
<path d="M145.248 167.304C145.248 166.596 166.406 130.759 166.406 130.759L183.916 167.304H145.248Z" fill="#569F87"/>
<path d="M166.419 130.759L172.902 167.304H183.929L187.458 164.137L185.733 161.398L166.419 130.759Z" fill="#67B297"/>
<path d="M166.419 129.45L158.774 143.747L163.626 141.81L165.965 144.442L168.371 141.769L175.695 145.484L166.419 129.45Z" fill="#E9EAF2"/>
<path d="M35.3396 96.0719C29.1779 104.637 26.4379 112.186 25.275 117.798C24.1523 123.223 25.0879 128.875 27.8413 133.672L52.1807 176.256C47.4358 155.866 75.8652 126.002 79.8348 121.967L90.7949 128.354L68.8347 87.3733L24.7137 89.8853L35.3396 96.0719Z" fill="#82D190"/>
<mask id="mask0_203_3257" style="mask-type:luminance" maskUnits="userSpaceOnUse" x="24" y="87" width="67" height="90">
<path d="M35.3396 96.0719C29.1779 104.637 26.4379 112.186 25.275 117.798C24.1523 123.223 25.0879 128.875 27.8413 133.672L52.1807 176.256C47.4358 155.866 75.8652 126.002 79.8348 121.967L90.7949 128.354L68.8347 87.3733L24.7137 89.8853L35.3396 96.0719Z" fill="white"/>
</mask>
<g mask="url(#mask0_203_3257)">
<path d="M79.4205 130.519C79.4205 130.519 46.4734 109.848 19.5811 135.436L52.7821 183.779C52.7821 183.779 54.9875 147.248 71.0935 139.966C87.1995 132.67 79.4205 130.519 79.4205 130.519Z" fill="#7EDBEA"/>
</g>
<path d="M63.8625 150.789L102.397 148.998L100.699 195.11L71.5479 193.841C66.0011 193.6 61.0423 190.233 58.8102 185.142C55.5221 177.619 54.3593 165.473 63.8625 150.789Z" fill="#569F87"/>
<path d="M56.4712 87.2129L56.1905 119.95H58.4092L57.8211 87.3198L56.4712 87.2129Z" fill="#F5F4F7"/>
<path d="M56.8187 85.85L58.1019 73.4369L58.7301 73.958L59.4919 84.3535L57.741 86.1974L56.8187 85.85Z" fill="#F5F4F7"/>
<mask id="mask1_203_3257" style="mask-type:luminance" maskUnits="userSpaceOnUse" x="56" y="73" width="4" height="14">
<path d="M56.8187 85.85L58.1019 73.4369L58.7301 73.958L59.4919 84.3535L57.741 86.1974L56.8187 85.85Z" fill="white"/>
</mask>
<g mask="url(#mask1_203_3257)">
<path d="M56.391 85.0216L59.8661 80.6656L59.8394 84.7544L57.3934 87.0526L56.391 85.0216Z" fill="#E9EAF2"/>
</g>
<path d="M57.9414 86.7052L68.0862 93.9206L67.3243 94.2279L57.9281 89.7651L57.1796 87.3466L57.9414 86.7052Z" fill="#F5F4F7"/>
<mask id="mask2_203_3257" style="mask-type:luminance" maskUnits="userSpaceOnUse" x="57" y="86" width="12" height="9">
<path d="M57.9414 86.7052L68.0862 93.9206L67.3243 94.2279L57.9281 89.7651L57.1796 87.3466L57.9414 86.7052Z" fill="white"/>
</mask>
<g mask="url(#mask2_203_3257)">
<path d="M58.8637 86.7453L60.9488 91.9163L57.4068 89.8853L56.6049 86.625L58.8637 86.7453Z" fill="#E9EAF2"/>
</g>
<path d="M56.5246 87.1996L45.3908 92.7715L45.4844 91.9564L53.8381 85.7298L56.3108 86.2108L56.5246 87.1996Z" fill="#F5F4F7"/>
<mask id="mask3_203_3257" style="mask-type:luminance" maskUnits="userSpaceOnUse" x="45" y="85" width="12" height="8">
<path d="M56.5246 87.1996L45.3908 92.7715L45.4844 91.9564L53.8381 85.7298L56.3108 86.2108L56.5246 87.1996Z" fill="white"/>
</mask>
<g mask="url(#mask3_203_3257)">
<path d="M56.0568 88.0013L50.5233 87.4L53.9717 85.222L57.233 86.0505L56.0568 88.0013Z" fill="#E9EAF2"/>
</g>
<path d="M56.9523 85.1819C57.7543 85.1018 58.4627 85.6763 58.5563 86.4914C58.6365 87.2931 58.0617 88.0147 57.2598 88.0948C56.4578 88.175 55.7494 87.5871 55.6558 86.7854C55.5756 85.9836 56.1504 85.2621 56.9523 85.1819Z" fill="#5F513E"/>
<path d="M35.2995 95.8848L35.0723 115.994H36.8767L36.3955 95.9783L35.2995 95.8848Z" fill="#F5F4F7"/>
<path d="M36.3687 95.2301L44.7225 100.976L44.1076 101.23L36.3821 97.7287L35.7539 95.7512L36.3687 95.2301Z" fill="#F5F4F7"/>
<mask id="mask4_203_3257" style="mask-type:luminance" maskUnits="userSpaceOnUse" x="35" y="95" width="10" height="7">
<path d="M36.3687 95.2301L44.7225 100.976L44.1076 101.23L36.3821 97.7287L35.7539 95.7512L36.3687 95.2301Z" fill="white"/>
</mask>
<g mask="url(#mask4_203_3257)">
<path d="M37.1172 95.2434L38.8815 99.4257L35.9678 97.8223L35.2727 95.1766L37.1172 95.2434Z" fill="#E9EAF2"/>
</g>
<path d="M35.3128 95.6977L26.2106 100.174L26.2908 99.5059L33.1342 94.4952L35.1525 94.896L35.3128 95.6977Z" fill="#F5F4F7"/>
<mask id="mask5_203_3257" style="mask-type:luminance" maskUnits="userSpaceOnUse" x="26" y="94" width="10" height="7">
<path d="M35.3128 95.6977L26.2106 100.174L26.2908 99.5059L33.1342 94.4952L35.1525 94.896L35.3128 95.6977Z" fill="white"/>
</mask>
<g mask="url(#mask5_203_3257)">
<path d="M34.9252 96.3525L30.4209 95.8314L33.2545 94.0676L35.8876 94.7758L34.9252 96.3525Z" fill="#E9EAF2"/>
</g>
<path d="M35.5133 94.4952L35.8609 84.3268L36.4089 84.7143L37.5984 93.1323L36.2886 94.7223L35.5133 94.4952Z" fill="#F5F4F7"/>
<mask id="mask6_203_3257" style="mask-type:luminance" maskUnits="userSpaceOnUse" x="35" y="84" width="3" height="11">
<path d="M35.5133 94.4952L35.8609 84.3268L36.4089 84.7143L37.5984 93.1323L36.2886 94.7223L35.5133 94.4952Z" fill="white"/>
</mask>
<g mask="url(#mask6_203_3257)">
<path d="M35.1257 93.8404L37.7054 90.0991L37.9192 93.4262L36.0613 95.4439L35.1257 93.8404Z" fill="#E9EAF2"/>
</g>
<path d="M36.7831 95.5775C36.5291 96.1788 35.8341 96.4727 35.2327 96.2188C34.6312 95.965 34.3371 95.2701 34.5911 94.6555C34.845 94.0542 35.5401 93.7603 36.1415 94.0141C36.743 94.2814 37.0371 94.9762 36.7831 95.5775Z" fill="#5F513E"/>
<path d="M40.2315 132.911C40.2315 132.911 43.5329 130.692 47.409 132.577C51.2852 134.474 54.4261 132.911 54.4261 132.911" stroke="#A1EFF7" stroke-width="0.6142" stroke-miterlimit="10" stroke-linecap="round" stroke-linejoin="round"/>
<path d="M42.9315 137.16C42.9315 137.16 46.2329 134.942 50.109 136.826C53.9851 138.723 57.1261 137.16 57.1261 137.16" stroke="#A1EFF7" stroke-width="0.6142" stroke-miterlimit="10" stroke-linecap="round" stroke-linejoin="round"/>
<path d="M173.156 54.0354C168.505 44.5618 163.145 38.5891 158.747 34.9279C154.497 31.387 149.084 29.5698 143.564 29.7435L94.6443 31.2935C114.827 36.665 127.779 75.8554 129.476 81.2669L118.703 87.9746L165.083 87.7742L183.581 47.5415L173.156 54.0354Z" fill="#82D190"/>
<path d="M111.579 53.6078L95.0587 88.5625L55.2549 65.4064L70.051 40.1925C72.8712 35.3956 78.1508 32.5896 83.6976 33.0038C91.8642 33.6318 103.105 38.2951 111.579 53.6078Z" fill="#569F87"/>
<path d="M118.797 39.8718H117.286V31.1866L118.797 31.4271V39.8718Z" fill="#4D8076"/>
<path d="M122.913 32.79C122.913 35.4891 120.735 37.6671 118.048 37.6671C115.362 37.6671 113.183 35.4758 113.183 32.79C113.183 30.0909 115.362 27.913 118.048 27.913C120.735 27.913 122.913 30.0909 122.913 32.79Z" fill="#569F87"/>
<path d="M145.021 34.3534H143.524V25.6682L145.021 25.8953V34.3534Z" fill="#4D8076"/>
<path d="M149.137 27.2716C149.137 29.9707 146.959 32.1487 144.272 32.1487C141.586 32.1487 139.407 29.9573 139.407 27.2716C139.407 24.5858 141.586 22.3945 144.272 22.3945C146.959 22.3945 149.137 24.5725 149.137 27.2716Z" fill="#569F87"/>
<path d="M159.523 48.3566H157.785V53.7415H159.523V48.3566Z" fill="#4D8076"/>
<path d="M158.694 26.0289L153.04 50.0536H164.508L158.694 26.0289Z" fill="#67B297"/>
<path d="M158.774 50.0536C158.734 50.0536 158.694 26.0156 158.694 26.0156L164.508 50.0536H158.774Z" fill="#569F87"/>
<path d="M139.46 68.4662H137.308V75.1739H139.46V68.4662Z" fill="#4D8076"/>
<path d="M138.445 40.6602L131.401 70.5908H145.676L138.445 40.6602Z" fill="#67B297"/>
<path d="M138.538 70.5908C138.485 70.5908 138.431 40.6468 138.431 40.6468L145.676 70.5908H138.538Z" fill="#569F87"/>
<path d="M128.353 45.8579C127.404 45.8579 126.589 46.4058 126.201 47.1941C125.8 45.898 124.584 44.9493 123.154 44.9493C121.39 44.9493 119.959 46.3791 119.959 48.1428H125.947H126.335H130.746C130.692 46.8734 129.636 45.8579 128.353 45.8579Z" fill="#569F87"/>
<path d="M164.107 62.1194C162.69 62.1194 161.461 62.9478 160.873 64.137C160.271 62.1862 158.453 60.7698 156.301 60.7698C153.655 60.7698 151.516 62.9211 151.516 65.5667H160.498H161.086H167.703C167.622 63.6426 166.045 62.1194 164.107 62.1194Z" fill="#569F87"/>
</g>
<defs>
<clipPath id="clip0_203_3257">
<rect width="224" height="206" fill="white"/>
</clipPath>
</defs>
</svg>
