<svg width="199" height="190" viewBox="0 0 199 190" fill="none" xmlns="http://www.w3.org/2000/svg">
<g clip-path="url(#clip0_203_864)">
<path d="M153.49 91.6798C153.49 91.6798 146.446 30.6925 154.404 7.72669" stroke="#1C316B" stroke-miterlimit="10" stroke-linecap="round" stroke-linejoin="round"/>
<path d="M150.918 32.9876C150.918 32.9876 143.578 19.1969 142.491 12.8421" stroke="#1C316B" stroke-miterlimit="10" stroke-linecap="round" stroke-linejoin="round"/>
<path d="M150.448 40.8418C150.448 40.8418 156.027 27.3112 160.06 22.4252" stroke="#1C316B" stroke-miterlimit="10" stroke-linecap="round" stroke-linejoin="round"/>
<path d="M138.56 9.82284C139.132 11.6028 141.342 14.7649 142.654 14.2803C143.966 13.7958 143.879 9.85344 143.307 8.0735C142.736 6.29355 141.204 5.24293 139.898 5.72744C138.586 6.21195 137.989 8.04799 138.56 9.82284Z" fill="#60C2AB"/>
<path d="M160.177 17.3353C159.268 19.0745 158.431 22.9965 159.646 23.5422C160.861 24.0879 163.658 21.0533 164.567 19.3091C165.475 17.5699 165.23 15.7135 164.02 15.1678C162.806 14.6272 161.086 15.5962 160.177 17.3353Z" fill="#60C2AB"/>
<path d="M146.196 13.9131C147.467 15.2698 150.846 17.2129 151.888 16.2694C152.924 15.3259 151.229 11.8527 149.958 10.4961C148.687 9.13942 146.814 8.80791 145.778 9.75144C144.737 10.6899 144.925 12.5565 146.196 13.9131Z" fill="#60C2AB"/>
<path d="M151.178 24.4959C152.449 25.8525 155.828 27.7957 156.869 26.8522C157.906 25.9086 156.211 22.4354 154.94 21.0788C153.669 19.7222 151.796 19.3907 150.76 20.3342C149.723 21.2777 149.907 23.1393 151.178 24.4959Z" fill="#60C2AB"/>
<path d="M140.357 25.8423C142.2 26.3319 146.237 26.2656 146.681 24.9702C147.125 23.6748 143.808 21.6347 141.965 21.1451C140.122 20.6555 138.275 21.3083 137.83 22.6037C137.386 23.8992 138.52 25.3476 140.357 25.8423Z" fill="#60C2AB"/>
<path d="M159.151 28.5454C157.283 29.2084 153.873 31.5545 154.261 32.8142C154.649 34.0739 158.692 33.773 160.56 33.11C162.428 32.447 163.622 30.8914 163.234 29.6317C162.841 28.3669 161.014 27.8824 159.151 28.5454Z" fill="#60C2AB"/>
<path d="M145.798 41.2141C145.865 43.1113 147.11 46.7834 148.483 46.6457C149.856 46.508 150.831 42.6064 150.76 40.7143C150.693 38.817 149.524 37.3941 148.156 37.5318C146.788 37.6695 145.732 39.3169 145.798 41.2141Z" fill="#60C2AB"/>
<path d="M142.062 49.0275C143.986 49.1805 147.993 48.4053 148.197 47.069C148.401 45.7328 144.721 44.3354 142.797 44.1824C140.873 44.0294 139.147 44.9882 138.943 46.3244C138.744 47.6607 140.138 48.8694 142.062 49.0275Z" fill="#60C2AB"/>
<path d="M155.277 39.6025C155.175 41.5099 156.078 45.2993 157.446 45.2789C158.814 45.2585 160.131 41.4334 160.233 39.5311C160.335 37.6236 159.309 36.0987 157.941 36.1191C156.573 36.1344 155.379 37.695 155.277 39.6025Z" fill="#60C2AB"/>
<path d="M164.368 44.1773C162.53 43.6775 158.493 43.7336 158.043 45.0341C157.594 46.3295 160.907 48.3747 162.744 48.8745C164.582 49.3743 166.435 48.7266 166.884 47.426C167.338 46.1306 166.21 44.6771 164.368 44.1773Z" fill="#60C2AB"/>
<path d="M151.985 3.41708C151.786 5.31943 152.485 9.16492 153.853 9.21082C155.216 9.25672 156.726 5.49283 156.926 3.59049C157.125 1.68814 156.185 0.102002 154.823 0.0561012C153.455 0.00510002 152.184 1.50964 151.985 3.41708Z" fill="#60C2AB"/>
<path d="M164.919 39.9238L150.954 49.8639L141.929 40.6276" stroke="#1C316B" stroke-miterlimit="10" stroke-linecap="round" stroke-linejoin="round"/>
<path d="M167.869 35.0072C166.195 36.0885 163.413 39.1383 164.112 40.2502C164.812 41.3569 168.721 40.0972 170.396 39.021C172.07 37.9398 172.861 36.1701 172.162 35.0633C171.468 33.9515 169.543 33.926 167.869 35.0072Z" fill="#60C2AB"/>
<path d="M137.841 41.1121C139.336 42.229 143.032 43.5806 143.91 42.4942C144.788 41.4079 142.511 38.2917 141.021 37.1748C139.525 36.0579 137.601 36.0324 136.723 37.1238C135.845 38.205 136.345 39.9952 137.841 41.1121Z" fill="#60C2AB"/>
<path d="M193.35 41.3008C173.121 54.7957 153.49 91.6798 153.49 91.6798" stroke="#1C316B" stroke-miterlimit="10" stroke-linecap="round" stroke-linejoin="round"/>
<path d="M175.291 59.3195C175.291 59.3195 177.787 43.9019 180.762 38.1846" stroke="#1C316B" stroke-miterlimit="10" stroke-linecap="round" stroke-linejoin="round"/>
<path d="M170.166 65.2969C170.166 65.2969 182.799 57.8915 188.965 56.4278" stroke="#1C316B" stroke-miterlimit="10" stroke-linecap="round" stroke-linejoin="round"/>
<path d="M179.461 33.4058C178.843 35.1705 178.69 39.021 180.022 39.4291C181.36 39.8371 183.677 36.6444 184.295 34.8797C184.912 33.1151 184.33 31.3556 182.998 30.9526C181.666 30.5446 180.078 31.6412 179.461 33.4058Z" fill="#60C2AB"/>
<path d="M192.135 52.4446C190.358 53.281 187.321 55.9025 187.954 57.0704C188.592 58.2383 192.655 57.509 194.437 56.6726C196.213 55.8362 197.142 54.2092 196.504 53.0413C195.871 51.8734 193.916 51.6081 192.135 52.4446Z" fill="#60C2AB"/>
<path d="M183.07 41.2702C183.264 43.1164 184.779 46.7069 186.178 46.5794C187.577 46.457 188.327 42.6625 188.133 40.8163C187.939 38.97 186.653 37.5726 185.254 37.7001C183.856 37.8276 182.881 39.4239 183.07 41.2702Z" fill="#60C2AB"/>
<path d="M180.64 52.7149C180.834 54.5611 182.35 58.1516 183.748 58.0241C185.147 57.9017 185.897 54.1072 185.703 52.261C185.509 50.4147 184.223 49.0173 182.825 49.1448C181.426 49.2672 180.446 50.8686 180.64 52.7149Z" fill="#60C2AB"/>
<path d="M171.207 47.2526C172.376 48.7572 175.633 51.1389 176.771 50.3739C177.909 49.6089 176.495 45.9827 175.326 44.4782C174.158 42.9736 172.289 42.3769 171.151 43.1419C170.013 43.907 170.038 45.7481 171.207 47.2526Z" fill="#60C2AB"/>
<path d="M184.54 60.7527C182.651 60.156 178.517 59.9622 178.062 61.1964C177.608 62.4357 181.013 64.6339 182.901 65.2357C184.79 65.8324 186.683 65.3173 187.138 64.078C187.587 62.8386 186.423 61.3545 184.54 60.7527Z" fill="#60C2AB"/>
<path d="M166.506 62.5989C165.414 64.1494 164.184 67.8316 165.358 68.5508C166.532 69.2699 169.671 66.7504 170.763 65.2C171.856 63.6495 171.789 61.8084 170.615 61.0944C169.441 60.3804 167.599 61.0434 166.506 62.5989Z" fill="#60C2AB"/>
<path d="M158.533 66.7453C159.973 68.0305 163.638 69.8309 164.607 68.8874C165.582 67.9438 163.495 64.6135 162.055 63.3282C160.616 62.043 158.661 61.7676 157.691 62.7111C156.716 63.6546 157.094 65.4601 158.533 66.7453Z" fill="#60C2AB"/>
<path d="M174.163 66.3934C172.927 67.8469 171.355 71.417 172.458 72.2279C173.56 73.0389 176.924 70.7897 178.154 69.3311C179.389 67.8775 179.497 66.0364 178.394 65.2255C177.292 64.4146 175.398 64.9399 174.163 66.3934Z" fill="#60C2AB"/>
<path d="M178.124 75.8541C176.96 74.3445 173.708 71.9525 172.57 72.7176C171.427 73.4826 172.83 77.1088 173.994 78.6184C175.158 80.128 177.026 80.7298 178.169 79.9648C179.308 79.2049 179.287 77.3638 178.124 75.8541Z" fill="#60C2AB"/>
<path d="M194.034 36.4098C192.722 37.8072 190.956 41.2906 192.012 42.1525C193.069 43.0144 196.55 40.9234 197.862 39.5311C199.174 38.1336 199.383 36.3078 198.321 35.4459C197.265 34.5788 195.345 35.0123 194.034 36.4098Z" fill="#60C2AB"/>
<path d="M182.248 73.299L165.822 71.8709L163.51 59.9774" stroke="#1C316B" stroke-miterlimit="10" stroke-linecap="round" stroke-linejoin="round"/>
<path d="M187.577 71.1671C185.591 71.0141 181.528 71.7689 181.416 73.0746C181.304 74.3802 185.178 75.7368 187.168 75.8898C189.154 76.0429 190.859 75.1095 190.971 73.8039C191.083 72.4983 189.562 71.3201 187.577 71.1671Z" fill="#60C2AB"/>
<path d="M159.963 57.8915C160.478 59.6867 162.607 62.9916 163.964 62.655C165.322 62.3184 165.393 58.4627 164.878 56.6726C164.362 54.8773 162.846 53.6992 161.489 54.0358C160.131 54.3724 159.447 56.1014 159.963 57.8915Z" fill="#60C2AB"/>
<path d="M153.705 106.919C153.705 106.919 133.977 67.2502 113.749 53.7604" stroke="#1C316B" stroke-miterlimit="10" stroke-linecap="round" stroke-linejoin="round"/>
<path d="M131.802 71.7791C131.802 71.7791 129.306 56.3615 126.331 50.6442" stroke="#1C316B" stroke-miterlimit="10" stroke-linecap="round" stroke-linejoin="round"/>
<path d="M136.932 77.7514C136.932 77.7514 124.299 70.346 118.133 68.8823" stroke="#1C316B" stroke-miterlimit="10" stroke-linecap="round" stroke-linejoin="round"/>
<path d="M127.637 45.8654C128.255 47.6301 128.408 51.4806 127.076 51.8887C125.738 52.2967 123.421 49.104 122.804 47.3393C122.186 45.5747 122.768 43.8152 124.1 43.4122C125.432 42.9991 127.02 44.1008 127.637 45.8654Z" fill="#60C2AB"/>
<path d="M114.958 64.9042C116.735 65.7406 119.772 68.3621 119.139 69.53C118.501 70.6979 114.438 69.9686 112.656 69.1322C110.88 68.2958 109.951 66.6688 110.589 65.5009C111.227 64.333 113.182 64.0677 114.958 64.9042Z" fill="#60C2AB"/>
<path d="M124.029 53.7298C123.835 55.576 122.319 59.1665 120.92 59.039C119.521 58.9166 118.771 55.1221 118.965 53.2759C119.159 51.4296 120.445 50.0322 121.844 50.1597C123.242 50.2821 124.217 51.8836 124.029 53.7298Z" fill="#60C2AB"/>
<path d="M126.458 65.1694C126.264 67.0156 124.748 70.6061 123.35 70.4786C121.951 70.3562 121.201 66.5617 121.395 64.7155C121.589 62.8692 122.875 61.4718 124.274 61.5993C125.672 61.7268 126.652 63.3231 126.458 65.1694Z" fill="#60C2AB"/>
<path d="M135.891 59.7071C134.722 61.2117 131.465 63.5934 130.327 62.8284C129.189 62.0634 130.603 58.4372 131.772 56.9327C132.941 55.4281 134.809 54.8314 135.947 55.5964C137.085 56.3615 137.06 58.2026 135.891 59.7071Z" fill="#60C2AB"/>
<path d="M122.559 73.2123C124.447 72.6156 128.582 72.4217 129.036 73.656C129.49 74.8953 126.086 77.0935 124.197 77.6953C122.308 78.292 120.415 77.7769 119.96 76.5376C119.511 75.2982 120.67 73.809 122.559 73.2123Z" fill="#60C2AB"/>
<path d="M140.587 75.0534C141.679 76.6038 142.909 80.2861 141.735 81.0053C140.561 81.7244 137.422 79.2049 136.33 77.6545C135.237 76.104 135.304 74.2629 136.478 73.5489C137.657 72.8298 139.494 73.503 140.587 75.0534Z" fill="#60C2AB"/>
<path d="M148.565 79.2049C147.125 80.4901 143.46 82.2905 142.491 81.347C141.516 80.4034 143.603 77.0731 145.043 75.7878C146.482 74.5026 148.437 74.2272 149.407 75.1707C150.382 76.1142 150.004 77.9197 148.565 79.2049Z" fill="#60C2AB"/>
<path d="M132.935 78.853C134.171 80.3065 135.743 83.8766 134.64 84.6876C133.538 85.4985 130.174 83.2493 128.944 81.7907C127.709 80.3371 127.602 78.496 128.704 77.6851C129.807 76.8742 131.7 77.3944 132.935 78.853Z" fill="#60C2AB"/>
<path d="M128.969 88.3137C130.133 86.8041 133.385 84.4121 134.523 85.1772C135.666 85.9422 134.263 89.5684 133.099 91.078C131.935 92.5876 130.067 93.1895 128.924 92.4244C127.79 91.6594 127.806 89.8183 128.969 88.3137Z" fill="#60C2AB"/>
<path d="M113.065 48.8643C114.376 50.2617 116.142 53.7451 115.086 54.607C114.029 55.4689 110.548 53.3779 109.236 51.9856C107.925 50.5881 107.715 48.7623 108.777 47.9004C109.834 47.0384 111.753 47.4668 113.065 48.8643Z" fill="#60C2AB"/>
<path d="M124.85 85.7586L141.449 85.2639L143.588 72.432" stroke="#1C316B" stroke-miterlimit="10" stroke-linecap="round" stroke-linejoin="round"/>
<path d="M119.521 83.6267C121.507 83.4737 125.57 84.2285 125.682 85.5342C125.795 86.8398 121.92 88.1964 119.93 88.3494C117.944 88.5024 116.239 87.5691 116.127 86.2635C116.015 84.9579 117.536 83.7746 119.521 83.6267Z" fill="#60C2AB"/>
<path d="M147.136 70.3511C146.62 72.1463 144.492 75.4512 143.134 75.1146C141.776 74.778 141.705 70.9223 142.22 69.1322C142.736 67.342 144.252 66.1588 145.609 66.4954C146.967 66.832 147.651 68.561 147.136 70.3511Z" fill="#60C2AB"/>
<path d="M153.49 91.6798L154.486 188.934H158.304L153.49 91.6798Z" fill="#1C316B" stroke="#1C316B" stroke-miterlimit="10" stroke-linecap="round" stroke-linejoin="round"/>
<path d="M183.457 189.301C183.457 189.301 193.635 160.567 190.44 143.681" stroke="#1C316B" stroke-miterlimit="10" stroke-linecap="round" stroke-linejoin="round"/>
<path d="M189.787 167.259C189.787 167.259 187.281 157.221 184.963 153.386" stroke="#1C316B" stroke-miterlimit="10" stroke-linecap="round" stroke-linejoin="round"/>
<path d="M185.407 149.816C185.862 151.127 186.04 153.957 185.137 154.212C184.233 154.467 182.59 152.055 182.13 150.744C181.676 149.434 182.039 148.159 182.942 147.904C183.845 147.649 184.948 148.5 185.407 149.816Z" fill="#60C2AB"/>
<path d="M190.961 155.748C189.935 156.564 187.367 157.573 186.74 156.808C186.112 156.043 187.653 153.784 188.684 152.968C189.71 152.152 191.058 152.111 191.686 152.876C192.313 153.646 191.992 154.932 190.961 155.748Z" fill="#60C2AB"/>
<path d="M184.968 157.762C186.204 158.42 188.352 160.409 187.949 161.251C187.546 162.092 184.749 161.465 183.514 160.807C182.278 160.149 181.6 158.94 182.003 158.099C182.406 157.252 183.733 157.104 184.968 157.762Z" fill="#60C2AB"/>
<path d="M187.255 165.79C187.133 167.131 186.107 169.691 185.152 169.538C184.198 169.385 183.672 166.575 183.794 165.229C183.917 163.887 184.795 162.923 185.749 163.076C186.704 163.229 187.378 164.443 187.255 165.79Z" fill="#60C2AB"/>
<path d="M180.512 168.472C181.85 168.314 184.667 168.768 184.846 169.722C185.025 170.676 182.498 171.767 181.161 171.925C179.823 172.083 178.593 171.441 178.414 170.487C178.236 169.528 179.175 168.63 180.512 168.472Z" fill="#60C2AB"/>
<path d="M192.574 140.921C192.518 142.273 191.629 144.889 190.67 144.782C189.71 144.675 189.047 141.885 189.098 140.534C189.154 139.182 189.976 138.173 190.935 138.28C191.895 138.382 192.63 139.565 192.574 140.921Z" fill="#60C2AB"/>
<path d="M178.2 161.383C179.262 162.311 180.89 164.734 180.288 165.438C179.685 166.142 177.077 164.856 176.021 163.928C174.959 163 174.591 161.679 175.194 160.975C175.796 160.271 177.144 160.455 178.2 161.383Z" fill="#60C2AB"/>
<path d="M69.2036 12.8013C69.2036 12.8013 70.5512 12.378 71.817 11.0316C73.0829 9.68513 72.8277 7.57368 70.8881 5.72234C68.9484 3.86589 62.2006 -0.346809 57.8109 0.326408C53.4264 0.999624 53.9317 8.58861 52.7475 9.68513C51.5684 10.7817 47.1787 9.85344 45.0707 15.0811C42.9626 20.3087 46.4182 24.5214 50.8079 25.2813C55.1975 26.0412 61.0164 24.858 63.5481 23.7666C66.0849 22.6649 69.2036 12.8013 69.2036 12.8013Z" fill="#1C316B" stroke="#1C316B" stroke-miterlimit="10" stroke-linecap="round"/>
<path d="M33.7953 70.193L33.484 77.5576L14.6595 88.5279L15.4455 91.5064C15.4455 91.5064 41.171 85.8657 41.952 85.2384C42.738 84.611 44.4633 73.3296 44.4633 73.3296L33.7953 70.193Z" fill="#FFC100" stroke="#1C316B" stroke-miterlimit="10" stroke-linecap="round"/>
<path d="M14.6595 88.533C14.6595 88.533 10.7394 89.9458 10.7394 91.0423C10.7394 92.1388 12.9342 94.0208 13.2507 94.8062C13.562 95.5916 12.9393 97.4685 14.5063 99.0393C16.0733 100.605 16.8594 100.763 16.8594 99.5085C16.8594 98.2539 15.4455 91.5166 15.4455 91.5166L14.6595 88.533Z" fill="#1C316B" stroke="#1C316B" stroke-miterlimit="10" stroke-linecap="round"/>
<path d="M42.9677 33.5384C42.9677 33.5384 33.1828 37.1646 30.2275 45.5084C27.2772 53.8522 31.0697 64.1392 32.2539 68.3519C33.433 72.5646 37.399 81.4184 37.399 81.4184L33.9383 106.2L36.3832 105.272C36.3832 105.272 44.3153 85.7178 45.3259 80.8268C46.3365 75.9357 45.5811 69.6983 45.5811 69.6983C45.5811 69.6983 49.4604 58.0649 49.6288 54.6121C49.7972 51.1542 51.0631 46.5182 51.0631 46.5182L42.9677 33.5384Z" fill="#FFC100" stroke="#1C316B" stroke-miterlimit="10" stroke-linecap="round"/>
<path d="M57.3107 20.3036C57.3107 20.3036 57.1525 20.375 56.8717 20.5229C55.6722 21.1349 52.2013 23.0169 48.7917 25.9545C44.5756 29.5807 42.8044 34.13 42.8044 34.13C42.8044 34.13 42.1306 41.3773 45.3361 43.9937C48.5416 46.6049 51.0733 46.5233 51.0733 46.5233C51.0733 46.5233 57.9079 42.0556 61.4503 39.1893C64.9926 36.3231 68.0297 32.7836 68.0297 32.7836C68.0297 32.7836 82.2859 41.2141 84.3123 41.2141C86.3387 41.2141 88.6152 39.6994 88.5284 37.338C88.4416 34.9766 80.1778 26.2962 80.1778 26.2962L78.6567 27.3928L80.3463 31.6922C80.3463 31.6922 73.5984 26.2146 71.3219 23.2617C69.0454 20.3138 63.9003 18.9623 61.537 19.1306C59.1635 19.2938 57.3107 20.3036 57.3107 20.3036Z" fill="white" stroke="#1C316B" stroke-miterlimit="10" stroke-linecap="round"/>
<path d="M77.6614 29.4328C75.5125 27.5764 72.649 24.9855 71.3117 23.2566C69.0352 20.3087 63.8901 18.9572 61.5268 19.1255C59.1635 19.2938 57.3107 20.3036 57.3107 20.3036C57.3107 20.3036 57.1525 20.375 56.8717 20.5229C55.6722 21.1349 52.2013 23.0169 48.7917 25.9545C44.5756 29.5807 42.8044 34.13 42.8044 34.13C42.8044 34.13 42.1306 41.3773 45.3361 43.9937C48.5416 46.6049 51.0733 46.5233 51.0733 46.5233C51.0733 46.5233 57.9079 42.0556 61.4503 39.1893C64.9926 36.3231 68.0297 32.7836 68.0297 32.7836C68.0297 32.7836 70.8829 34.4717 74.216 36.3333L77.6614 29.4328Z" fill="white" stroke="#1C316B" stroke-miterlimit="10" stroke-linecap="round"/>
<path d="M56.8717 20.5229C56.8717 20.5229 54.1869 22.2467 53.7683 23.5065C53.3447 24.7713 54.779 32.5235 55.7079 32.1869C56.6369 31.8503 57.9028 28.6474 57.9028 28.6474C57.9028 28.6474 61.0266 31.937 62.2057 29.8255C63.3848 27.7192 61.2767 22.0682 60.3477 21.1451C59.4188 20.2169 57.3107 20.3036 57.3107 20.3036" fill="white"/>
<path d="M56.8717 20.5229C56.8717 20.5229 54.1869 22.2467 53.7683 23.5065C53.3447 24.7713 54.779 32.5235 55.7079 32.1869C56.6369 31.8503 57.9028 28.6474 57.9028 28.6474C57.9028 28.6474 61.0266 31.937 62.2057 29.8255C63.3848 27.7192 61.2767 22.0682 60.3477 21.1451C59.4188 20.2169 57.3107 20.3036 57.3107 20.3036" stroke="#1C316B" stroke-miterlimit="10" stroke-linecap="round"/>
<path d="M56.6318 17.7739C56.6318 17.7739 55.7896 22.1549 56.1265 23.6748C56.4634 25.1946 57.2239 28.9024 57.8977 28.6474C58.5715 28.3924 61.9454 22.0733 61.9454 22.0733L56.6318 17.7739Z" fill="white" stroke="#1C316B" stroke-miterlimit="10" stroke-linecap="round"/>
<path d="M62.7927 7.32378L55.8764 14.3211C55.8764 14.3211 55.708 12.4647 54.5289 13.3113C53.3498 14.1528 53.8551 16.2592 54.6157 17.1874C55.3762 18.1156 56.642 17.779 56.642 17.779C56.642 17.779 57.9079 21.0686 59.4239 22.5017C60.9398 23.9349 62.2057 24.3582 63.5583 23.7666C64.9059 23.175 67.5243 20.6453 68.2849 17.9524C69.0454 15.2545 69.2139 12.8115 69.2139 12.8115L62.7927 7.32378Z" fill="white" stroke="#1C316B" stroke-miterlimit="10" stroke-linecap="round"/>
<path d="M67.0956 12.633C67.0956 12.633 66.0849 12.888 65.9165 15.076C65.7481 17.269 66.2534 19.457 65.8297 19.457C65.4061 19.457 64.227 18.7838 64.227 18.7838" stroke="#1C316B" stroke-miterlimit="10" stroke-linecap="round" stroke-linejoin="round"/>
<path d="M63.0479 20.3036C63.0479 20.3036 61.8688 20.1353 61.1899 17.9422" stroke="#1C316B" stroke-miterlimit="10" stroke-linecap="round" stroke-linejoin="round"/>
<path d="M61.1899 12.3831C61.1899 12.3831 62.0321 11.1183 63.6349 11.7099" stroke="#1C316B" stroke-miterlimit="10" stroke-linecap="round" stroke-linejoin="round"/>
<path d="M62.7927 14.8669C62.7927 15.2647 62.5834 15.5809 62.3282 15.5809C62.073 15.5809 61.8637 15.2596 61.8637 14.8669C61.8637 14.469 62.073 14.1528 62.3282 14.1528C62.5834 14.1528 62.7927 14.4741 62.7927 14.8669Z" fill="#1C316B"/>
<path d="M67.8102 14.9944C67.8102 15.3922 67.6009 15.7084 67.3457 15.7084C67.0905 15.7084 66.8812 15.3871 66.8812 14.9944C66.8812 14.5966 67.0905 14.2803 67.3457 14.2803C67.606 14.2803 67.8102 14.5966 67.8102 14.9944Z" fill="#1C316B"/>
<path d="M75.4462 23.6748C75.4462 23.6748 74.8541 27.4693 75.4462 27.7192C76.0383 27.9742 79.6623 28.0558 80.0859 27.8059C80.5096 27.556 80.7597 23.9298 80.4228 23.6748C80.0859 23.4249 75.4462 23.6748 75.4462 23.6748Z" fill="white" stroke="#1C316B" stroke-miterlimit="10" stroke-linecap="round"/>
<path d="M75.4461 23.6748C75.4461 23.6748 73.5882 23.9298 73.5065 24.1797C73.4198 24.4347 73.2513 25.1895 73.2513 26.1177C73.2513 27.046 73.675 26.9593 74.0935 26.8776C74.5172 26.7909 75.1909 24.7713 75.1909 24.7713L75.4461 23.6748Z" fill="white" stroke="#1C316B" stroke-miterlimit="10" stroke-linecap="round"/>
<path d="M78.2331 31.7687C78.2331 31.7687 86.0783 42.8971 87.6811 45.7634C89.2838 48.6297 91.3102 54.9538 90.126 57.7334C88.9469 60.513 86.2468 63.5475 78.1463 64.4758C70.0458 65.404 65.6613 62.6193 64.6506 58.5749C63.64 54.5305 64.2117 50.9859 64.7374 49.1346C66.6209 42.484 74.1037 31.5188 74.1037 31.5188L78.2331 31.7687Z" fill="#1C316B" stroke="#1C316B" stroke-miterlimit="10" stroke-linecap="round"/>
<path d="M76.1199 23.6748C76.1199 23.6748 78.8201 18.7022 82.3624 16.0042C85.9048 13.3062 89.2787 13.8978 89.2787 13.8978L93.4949 23.5932C93.4949 23.5932 87.2523 21.5684 84.0469 21.6551C80.8414 21.7418 80.4177 23.6799 80.4177 23.6799H76.1199V23.6748Z" fill="#1C316B" stroke="#1C316B" stroke-miterlimit="10" stroke-linecap="round"/>
<path d="M46.7654 31.8556C46.7654 31.8556 44.2337 51.1596 47.189 53.4342C50.1393 55.7089 55.1211 51.2412 56.0449 50.4864C56.9739 49.7264 73.9303 35.4818 74.4356 35.3135C74.9409 35.1452 77.978 33.3754 78.7385 32.5339C79.499 31.6924 79.1621 30.091 79.1621 30.091C79.1621 30.091 79.5858 30.0043 79.9227 29.3311C80.2596 28.6578 80.0911 27.8163 80.0911 27.8163L75.4514 27.7296L74.0119 28.4793L72.6644 31.8505C72.6644 31.8505 70.051 34.4618 68.1931 35.3084C66.3351 36.1499 54.6974 43.3156 54.0185 43.3156C53.3448 43.3156 54.2737 31.4323 54.2737 31.4323" fill="white"/>
<path d="M46.7654 31.8556C46.7654 31.8556 44.2337 51.1596 47.189 53.4342C50.1393 55.7089 55.1211 51.2412 56.0449 50.4864C56.9739 49.7264 73.9303 35.4818 74.4356 35.3135C74.9409 35.1452 77.978 33.3754 78.7385 32.5339C79.499 31.6924 79.1621 30.091 79.1621 30.091C79.1621 30.091 79.5858 30.0043 79.9227 29.3311C80.2596 28.6578 80.0911 27.8163 80.0911 27.8163L75.4514 27.7296L74.0119 28.4793L72.6644 31.8505C72.6644 31.8505 70.051 34.4618 68.1931 35.3084C66.3351 36.1499 54.6974 43.3156 54.0185 43.3156C53.3448 43.3156 54.2737 31.4323 54.2737 31.4323" stroke="#1C316B" stroke-miterlimit="10" stroke-linecap="round"/>
<path d="M74.4355 35.3082C74.9408 35.1399 77.9779 33.3701 78.7384 32.5286C79.4989 31.6871 79.1621 30.0856 79.1621 30.0856C79.1621 30.0856 79.5857 29.9989 79.9226 29.3257C80.2595 28.6525 80.091 27.8059 80.091 27.8059L75.4513 27.7192L74.0118 28.4791L72.6643 31.8503C72.6643 31.8503 70.0509 34.4615 68.193 35.3082C66.335 36.1497 54.6973 43.3153 54.0184 43.3153C53.8041 43.3153 53.753 42.0913 53.7785 40.4287C51.9053 40.9285 48.4293 42.0862 45.7699 44.2844C45.673 48.543 45.9435 52.4803 47.1838 53.434C50.1341 55.7086 55.1159 51.2409 56.0397 50.4861C56.9738 49.7211 73.9302 35.4765 74.4355 35.3082Z" fill="white" stroke="#1C316B" stroke-miterlimit="10" stroke-linecap="round"/>
<path d="M45.2442 69.1118C45.2442 69.1118 43.5547 53.6839 42.3756 49.3029" stroke="#1C316B" stroke-miterlimit="10" stroke-linecap="round"/>
<path d="M33.9383 106.2C33.9383 106.2 32.8409 110.163 33.5146 110.413C34.1884 110.668 41.5283 107.291 42.2889 106.786C43.0494 106.281 42.6257 105.858 41.952 105.777C41.2782 105.69 36.3832 105.272 36.3832 105.272L33.9383 106.2Z" fill="#1C316B" stroke="#1C316B" stroke-miterlimit="10" stroke-linecap="round"/>
<path d="M44.5909 61.0383L1.02084 188.98" stroke="#1C316B" stroke-width="4" stroke-miterlimit="10" stroke-linecap="round"/>
<path d="M65.549 61.0383L20.2997 188.98" stroke="#1C316B" stroke-width="4" stroke-miterlimit="10" stroke-linecap="round"/>
<path d="M4.35904 178.979H23.6378" stroke="#1C316B" stroke-width="4" stroke-miterlimit="10" stroke-linecap="round"/>
<path d="M9.29996 164.913H28.5788" stroke="#1C316B" stroke-width="4" stroke-miterlimit="10" stroke-linecap="round"/>
<path d="M14.246 150.851H33.5197" stroke="#1C316B" stroke-width="4" stroke-miterlimit="10" stroke-linecap="round"/>
<path d="M19.1869 136.785H38.4657" stroke="#1C316B" stroke-width="4" stroke-miterlimit="10" stroke-linecap="round"/>
<path d="M24.1279 122.719H43.4067" stroke="#1C316B" stroke-width="4" stroke-miterlimit="10" stroke-linecap="round"/>
<path d="M29.0739 108.653H48.3476" stroke="#1C316B" stroke-width="4" stroke-miterlimit="10" stroke-linecap="round"/>
<path d="M34.0148 94.592H53.2936" stroke="#1C316B" stroke-width="4" stroke-miterlimit="10" stroke-linecap="round"/>
<path d="M38.9608 80.5258H58.2345" stroke="#1C316B" stroke-width="4" stroke-miterlimit="10" stroke-linecap="round"/>
<path d="M62.6191 189.47C65.3451 189.47 67.555 187.262 67.555 184.538C67.555 181.814 65.3451 179.606 62.6191 179.606C59.8932 179.606 57.6833 181.814 57.6833 184.538C57.6833 187.262 59.8932 189.47 62.6191 189.47Z" fill="#1C316B" stroke="#1C316B" stroke-miterlimit="10" stroke-linecap="round"/>
<path d="M61.0266 176.689V184.426C61.0266 185.803 62.1444 186.92 63.5226 186.92C64.1147 186.92 64.6864 186.71 65.1407 186.328L70.1275 182.09V178.112L61.0266 176.689Z" fill="white" stroke="#1C316B" stroke-miterlimit="10" stroke-linecap="round"/>
<path d="M86.4969 178.112L77.396 176.689V179.871C75.4512 180.534 74.0527 182.37 74.0527 184.533C74.0527 187.256 76.2628 189.464 78.9885 189.464C81.7142 189.464 83.9243 187.256 83.9243 184.533C83.9243 184.446 83.9141 184.364 83.909 184.278L86.4918 182.085V178.112H86.4969Z" fill="#1C316B" stroke="#1C316B" stroke-miterlimit="10" stroke-linecap="round"/>
<path d="M154.537 189.47C157.263 189.47 159.473 187.262 159.473 184.538C159.473 181.814 157.263 179.606 154.537 179.606C151.811 179.606 149.601 181.814 149.601 184.538C149.601 187.262 151.811 189.47 154.537 189.47Z" fill="#1C316B" stroke="#1C316B" stroke-miterlimit="10" stroke-linecap="round"/>
<path d="M156.129 176.689V184.426C156.129 185.803 155.011 186.92 153.633 186.92C153.041 186.92 152.47 186.71 152.015 186.328L147.028 182.09V178.112L156.129 176.689Z" fill="white" stroke="#1C316B" stroke-miterlimit="10" stroke-linecap="round"/>
<path d="M169.349 179.876V176.694L160.248 178.117V182.095L162.831 184.288C162.826 184.375 162.816 184.456 162.816 184.543C162.816 187.266 165.026 189.475 167.752 189.475C170.477 189.475 172.688 187.266 172.688 184.543C172.693 182.37 171.289 180.539 169.349 179.876Z" fill="#1C316B" stroke="#1C316B" stroke-miterlimit="10" stroke-linecap="round"/>
<path d="M173.964 179.009H58.3264L43.8712 58.3301H188.419L173.964 179.009Z" fill="#1C316B" stroke="#1C316B" stroke-miterlimit="10" stroke-linecap="round"/>
<path d="M160.126 179.009H56.7901L43.8712 58.3301H173.045L160.126 179.009Z" fill="#60C2AB" stroke="#1C316B" stroke-miterlimit="10" stroke-linecap="round"/>
<path d="M114.341 143.676C114.014 143.676 113.728 143.676 113.447 143.67C108.333 143.65 103.218 143.625 98.104 143.609C94.9802 143.599 92.5914 142.293 91.0141 139.59C89.3604 136.755 87.7474 133.899 86.1243 131.048C86.0885 130.981 86.0783 130.9 86.0885 130.925C95.2456 130.961 104.428 131.007 113.606 131.027C114.239 131.027 114.484 131.17 114.478 131.853C114.433 135.561 114.438 139.269 114.422 142.972C114.412 143.186 114.371 143.395 114.341 143.676Z" fill="#FFC100"/>
<path d="M127.867 126.595C127.862 128.207 127.857 129.589 127.847 131.053C128.229 131.073 128.536 131.104 128.847 131.104C132.262 131.119 135.682 131.15 139.101 131.134C139.704 131.129 140.056 131.298 140.352 131.838C141.5 133.924 142.715 135.974 143.879 138.05C145.517 140.962 143.833 143.798 140.49 143.778C136.57 143.757 132.65 143.747 128.73 143.732C128.469 143.732 128.204 143.732 127.847 143.727C127.841 145.185 127.836 146.593 127.831 148.006C127.77 148.036 127.704 148.067 127.642 148.097C124.034 144.548 120.425 141.003 116.729 137.372C120.41 133.817 124.059 130.283 127.867 126.595Z" fill="#FFC100"/>
<path d="M101.973 106.598C103.234 111.616 104.464 116.523 105.745 121.623C104.357 120.822 103.152 120.128 101.866 119.389C101.702 119.634 101.539 119.858 101.401 120.098C99.6557 123.091 97.9049 126.075 96.1848 129.084C95.8887 129.604 95.5621 129.813 94.9444 129.803C92.6169 129.752 90.2842 129.686 87.9567 129.778C84.6236 129.905 82.8218 126.631 84.5675 123.857C86.65 120.547 88.5335 117.114 90.5037 113.733C90.6313 113.508 90.7538 113.279 90.9019 113.009C89.6309 112.259 88.4059 111.54 87.0277 110.729C92.0809 109.331 96.981 107.98 101.973 106.598Z" fill="#FFC100"/>
<path d="M97.6854 101.436C98.7216 99.6615 99.7016 97.9683 100.687 96.2801C102.448 93.266 104.198 90.2416 105.97 87.2325C107.557 84.5345 109.946 83.2187 113.065 83.2238C116.112 83.2238 119.159 83.2442 122.201 83.2595C122.436 83.2595 122.666 83.2595 122.906 83.2646C118.123 91.4452 113.371 99.5748 108.578 107.781C104.949 105.669 101.371 103.584 97.6854 101.436Z" fill="#FFC100"/>
<path d="M136.013 96.4382C137.31 95.6987 138.525 95.0102 139.918 94.2197C138.596 99.3198 137.32 104.226 136.024 109.219C131.072 107.806 126.203 106.424 121.109 104.971C122.513 104.16 123.732 103.456 125.014 102.711C124.299 101.452 123.61 100.238 122.921 99.0291C121.727 96.938 120.547 94.8419 119.328 92.7712C119.088 92.3632 119.113 92.0674 119.338 91.6849C120.573 89.5888 121.767 87.4671 123.023 85.3863C124.753 82.5149 128.02 82.5557 129.684 85.4526C131.624 88.8238 133.543 92.2 135.477 95.5763C135.641 95.8466 135.809 96.1118 136.013 96.4382Z" fill="#FFC100"/>
<path d="M131.7 114.345C135.386 112.238 138.964 110.193 142.608 108.107C142.782 108.367 142.93 108.577 143.052 108.791C145.614 113.264 148.177 117.741 150.739 122.214C152.306 124.948 152.352 127.687 150.765 130.42C149.187 133.144 147.6 135.857 146.013 138.575C145.921 138.728 145.803 138.866 145.747 138.948C141.082 130.777 136.411 122.597 131.7 114.345Z" fill="#FFC100"/>
<path d="M187.235 68.2142L188.327 59.0951H43.963L45.0554 68.2142H187.235Z" fill="#1C316B" stroke="#1C316B" stroke-miterlimit="10" stroke-linecap="round"/>
<path d="M47.9444 62.7366L52.6097 71.264V62.7366H47.9444Z" fill="#60C2AB" stroke="#1C316B" stroke-miterlimit="10" stroke-linecap="round"/>
<path d="M68.9484 62.7366L73.6137 71.264V62.7366H68.9484Z" fill="#60C2AB" stroke="#1C316B" stroke-miterlimit="10" stroke-linecap="round"/>
<path d="M89.9525 62.7366L94.6178 71.264V62.7366H89.9525Z" fill="#60C2AB" stroke="#1C316B" stroke-miterlimit="10" stroke-linecap="round"/>
<path d="M110.951 62.7366L115.622 71.264V62.7366H110.951Z" fill="#60C2AB" stroke="#1C316B" stroke-miterlimit="10" stroke-linecap="round"/>
<path d="M184.172 62.7366L179.502 71.264V62.7366H184.172Z" fill="#60C2AB" stroke="#1C316B" stroke-miterlimit="10" stroke-linecap="round"/>
<path d="M163.168 62.7366L158.498 71.264V62.7366H163.168Z" fill="#60C2AB" stroke="#1C316B" stroke-miterlimit="10" stroke-linecap="round"/>
<path d="M142.164 62.7366L137.499 71.264V62.7366H142.164Z" fill="#60C2AB" stroke="#1C316B" stroke-miterlimit="10" stroke-linecap="round"/>
<path d="M192.288 55.8872H40.0021V65.0113H192.288V55.8872Z" fill="#1C316B" stroke="#1C316B" stroke-miterlimit="10" stroke-linecap="round"/>
<path d="M175.668 55.8872H40.0021V65.0113H175.668V55.8872Z" fill="#60C2AB" stroke="#1C316B" stroke-miterlimit="10" stroke-linecap="round"/>
</g>
<defs>
<clipPath id="clip0_203_864">
<rect width="199" height="190" fill="white"/>
</clipPath>
</defs>
</svg>
