<svg width="449" height="390" viewBox="0 0 449 390" fill="none" xmlns="http://www.w3.org/2000/svg">
<g clip-path="url(#clip0_201_270)">
<path d="M56.2827 82.6036C129.355 -0.552875 254.81 -14.4036 310.749 12.3175C334.119 23.4877 353.892 37.1611 370.411 52.1904C372.747 54.3077 375.02 56.4562 377.22 58.6256C384.312 65.6135 390.736 72.8309 396.545 80.1839C403.99 89.602 410.414 99.2391 415.879 108.866C424.681 124.343 431.021 139.78 435.203 154.204C438.509 165.593 440.469 176.357 441.231 186.025C442.826 206.269 441.439 226.659 438.717 246.778C438.467 248.698 438.196 250.617 437.904 252.536C437.831 253.068 437.758 253.6 437.675 254.131C434.682 274.125 430.448 294.296 420.999 311.735C410.696 330.748 374.665 383.659 335.611 385.046C315.348 385.765 297.453 372.499 279.088 363.133C249.867 348.239 216.84 345.319 184.616 344.453C152.392 343.587 119.772 344.516 88.3713 336.526C56.971 328.548 26.1756 310.181 10.1261 279.632C4.67197 269.265 0.531851 254.33 0.521422 242.377C0.510994 207.114 6.27797 176.273 16.3311 149.479C19.6056 140.729 23.339 132.416 27.4792 124.521C33.851 112.349 41.1927 101.179 49.2956 90.9683L56.2827 82.6036Z" fill="#92E3A9"/>
<g opacity="0.7">
<path d="M56.2827 82.6036C129.355 -0.552875 254.81 -14.4036 310.749 12.3175C334.119 23.4877 353.892 37.1611 370.411 52.1904C372.747 54.3077 375.02 56.4562 377.22 58.6256C384.312 65.6135 390.736 72.8309 396.545 80.1839C403.99 89.602 410.414 99.2391 415.879 108.866C424.681 124.343 431.021 139.78 435.203 154.204C438.509 165.593 440.469 176.357 441.231 186.025C442.826 206.269 441.439 226.659 438.717 246.778C438.467 248.698 438.196 250.617 437.904 252.536C437.831 253.068 437.758 253.6 437.675 254.131C434.682 274.125 430.448 294.296 420.999 311.735C410.696 330.748 374.665 383.659 335.611 385.046C315.348 385.765 297.453 372.499 279.088 363.133C249.867 348.239 216.84 345.319 184.616 344.453C152.392 343.587 119.772 344.516 88.3713 336.526C56.971 328.548 26.1756 310.181 10.1261 279.632C4.67197 269.265 0.531851 254.33 0.521422 242.377C0.510994 207.114 6.27797 176.273 16.3311 149.479C19.6056 140.729 23.339 132.416 27.4792 124.521C33.851 112.349 41.1927 101.179 49.2956 90.9683L56.2827 82.6036Z" fill="white"/>
</g>
<path d="M345.664 232.511C345.653 232.522 345.653 232.532 345.664 232.543C345.674 232.584 345.685 232.616 345.695 232.657C345.737 232.845 345.768 233.043 345.82 233.252C346.175 234.931 346.581 237.246 346.873 240.167C347.072 242.159 347.228 244.432 347.27 246.967C347.364 251.858 347.092 257.72 346.07 264.426C345.841 265.959 345.57 267.534 345.247 269.161C344.736 271.811 344.099 274.585 343.338 277.453C342.984 278.788 342.598 280.144 342.181 281.531C342.014 282.094 341.847 282.647 341.69 283.21C341.503 283.888 341.315 284.577 341.127 285.255C341.127 285.265 341.117 285.275 341.117 285.286C339.907 289.906 338.969 294.641 338.249 299.345C337.363 305.238 336.81 311.089 336.508 316.627C336.101 324.001 336.122 330.822 336.299 336.465C336.299 336.559 336.299 336.642 336.309 336.736C336.497 342.451 336.852 346.915 337.092 349.471C337.227 350.952 337.321 351.796 337.331 351.859" stroke="#263238" stroke-miterlimit="10" stroke-linecap="round" stroke-linejoin="round"/>
<path d="M345.695 232.657C345.685 232.636 345.685 232.636 345.674 232.636C345.664 232.615 345.664 232.615 345.653 232.615C344.902 231.958 344.079 231.385 343.213 230.915C342.254 230.415 341.232 230.018 340.178 229.768" fill="white"/>
<path d="M345.695 232.657C345.685 232.636 345.685 232.636 345.674 232.636C345.664 232.615 345.664 232.615 345.653 232.615C344.902 231.958 344.079 231.385 343.213 230.915C342.254 230.415 341.232 230.018 340.178 229.768" stroke="#263238" stroke-miterlimit="10" stroke-linecap="round" stroke-linejoin="round"/>
<path d="M346.863 240.166L349.637 237.653" stroke="#263238" stroke-miterlimit="10" stroke-linecap="round" stroke-linejoin="round"/>
<path d="M343.328 277.474C343.182 276.733 342.973 276.014 342.671 275.325C342.264 274.314 341.701 273.365 341.013 272.52C340.502 271.884 339.918 271.31 339.271 270.799" stroke="#263238" stroke-miterlimit="10" stroke-linecap="round" stroke-linejoin="round"/>
<path d="M341.107 285.296C341.868 283.356 343.495 281.75 345.445 281.009" stroke="#263238" stroke-miterlimit="10" stroke-linecap="round" stroke-linejoin="round"/>
<path d="M336.289 324.095C337.217 322.979 337.915 318.713 338.301 316.418C338.395 315.866 338.468 315.407 338.531 315.062" fill="white"/>
<path d="M336.289 324.095C337.217 322.979 337.915 318.713 338.301 316.418C338.395 315.866 338.468 315.407 338.531 315.062" stroke="#263238" stroke-miterlimit="10" stroke-linecap="round" stroke-linejoin="round"/>
<path d="M329.135 331.792C329.447 331.771 329.76 331.782 330.073 331.823C332.774 332.074 335.308 333.93 336.299 336.465" fill="white"/>
<path d="M329.135 331.792C329.447 331.771 329.76 331.782 330.073 331.823C332.774 332.074 335.308 333.93 336.299 336.465" stroke="#263238" stroke-miterlimit="10" stroke-linecap="round" stroke-linejoin="round"/>
<path d="M345.236 269.213C345.236 269.213 345.726 252.286 336.435 246.143" stroke="#263238" stroke-miterlimit="10" stroke-linecap="round" stroke-linejoin="round"/>
<path d="M346.07 305.54C347.291 309.483 338.781 317.002 338.781 317.002C338.781 317.002 327.518 315.594 326.298 311.652C325.078 307.71 327.935 301.243 333.389 299.564C338.854 297.874 344.85 301.598 346.07 305.54Z" fill="#92E3A9"/>
<path d="M355.508 257.636C354.434 261.829 346.373 264.801 346.373 264.801C346.373 264.801 340.762 258.304 341.837 254.111C342.911 249.918 347.364 245.298 351.139 246.268C354.914 247.248 356.582 253.443 355.508 257.636Z" fill="#92E3A9"/>
<path d="M323.19 320.288C328.248 322.259 331.345 331.208 331.345 331.208C331.345 331.208 323.013 335.703 317.955 333.732C312.897 331.761 307.548 326.212 308.987 322.499C310.436 318.786 318.132 318.317 323.19 320.288Z" fill="#92E3A9"/>
<path d="M334.276 271.07C335.35 271.862 336.445 272.676 337.728 273.02C339.01 273.364 340.543 273.156 341.409 272.154C342.494 270.913 342.202 268.973 341.524 267.471C340.168 264.489 335.194 259.441 331.356 260.89C325.839 262.976 331.815 269.234 334.276 271.07Z" fill="#92E3A9"/>
<path d="M345.591 278.652C344.861 279.549 344.099 280.686 344.496 281.771C344.85 282.73 346.029 283.179 347.04 283.022C348.052 282.866 348.938 282.271 349.773 281.687C351.723 280.331 355.727 277.494 353.172 274.835C350.513 272.061 347.113 276.764 345.591 278.652Z" fill="#92E3A9"/>
<path d="M329.26 240.813C328.425 240.907 327.581 241.459 327.435 242.294C327.268 243.264 328.071 244.109 328.853 244.703C330.793 246.195 336.612 250.231 337.915 246.341C339.146 242.669 331.836 240.531 329.26 240.813Z" fill="#92E3A9"/>
<path d="M340.001 228.026C338.802 228.141 337.603 227.703 336.393 227.776C335.194 227.849 333.848 228.819 334.119 229.997C334.37 231.082 335.715 231.447 336.831 231.52C338.729 231.635 340.648 231.51 342.514 231.124C342.952 231.04 343.422 230.905 343.662 230.54C344.152 229.82 343.37 228.861 342.546 228.61C341.722 228.36 340.783 228.443 340.032 228.016L340.001 228.026Z" fill="#92E3A9"/>
<path d="M351.733 236.297C352.943 236.328 354.111 235.817 355.31 235.817C356.52 235.817 357.917 236.693 357.73 237.882C357.552 238.988 356.228 239.437 355.122 239.583C353.235 239.822 351.316 239.822 349.428 239.562C348.99 239.499 348.511 239.405 348.24 239.061C347.708 238.373 348.417 237.371 349.23 237.059C350.044 236.746 350.982 236.777 351.702 236.297H351.733Z" fill="#92E3A9"/>
<path d="M350.544 325.18C350.847 324.929 351.18 324.668 351.566 324.668C352.088 324.668 352.494 325.159 352.588 325.67C352.682 326.181 352.547 326.702 352.39 327.192C351.577 329.925 342.389 349.742 340.283 346.185C339.031 344.078 342.108 337.111 343.004 335.14C344.767 331.333 347.343 327.891 350.544 325.18Z" fill="#92E3A9"/>
<path d="M346.081 233.815C346.081 233.815 345.528 229.007 346.686 228.621" stroke="#263238" stroke-miterlimit="10" stroke-linecap="round" stroke-linejoin="round"/>
<path d="M345.059 228.777C345.789 227.139 346.571 225.429 348.021 224.376C349.47 223.322 351.785 223.239 352.839 224.688C354.017 226.305 352.839 228.766 351.034 229.632C349.23 230.498 347.113 230.237 345.132 229.955C345.111 229.663 345.101 229.371 345.08 229.069L345.059 228.777Z" fill="#92E3A9"/>
<path d="M350.002 383.575C340.241 385.244 330.063 385.244 320.302 383.575L308.747 349.48H361.557L350.002 383.575Z" fill="white" stroke="#263238" stroke-miterlimit="10" stroke-linecap="round" stroke-linejoin="round"/>
<path d="M148.45 137.246C148.44 137.256 148.44 137.266 148.45 137.277C148.46 137.319 148.471 137.35 148.481 137.392C148.523 137.579 148.554 137.778 148.606 137.986C148.961 139.665 149.368 141.981 149.66 144.901C149.858 146.893 150.014 149.167 150.056 151.701C150.15 156.593 149.879 162.454 148.857 169.161C148.627 170.694 148.356 172.269 148.033 173.896C147.522 176.545 146.886 179.319 146.124 182.187C145.77 183.522 145.384 184.878 144.967 186.265C144.8 186.829 144.633 187.381 144.477 187.945C144.289 188.623 144.101 189.311 143.914 189.989C143.914 189.999 143.903 190.01 143.903 190.02C142.693 194.641 141.755 199.376 141.035 204.08C140.149 209.972 139.596 215.823 139.294 221.362C138.887 228.735 138.908 235.557 139.085 241.199C139.085 241.293 139.085 241.376 139.096 241.47C139.283 247.186 139.638 251.65 139.878 254.205C140.013 255.686 140.107 256.531 140.118 256.593" stroke="#263238" stroke-miterlimit="10" stroke-linecap="round" stroke-linejoin="round"/>
<path d="M148.481 137.391C148.471 137.371 148.471 137.371 148.46 137.371C148.45 137.35 148.45 137.35 148.44 137.35C147.689 136.693 146.865 136.119 145.999 135.65C145.04 135.149 144.018 134.753 142.965 134.502" fill="white"/>
<path d="M148.481 137.391C148.471 137.371 148.471 137.371 148.46 137.371C148.45 137.35 148.45 137.35 148.44 137.35C147.689 136.693 146.865 136.119 145.999 135.65C145.04 135.149 144.018 134.753 142.965 134.502" stroke="#263238" stroke-miterlimit="10" stroke-linecap="round" stroke-linejoin="round"/>
<path d="M149.649 144.901L152.423 142.387" stroke="#263238" stroke-miterlimit="10" stroke-linecap="round" stroke-linejoin="round"/>
<path d="M146.114 182.208C145.968 181.468 145.759 180.748 145.457 180.06C145.05 179.048 144.487 178.099 143.799 177.254C143.288 176.618 142.704 176.044 142.057 175.533" stroke="#263238" stroke-miterlimit="10" stroke-linecap="round" stroke-linejoin="round"/>
<path d="M143.903 190.03C144.664 188.09 146.291 186.484 148.241 185.744" stroke="#263238" stroke-miterlimit="10" stroke-linecap="round" stroke-linejoin="round"/>
<path d="M139.075 228.829C140.003 227.713 140.702 223.447 141.087 221.153C141.181 220.6 141.254 220.141 141.317 219.797" fill="white"/>
<path d="M139.075 228.829C140.003 227.713 140.702 223.447 141.087 221.153C141.181 220.6 141.254 220.141 141.317 219.797" stroke="#263238" stroke-miterlimit="10" stroke-linecap="round" stroke-linejoin="round"/>
<path d="M131.931 236.527C132.244 236.506 132.557 236.516 132.87 236.558C135.571 236.808 138.105 238.665 139.096 241.199" fill="white"/>
<path d="M131.931 236.527C132.244 236.506 132.557 236.516 132.87 236.558C135.571 236.808 138.105 238.665 139.096 241.199" stroke="#263238" stroke-miterlimit="10" stroke-linecap="round" stroke-linejoin="round"/>
<path d="M148.022 173.947C148.022 173.947 148.513 157.02 139.221 150.887" stroke="#263238" stroke-miterlimit="10" stroke-linecap="round" stroke-linejoin="round"/>
<path d="M148.857 210.275C150.077 214.217 141.567 221.737 141.567 221.737C141.567 221.737 130.304 220.329 129.084 216.386C127.864 212.444 130.722 205.977 136.176 204.298C141.64 202.609 147.637 206.332 148.857 210.275Z" fill="#92E3A9"/>
<path d="M158.295 162.37C157.22 166.563 149.159 169.536 149.159 169.536C149.159 169.536 143.538 163.038 144.623 158.845C145.697 154.652 150.15 150.032 153.925 151.002C157.711 151.982 159.379 158.178 158.295 162.37Z" fill="#92E3A9"/>
<path d="M125.977 225.022C131.034 226.994 134.132 235.942 134.132 235.942C134.132 235.942 125.799 240.438 120.741 238.466C115.684 236.495 110.334 230.946 111.773 227.233C113.222 223.52 120.919 223.051 125.977 225.022Z" fill="#92E3A9"/>
<path d="M137.062 175.804C138.136 176.597 139.231 177.41 140.514 177.754C141.797 178.099 143.33 177.89 144.195 176.889C145.28 175.648 144.988 173.708 144.31 172.206C142.954 169.223 137.98 164.175 134.142 165.625C128.625 167.711 134.601 173.968 137.062 175.804Z" fill="#92E3A9"/>
<path d="M148.377 183.387C147.647 184.283 146.886 185.42 147.282 186.505C147.637 187.465 148.815 187.913 149.827 187.757C150.838 187.6 151.725 187.006 152.559 186.422C154.509 185.066 158.514 182.229 155.959 179.569C153.299 176.795 149.9 181.499 148.377 183.387Z" fill="#92E3A9"/>
<path d="M132.056 145.547C131.222 145.641 130.377 146.194 130.231 147.028C130.065 147.998 130.868 148.843 131.65 149.438C133.589 150.929 139.408 154.965 140.712 151.075C141.932 147.404 134.632 145.266 132.056 145.547Z" fill="#92E3A9"/>
<path d="M142.787 132.761C141.588 132.875 140.389 132.437 139.179 132.51C137.98 132.583 136.635 133.553 136.906 134.732C137.156 135.816 138.501 136.181 139.617 136.254C141.515 136.369 143.434 136.244 145.301 135.858C145.739 135.775 146.208 135.639 146.448 135.274C146.938 134.554 146.156 133.595 145.332 133.345C144.508 133.094 143.569 133.178 142.819 132.75L142.787 132.761Z" fill="#92E3A9"/>
<path d="M154.53 141.032C155.74 141.063 156.908 140.552 158.107 140.552C159.317 140.552 160.714 141.428 160.526 142.617C160.349 143.722 159.025 144.171 157.919 144.317C156.032 144.557 154.113 144.557 152.225 144.296C151.787 144.233 151.307 144.14 151.036 143.795C150.504 143.107 151.214 142.106 152.027 141.793C152.84 141.48 153.779 141.511 154.499 141.032H154.53Z" fill="#92E3A9"/>
<path d="M153.341 229.914C153.643 229.664 153.977 229.403 154.363 229.403C154.884 229.403 155.291 229.893 155.385 230.404C155.479 230.915 155.343 231.437 155.187 231.927C154.373 234.659 145.186 254.476 143.079 250.919C141.828 248.813 144.904 241.846 145.801 239.874C147.564 236.067 150.129 232.626 153.341 229.914Z" fill="#92E3A9"/>
<path d="M148.867 138.549C148.867 138.549 148.314 133.741 149.472 133.355" stroke="#263238" stroke-miterlimit="10" stroke-linecap="round" stroke-linejoin="round"/>
<path d="M147.845 133.511C148.575 131.874 149.357 130.163 150.807 129.11C152.256 128.056 154.572 127.973 155.625 129.423C156.803 131.039 155.625 133.501 153.821 134.366C152.017 135.232 149.9 134.971 147.918 134.69C147.897 134.398 147.887 134.106 147.866 133.803L147.845 133.511Z" fill="#92E3A9"/>
<path d="M16.3311 252.536V149.479" stroke="#263238" stroke-miterlimit="10" stroke-linecap="round" stroke-linejoin="round"/>
<path d="M338.051 252.536H325.307" stroke="#263238" stroke-miterlimit="10" stroke-linecap="round" stroke-linejoin="round"/>
<path d="M437.904 252.536H411.968" stroke="#263238" stroke-miterlimit="10" stroke-linecap="round" stroke-linejoin="round"/>
<path d="M324.15 95.975H370.108V52.1909" stroke="#263238" stroke-miterlimit="10" stroke-linecap="round" stroke-linejoin="round"/>
<path d="M56.2827 82.604H105.109V118.222H158.618" stroke="#263238" stroke-miterlimit="10" stroke-linecap="round" stroke-linejoin="round"/>
<path d="M27.4792 203.224V124.521" stroke="#263238" stroke-miterlimit="10" stroke-linecap="round" stroke-linejoin="round"/>
<path d="M49.2852 90.3638V152.045" stroke="#263238" stroke-miterlimit="10" stroke-linecap="round" stroke-linejoin="round"/>
<path d="M71.0912 90.3638V144.891" stroke="#263238" stroke-miterlimit="10" stroke-linecap="round" stroke-linejoin="round"/>
<path d="M92.8973 90.3638V185.744" stroke="#263238" stroke-miterlimit="10" stroke-linecap="round" stroke-linejoin="round"/>
<path d="M197.37 76.8362V14.1221H286.148V76.8362" stroke="#263238" stroke-miterlimit="10" stroke-linecap="round" stroke-linejoin="round"/>
<path d="M203.878 45.2757V21.5688H220.282" stroke="#263238" stroke-miterlimit="10" stroke-linecap="round" stroke-linejoin="round"/>
<path d="M223.9 45.2757V21.5688H240.304" stroke="#263238" stroke-miterlimit="10" stroke-linecap="round" stroke-linejoin="round"/>
<path d="M243.923 45.2757V21.5688H260.327" stroke="#263238" stroke-miterlimit="10" stroke-linecap="round" stroke-linejoin="round"/>
<path d="M263.946 45.2757V21.5688H280.35" stroke="#263238" stroke-miterlimit="10" stroke-linecap="round" stroke-linejoin="round"/>
<path d="M203.878 76.8362V53.1294H220.282" stroke="#263238" stroke-miterlimit="10" stroke-linecap="round" stroke-linejoin="round"/>
<path d="M223.9 76.8362V53.1294H240.304" stroke="#263238" stroke-miterlimit="10" stroke-linecap="round" stroke-linejoin="round"/>
<path d="M243.923 76.8362V53.1294H260.327" stroke="#263238" stroke-miterlimit="10" stroke-linecap="round" stroke-linejoin="round"/>
<path d="M263.946 76.8362V53.1294H280.35" stroke="#263238" stroke-miterlimit="10" stroke-linecap="round" stroke-linejoin="round"/>
<path d="M377.21 57.6143V136.202" stroke="#263238" stroke-miterlimit="10" stroke-linecap="round" stroke-linejoin="round"/>
<path d="M409.455 246.779H411.968" stroke="#263238" stroke-miterlimit="10" stroke-linecap="round" stroke-linejoin="round"/>
<path d="M396.545 80.1841V168.17" stroke="#263238" stroke-miterlimit="10" stroke-linecap="round" stroke-linejoin="round"/>
<path d="M415.879 224.313V246.779H431.303" stroke="#263238" stroke-miterlimit="10" stroke-linecap="round" stroke-linejoin="round"/>
<path d="M415.879 108.866V168.618" stroke="#263238" stroke-miterlimit="10" stroke-linecap="round" stroke-linejoin="round"/>
<path d="M435.203 154.204V246.779H438.718" stroke="#263238" stroke-miterlimit="10" stroke-linecap="round" stroke-linejoin="round"/>
<path d="M199.706 254.424H0.521423V383.815H199.706V254.424Z" fill="white" stroke="#263238" stroke-miterlimit="10" stroke-linecap="round" stroke-linejoin="round"/>
<path d="M0.521423 254.424L100.114 319.12L199.706 254.424H0.521423Z" fill="white" stroke="#263238" stroke-miterlimit="10" stroke-linecap="round" stroke-linejoin="round"/>
<path d="M70.1735 299.679L0.521423 383.816" stroke="#263238" stroke-miterlimit="10" stroke-linecap="round" stroke-linejoin="round"/>
<path d="M130.596 299.679L200.248 383.816" stroke="#263238" stroke-miterlimit="10" stroke-linecap="round" stroke-linejoin="round"/>
<path d="M306.296 89.3203H259.993C257.272 89.3203 254.769 90.8013 253.465 93.1897L253.444 93.2314C249.92 99.5831 241.91 101.878 235.559 98.3524C233.411 97.1634 231.638 95.3799 230.439 93.2314C229.136 90.8221 226.622 89.3203 223.88 89.3203H177.65C172.31 89.2577 167.931 93.5235 167.858 98.8635V360.035C167.931 365.375 172.31 369.651 177.65 369.578H306.296C311.636 369.641 316.026 365.375 316.099 360.035V98.8635C316.026 93.5235 311.636 89.2472 306.296 89.3203Z" fill="#92E3A9"/>
<path d="M320.614 95.9748C320.614 88.5905 314.629 82.6143 307.256 82.6143C307.256 82.6143 307.256 82.6143 307.245 82.6143H176.701C169.317 82.6143 163.332 88.5905 163.332 95.9748C163.332 95.9748 163.332 95.9748 163.332 95.9852V370.465C163.332 377.85 169.317 383.826 176.69 383.826C176.69 383.826 176.69 383.826 176.701 383.826H307.235C314.618 383.826 320.604 377.85 320.604 370.465C320.604 370.465 320.604 370.465 320.604 370.455V95.9748H320.614ZM316.099 360.035C316.026 365.376 311.636 369.652 306.296 369.579H177.65C172.31 369.641 167.931 365.376 167.858 360.035V98.8638C167.931 93.5238 172.31 89.2476 177.65 89.3206H223.911C226.654 89.3206 229.167 90.8225 230.47 93.2318C233.995 99.5835 242.004 101.878 248.355 98.3528C250.504 97.1638 252.276 95.3803 253.476 93.2318L253.497 93.19C254.8 90.8016 257.303 89.3206 260.025 89.3206H306.327C311.667 89.258 316.057 93.5238 316.13 98.8638L316.099 360.035Z" fill="#263238"/>
<path opacity="0.2" d="M276.252 82.6035L189.549 383.815L223.973 383.773L307.485 82.6035H276.252Z" fill="white"/>
<path opacity="0.2" d="M263.32 82.6035L171.654 383.815L176.67 383.784L266.626 82.6035H263.32Z" fill="white"/>
<path d="M265.364 306.52C265.583 319.14 255.53 329.372 242.912 329.372C230.293 329.372 219.875 319.14 219.656 306.52C219.437 293.9 229.49 283.668 242.109 283.668C254.727 283.668 265.135 293.9 265.364 306.52Z" fill="white" stroke="#263238" stroke-miterlimit="10" stroke-linecap="round" stroke-linejoin="round"/>
<path d="M235.017 323.583C232.89 322.801 230.95 321.601 229.292 320.058C227.623 318.452 226.33 316.501 225.506 314.332C224.568 311.902 224.109 309.326 224.14 306.718C224.119 304.497 224.516 302.296 225.298 300.21C226.007 298.301 227.06 296.549 228.416 295.026C231.096 292.085 234.558 289.978 238.396 288.946C240.284 288.445 242.223 288.184 244.173 288.184C245.79 288.174 247.406 288.372 248.971 288.758C250.493 289.134 251.943 289.739 253.277 290.542C254.602 291.334 255.791 292.346 256.792 293.525C257.845 294.787 258.638 296.236 259.149 297.801C259.733 299.574 260.025 301.441 260.004 303.318C259.983 306.916 258.69 310.4 256.364 313.143C255.353 314.29 254.153 315.271 252.819 316.011C251.671 316.679 250.368 317.044 249.044 317.064C248.136 317.075 247.239 316.793 246.509 316.251C245.759 315.698 245.31 314.822 245.31 313.894C243.756 316.084 241.65 317.179 239.001 317.179C236.842 317.179 235.111 316.439 233.818 314.968C232.525 313.487 231.878 311.672 231.889 309.513C231.899 307.876 232.181 306.249 232.733 304.695C233.276 303.13 234.047 301.66 235.038 300.335C236.018 299.021 237.259 297.936 238.688 297.154C240.117 296.351 241.733 295.923 243.37 295.923C244.507 295.913 245.633 296.184 246.645 296.726C247.625 297.248 248.418 298.061 248.918 299.052L249.127 298.364C249.471 297.342 250.566 296.799 251.588 297.133C251.776 297.196 251.963 297.29 252.12 297.415C252.443 297.676 252.621 298.072 252.589 298.489C252.589 298.687 252.558 298.875 252.495 299.063L249.117 310.306C248.731 311.589 248.543 312.475 248.543 312.955C248.543 313.769 248.96 314.165 249.784 314.165C250.858 314.165 251.922 313.664 252.965 312.674C254.091 311.558 254.956 310.202 255.499 308.721C256.145 307.094 256.479 305.362 256.479 303.61C256.5 302.066 256.27 300.533 255.812 299.063C255.436 297.79 254.821 296.601 254.018 295.548C253.257 294.588 252.329 293.764 251.296 293.118C250.253 292.461 249.127 291.97 247.938 291.668C246.718 291.355 245.467 291.188 244.205 291.188C242.609 291.188 241.014 291.418 239.481 291.856C237.906 292.304 236.394 292.982 235.017 293.869C233.62 294.745 232.358 295.829 231.263 297.06C230.137 298.364 229.25 299.855 228.666 301.482C228.009 303.245 227.686 305.112 227.696 307C227.665 309.232 228.061 311.443 228.885 313.518C229.584 315.312 230.7 316.929 232.139 318.212C233.526 319.422 235.121 320.35 236.853 320.965C238.678 321.612 240.596 321.935 242.536 321.914C244.601 321.914 246.666 321.601 248.637 320.986C248.835 320.924 249.044 320.882 249.252 320.892C249.659 320.871 250.045 321.038 250.326 321.33C250.587 321.601 250.733 321.966 250.733 322.342C250.785 322.968 250.368 323.541 249.753 323.677C247.292 324.428 244.726 324.824 242.15 324.845C239.72 324.866 237.301 324.438 235.017 323.583ZM243.631 312.767C244.664 312.027 245.425 310.974 245.811 309.774L247.99 302.108L247.844 301.795C247.709 301.545 247.542 301.305 247.344 301.097C247.083 300.794 246.801 300.523 246.499 300.262C246.113 299.949 245.665 299.709 245.195 299.553C243.965 299.115 242.609 299.167 241.41 299.688C240.753 299.97 240.158 300.356 239.637 300.846C239.095 301.357 238.605 301.92 238.198 302.536C237.77 303.172 237.405 303.86 237.103 304.57C236.811 305.279 236.581 306.019 236.425 306.77C236.269 307.49 236.185 308.22 236.185 308.95C236.185 309.419 236.206 309.889 236.269 310.358C236.321 310.775 236.415 311.182 236.54 311.578C236.654 311.933 236.821 312.277 237.03 312.59C237.218 312.882 237.468 313.132 237.739 313.341C238.041 313.56 238.375 313.717 238.73 313.821C239.147 313.936 239.585 313.998 240.012 313.988C241.316 313.977 242.588 313.56 243.631 312.767Z" fill="#92E3A9" stroke="#263238" stroke-miterlimit="10" stroke-linecap="round" stroke-linejoin="round"/>
<path d="M264.843 228.162C265.062 240.782 255.009 251.013 242.39 251.013C229.772 251.013 219.354 240.782 219.135 228.162C218.916 215.542 228.969 205.31 241.587 205.31C254.216 205.31 264.624 215.542 264.843 228.162Z" fill="white" stroke="#263238" stroke-miterlimit="10" stroke-linecap="round" stroke-linejoin="round"/>
<path d="M256.333 226.076C249.179 221.382 235.132 221.382 228.301 226.076C225.757 226.555 223.88 228.798 223.984 231.489C224.088 234.524 236.696 234.524 236.592 231.489C236.55 230.185 236.029 228.986 235.226 228.047C239.741 227.025 244.987 227.025 249.575 228.047C248.835 228.996 248.397 230.185 248.449 231.489C248.553 234.524 261.161 234.524 261.057 231.489C260.942 228.798 258.909 226.555 256.333 226.076Z" fill="#92E3A9" stroke="#263238" stroke-miterlimit="10" stroke-linecap="round" stroke-linejoin="round"/>
<path d="M264.853 152.045C264.978 157.667 261.912 162.694 256.99 166.042V179.694L247.197 169.901C245.654 170.172 244.048 170.308 242.4 170.308C229.782 170.308 219.364 162.141 219.145 152.045C218.926 141.959 228.968 133.793 241.597 133.793C254.216 133.793 264.623 141.97 264.853 152.045Z" fill="white" stroke="#263238" stroke-miterlimit="10" stroke-linecap="round" stroke-linejoin="round"/>
<path d="M232.264 152.045C232.264 153.683 230.94 155.007 229.302 155.007C227.665 155.007 226.341 153.683 226.341 152.045C226.341 150.408 227.665 149.083 229.302 149.083C230.94 149.093 232.264 150.418 232.264 152.045Z" fill="#92E3A9" stroke="#263238" stroke-miterlimit="10" stroke-linecap="round" stroke-linejoin="round"/>
<path d="M244.935 152.045C244.935 153.683 243.61 155.007 241.973 155.007C240.336 155.007 239.011 153.683 239.011 152.045C239.011 150.408 240.336 149.083 241.973 149.083C243.61 149.093 244.935 150.418 244.935 152.045Z" fill="#92E3A9" stroke="#263238" stroke-miterlimit="10" stroke-linecap="round" stroke-linejoin="round"/>
<path d="M257.595 152.045C257.595 153.683 256.27 155.007 254.633 155.007C252.996 155.007 251.672 153.683 251.672 152.045C251.672 150.408 252.996 149.083 254.633 149.083C256.27 149.093 257.595 150.418 257.595 152.045Z" fill="#92E3A9" stroke="#263238" stroke-miterlimit="10" stroke-linecap="round" stroke-linejoin="round"/>
<path d="M114.307 193.67C113.994 194.379 113.358 194.891 112.753 195.381C107.946 199.208 103.013 202.89 97.976 206.426C96.1301 207.73 94.2113 209.054 92.428 210.514C81.7075 217.69 88.2462 219.442 81.7075 234.628C81.7075 234.638 81.697 234.638 81.697 234.638C80.1536 238.268 80.4352 256.061 80.4352 256.061H79.9033C78.7249 254.966 77.1085 253.401 75.8675 252.588C75.8675 252.588 75.8571 252.598 75.8571 252.588C75.6485 252.442 75.4399 252.327 75.2522 252.233C75.2522 252.233 75.2418 252.244 75.2418 252.233C75.0124 252.119 74.7934 252.046 74.6265 252.035C73.5732 251.973 69.6104 252.452 65.585 252.181C65.2408 252.16 64.8967 252.139 64.5421 252.098C63.9581 252.035 63.3741 251.962 62.8006 251.868C62.2374 251.764 61.6847 251.649 61.1528 251.503C58.139 250.669 53.9467 248.896 49.9526 247.185L49.9422 247.175C49.3269 246.914 48.7221 246.653 48.1276 246.393C47.8252 246.257 47.5228 246.132 47.2308 246.007C46.9492 245.882 46.6781 245.767 46.4069 245.652C46.2088 245.569 46.0106 245.485 45.8229 245.402C45.6352 245.318 45.4371 245.245 45.2598 245.162C45.2494 245.162 45.2494 245.162 45.2494 245.172C44.3108 244.776 43.4244 244.411 42.6109 244.098C42.2251 243.952 41.8497 243.837 41.4742 243.754C41.4117 244.609 41.3387 245.475 41.2239 246.33C40.7129 250.408 39.5971 254.173 37.6157 254.695C37.574 254.716 37.5322 254.726 37.4801 254.726C37.3028 254.757 37.1255 254.778 36.9587 254.778C36.8961 254.789 36.844 254.789 36.8022 254.778C36.3747 254.768 35.9471 254.684 35.5091 254.528C35.4987 254.517 35.4987 254.517 35.4883 254.517C33.7988 253.902 32.172 252.317 31.296 250.606C30.8893 249.803 30.639 248.969 30.639 248.207C30.639 245.172 29.7943 227.264 29.7943 222.05C29.7943 216.835 30.8893 207.709 33.4338 204.329C34.9773 202.285 36.3643 201.232 37.209 200.721C39.2321 199.01 41.6202 197.78 43.6329 197.122C46.4173 196.226 52.6223 193.9 56.9397 192.273V192.314C55.0209 193.055 52.7057 193.962 50.4115 194.838C52.0696 197.675 55.657 202.171 62.0288 202.713C68.0565 203.224 71.7899 197.769 73.6984 193.785C73.8652 193.848 84.3563 191.855 86.7966 191.96C94.7014 192.314 101.167 188.017 104.087 186.317C107.873 184.117 112.805 185.9 114.067 190.103C114.078 190.135 114.088 190.166 114.088 190.187C114.474 191.334 114.808 192.596 114.307 193.67Z" fill="#92E3A9" stroke="#263238" stroke-linecap="round" stroke-linejoin="round"/>
<path d="M73.7609 193.775C73.7609 193.785 73.7505 193.785 73.7505 193.785C73.5941 193.722 73.4376 193.67 73.2812 193.618L73.7609 193.775Z" fill="white" stroke="#263238" stroke-linecap="round" stroke-linejoin="round"/>
<path d="M82.6565 260.629C82.6565 260.671 82.646 260.713 82.6356 260.755C82.5313 261.161 81.9682 261.318 81.5302 261.067C81.0609 260.796 80.31 259.055 80.31 259.055L79.4862 258.199L78.9543 257.615C78.9543 257.626 78.9543 257.626 78.9648 257.626C79.0482 257.824 79.6948 259.43 79.361 260.16C79.3402 260.212 79.3193 260.254 79.2776 260.296C79.1629 260.452 79.0273 260.588 78.8813 260.713C78.4433 261.078 77.8802 261.286 77.2962 261.286H77.2649C76.8165 261.266 75.5025 261.443 74.3554 261.516C74.3136 261.516 74.2824 261.516 74.2406 261.526H74.2302C73.8339 261.547 73.4585 261.558 73.1561 261.537C72.2279 261.412 71.3415 261.12 70.5281 260.65C70.5281 260.65 66.7947 260.077 65.1365 259.367C65.0218 259.326 64.928 259.274 64.8237 259.211C64.7298 259.148 64.6255 259.096 64.5421 259.034C64.3544 258.919 64.1875 258.783 64.0311 258.637C63.1864 257.897 62.6546 256.969 62.5294 256.708C62.5086 256.677 62.5086 256.666 62.5086 256.666V256.656C62.5086 256.656 58.2746 256.478 52.591 256.04C50.5158 255.884 48.2528 255.686 45.9272 255.456C42.3294 255.091 39.3677 255.112 37.0421 254.789C36.9795 254.778 36.9274 254.768 36.8753 254.757C36.4164 254.684 35.9888 254.611 35.5821 254.507C35.5717 254.497 35.5717 254.497 35.5613 254.497C33.5173 253.965 32.1094 252.911 31.369 250.586C31.2334 250.168 31.1291 249.699 31.0353 249.188L32.8394 246.049C32.8394 246.049 34.0804 244.985 35.9993 244.234C37.5114 243.629 39.4511 243.243 41.5368 243.723C41.9122 243.806 42.2877 243.921 42.6735 244.067C43.4869 244.38 44.3734 244.745 45.3119 245.141C45.4996 245.214 45.6978 245.298 45.8855 245.381C46.0732 245.465 46.2713 245.538 46.4695 245.631C46.7406 245.746 47.0118 245.861 47.2933 245.986C52.007 248.009 57.4924 250.46 61.205 251.482C62.2687 251.775 63.4158 251.962 64.5943 252.087C64.9384 252.129 65.2825 252.16 65.6371 252.171C69.6521 252.432 73.6149 251.962 74.6786 252.025C75.8153 252.098 78.3078 254.528 79.945 256.051C80.3935 256.468 80.7898 256.812 81.0609 257.021C81.1026 257.052 81.1443 257.083 81.186 257.125C81.2173 257.146 81.2486 257.167 81.2799 257.208C81.916 257.792 82.2915 258.689 82.4896 259.42C82.4896 259.42 82.5 259.42 82.4896 259.43C82.573 259.764 82.6252 260.056 82.6565 260.285C82.6565 260.431 82.6565 260.546 82.6565 260.629Z" fill="white" stroke="#263238" stroke-linecap="round" stroke-linejoin="round"/>
<path d="M82.6565 260.629C82.6565 260.671 82.646 260.712 82.6356 260.754C82.5105 261.15 81.9577 261.317 81.5302 261.057C81.0609 260.775 80.31 259.044 80.31 259.044L79.4862 258.199L78.9439 257.636L78.9335 257.625C79.0065 257.792 79.6739 259.419 79.3402 260.17C79.3193 260.222 79.2985 260.264 79.2568 260.306C79.142 260.462 79.0065 260.598 78.8605 260.723C78.412 261.077 77.8593 261.286 77.2753 261.286C77.2649 261.286 77.2649 261.286 77.2649 261.286H77.2336C76.7748 261.265 75.4712 261.432 74.3345 261.516C74.2824 261.516 74.2406 261.526 74.1989 261.526C73.8026 261.547 73.4272 261.557 73.1248 261.536C72.1967 261.411 71.3102 261.119 70.4968 260.65C70.4968 260.65 66.7634 260.066 65.1053 259.367C65.001 259.325 64.8967 259.273 64.8028 259.221C64.709 259.158 64.6047 259.106 64.5213 259.044C64.3335 258.919 64.1667 258.793 64.0103 258.647C63.1656 257.907 62.6337 256.979 62.5086 256.718C62.4981 256.697 62.4877 256.687 62.4877 256.676V256.666C62.4773 256.655 62.4773 256.645 62.4773 256.645C62.4773 256.645 58.3684 256.468 52.81 256.04C50.6722 255.883 48.3153 255.675 45.8959 255.435C42.6005 255.101 39.8682 255.018 37.6782 254.674C37.4488 254.632 37.2194 254.59 37.0004 254.548C36.7292 254.486 36.4685 254.434 36.2183 254.371C36.0827 253.297 36.0931 251.92 36.6145 250.575C37.2298 248.937 38.5855 247.331 41.2969 246.298C41.3074 246.298 41.3178 246.288 41.3282 246.288C42.6318 245.808 43.9666 245.422 45.3224 245.141C45.3328 245.13 45.3328 245.13 45.3328 245.13C45.5205 245.214 45.7082 245.287 45.8959 245.37C46.0836 245.454 46.2818 245.527 46.4799 245.621C46.7511 245.735 47.0222 245.85 47.3038 245.975C52.0279 248.009 57.5029 250.47 61.2154 251.482C62.2791 251.774 63.4367 251.962 64.6047 252.077C64.9488 252.118 65.293 252.15 65.6475 252.16C69.6625 252.431 73.6254 251.962 74.6786 252.014C75.8153 252.077 78.2973 254.517 79.9346 256.029C80.3935 256.447 80.7897 256.801 81.0713 257.01C81.113 257.041 81.1547 257.072 81.1965 257.104C81.2277 257.125 81.259 257.145 81.2903 257.187C81.9265 257.761 82.3019 258.658 82.5 259.398C82.5 259.398 82.5105 259.398 82.5 259.409C82.5939 259.732 82.646 260.034 82.6669 260.264C82.6565 260.431 82.6565 260.546 82.6565 260.629Z" fill="white" stroke="#263238" stroke-linecap="round" stroke-linejoin="round"/>
<path d="M70.1735 257.855C70.1735 257.855 72.5304 259.086 73.4794 259.503C74.4284 259.92 74.3345 261.651 74.3345 261.651" fill="white"/>
<path d="M70.1735 257.855C70.1735 257.855 72.5304 259.086 73.4794 259.503C74.4284 259.92 74.3345 261.651 74.3345 261.651" stroke="#263238" stroke-linecap="round" stroke-linejoin="round"/>
<path d="M72.6972 256.176C72.6972 256.176 76.3159 258.815 76.9938 259.586C77.4005 260.066 77.5048 260.734 77.2545 261.318" fill="white"/>
<path d="M72.6972 256.176C72.6972 256.176 76.3159 258.815 76.9938 259.586C77.4005 260.066 77.5048 260.734 77.2545 261.318" stroke="#263238" stroke-linecap="round" stroke-linejoin="round"/>
<path d="M78.9439 257.605C78.9439 257.605 75.4816 254.007 75.0332 253.85L78.9439 257.605Z" fill="white"/>
<path d="M78.9439 257.605C78.9439 257.605 75.4816 254.007 75.0332 253.85" stroke="#263238" stroke-linecap="round" stroke-linejoin="round"/>
<path d="M73.7505 193.795C71.8525 197.769 68.1191 203.224 62.0914 202.713C55.7092 202.171 52.1217 197.675 50.4636 194.828C52.7579 193.952 55.073 193.055 56.9919 192.304V192.262C56.9919 190.322 56.9293 187.997 56.7207 185.692C56.679 185.191 56.6164 184.68 56.5539 184.179C56.5017 183.783 56.4496 183.376 56.3766 182.99H68.5154C68.5154 182.99 68.4424 183.48 68.3485 184.284C68.3485 184.294 68.3485 184.304 68.3381 184.315C68.2651 185.034 68.1608 185.994 68.0982 187.079C68.0044 188.518 67.9314 190.166 67.9835 191.803C68.5675 192.012 69.1619 192.221 69.7564 192.45C70.1318 192.575 70.5177 192.721 70.9035 192.846C71.3624 193.013 71.8108 193.159 72.2905 193.316L73.2812 193.629C73.4481 193.67 73.5941 193.733 73.7505 193.795Z" fill="white" stroke="#263238" stroke-linecap="round" stroke-linejoin="round"/>
<path d="M56.5539 184.179C56.5539 184.179 58.8169 190.062 62.1018 191.063C65.3868 192.075 68.3381 184.304 68.3381 184.304C68.3381 184.304 63.7078 189.258 61.9871 188.435C60.2768 187.631 56.5539 184.179 56.5539 184.179Z" fill="#263238"/>
<path d="M54.6142 151.701C51.4439 154.319 49.2643 157.927 47.4915 161.64C46.0002 164.769 44.7384 168.368 45.8855 171.643C46.4695 173.301 47.6271 174.698 48.7533 176.044C51.0059 178.745 54.1657 186.286 56.4183 188.987C56.5643 184.179 52.5389 176.409 52.9665 172.373C53.3002 169.233 54.6559 166.313 55.9907 163.455C57.6697 159.878 59.3696 156.248 61.8933 153.213C63.2594 151.565 67.6498 148.634 63.2177 148.28C60.2351 148.03 56.8354 149.865 54.6142 151.701Z" fill="#263238" stroke="#263238" stroke-linecap="round" stroke-linejoin="round"/>
<path d="M51.7776 168.065C51.7776 168.065 50.2133 165.061 48.5865 167.919C47.4081 169.984 49.1079 173.29 49.8379 174.5C50.3176 175.23 51.1519 175.647 52.0279 175.595L51.7776 168.065Z" fill="white" stroke="#263238" stroke-linecap="round" stroke-linejoin="round"/>
<path d="M72.1967 178.985C71.9047 179.913 70.2882 182.208 68.3485 184.315C68.0461 184.648 67.7332 184.972 67.41 185.285C65.4703 187.204 63.3741 188.726 61.9976 188.445C60.7983 188.205 59.234 186.974 57.701 185.399C57.3152 185.013 56.9397 184.596 56.5643 184.179V184.169C54.635 181.978 52.9143 179.496 52.299 178.13C52.0175 177.514 51.8298 176.618 51.6838 175.575C51.3605 173.124 51.3813 169.89 51.4126 167.7C51.4335 166.772 51.4439 166.042 51.4439 165.625C51.4439 163.799 58.2329 157.489 58.2329 157.489C58.3789 157.427 58.577 157.406 58.8064 157.427C59.5573 157.489 60.767 157.938 62.1436 158.616C66.2628 160.618 72.0089 164.592 72.4261 166.104C73.0414 168.295 72.8015 177.014 72.1967 178.985Z" fill="white" stroke="#263238" stroke-linecap="round" stroke-linejoin="round"/>
<path d="M58.6917 170.61C58.6917 171.34 58.4206 171.945 58.1181 171.945C57.8157 171.945 57.5133 171.371 57.5133 170.61C57.5133 169.849 57.7844 169.275 58.1181 169.275C58.4519 169.265 58.6917 169.88 58.6917 170.61Z" fill="#263238"/>
<path d="M66.461 169.275C66.7947 169.275 67.0658 169.869 67.0658 170.61C67.0658 171.35 66.7947 171.945 66.461 171.945C66.1272 171.945 65.8561 171.35 65.8561 170.61C65.8561 169.869 66.1272 169.275 66.461 169.275Z" fill="#263238"/>
<path d="M54.8019 167.325C54.8019 167.325 55.8969 165.259 59.5364 165.875" stroke="#263238" stroke-linecap="round" stroke-linejoin="round"/>
<path d="M69.892 167.325C69.892 167.325 68.797 165.259 65.1574 165.875" stroke="#263238" stroke-linecap="round" stroke-linejoin="round"/>
<path d="M63.0613 175.71C63.8747 175.616 64.5421 175.053 64.6568 174.365C64.6568 174.365 62.6233 171.215 63.2386 168.169" stroke="#263238" stroke-linecap="round" stroke-linejoin="round"/>
<path d="M50.4532 160.827C49.6189 161.964 48.9828 163.246 48.5865 164.602" stroke="white" stroke-linecap="round" stroke-linejoin="round"/>
<path d="M59.1819 152.483C59.1819 152.483 58.0243 154.412 52.9456 158.313C52.6223 158.553 52.3095 158.814 52.007 159.085" stroke="white" stroke-linecap="round" stroke-linejoin="round"/>
<path d="M42.8299 213.591C42.1521 223.52 41.4638 233.439 40.7859 243.357C40.7859 243.107 40.7964 242.846 40.7964 242.596" fill="#263238"/>
<path d="M42.8299 213.591C42.1521 223.52 41.4638 233.439 40.7859 243.357C40.7859 243.107 40.7964 242.846 40.7964 242.596" stroke="#263238" stroke-linecap="round" stroke-linejoin="round"/>
<path d="M108.707 180.852C110.563 180.049 112.795 180.404 114.474 181.52C116.153 182.636 117.31 184.44 117.905 186.369C118.51 188.32 118.562 190.5 117.717 192.356C116.872 194.213 115.027 195.673 112.993 195.746C111.491 195.798 110.052 195.13 108.842 194.233C104.921 191.313 102.961 183.334 108.707 180.852Z" fill="white" stroke="#263238" stroke-linecap="round" stroke-linejoin="round"/>
<path d="M117.342 147.55C117.342 147.664 117.373 148.499 117.404 148.645C117.769 150.251 118.541 154.266 116.591 155.08C117.331 157.729 119.146 174.969 118.906 183.762C118.843 186.38 118.385 189.509 116.028 190.635C112.054 192.523 108.279 187.913 108.78 184.325C109.468 179.413 109.239 174.406 109.844 169.442C110.48 164.289 111.648 158.981 110.365 153.974C110.052 153.641 108.05 149.667 107.403 148.561C107.122 148.082 106.851 147.602 106.715 147.07C106.423 145.943 106.34 142.345 106.34 141.636C106.934 140.51 107.706 141.553 108.112 142.283C108.404 142.815 108.509 143.899 108.446 145.12C108.436 145.359 108.415 145.61 108.54 145.797C108.707 146.037 109.03 146.194 109.322 146.152C110.594 145.964 110.542 144.89 110.532 144.087C110.532 141.323 110.521 138.57 110.521 135.816C110.521 135.357 110.657 134.116 111.105 134.074C111.596 134.033 112.2 134.387 112.263 135.868C112.336 137.527 112.336 142.627 112.336 142.627C112.419 142.7 112.555 142.762 112.659 142.721C112.764 142.669 112.816 142.533 112.847 142.429C113.462 139.863 114.088 137.297 114.714 134.731C114.787 134.429 115.235 133.803 115.558 133.803C116.33 133.803 116.351 134.7 116.393 134.961C116.664 136.338 114.735 142.001 114.411 143.315C114.359 143.545 114.432 143.889 114.651 143.826L117.675 137.725C117.936 137.078 118.624 136.338 119.313 136.244C119.365 136.233 119.417 136.233 119.469 136.254C119.521 136.275 119.563 136.327 119.594 136.379C119.886 136.901 119.594 137.621 119.417 138.194C119.24 138.757 116.987 142.981 116.195 144.681C116.08 144.921 115.892 145.464 116.122 145.683C116.455 145.818 116.768 145.443 116.935 145.109C117.446 144.097 117.936 143.086 118.395 142.053C118.541 141.751 118.76 141.334 119.094 141.407C121.065 141.834 118.176 146.1 117.342 147.55Z" fill="white" stroke="#263238" stroke-linecap="round" stroke-linejoin="round"/>
<path d="M111.731 146.653C112.743 147.529 113.744 148.447 114.432 149.594C115.12 150.741 115.454 152.16 115.058 153.432C115.006 153.599 114.943 153.766 114.86 153.922" fill="white"/>
<path d="M111.731 146.653C112.743 147.529 113.744 148.447 114.432 149.594C115.12 150.741 115.454 152.16 115.058 153.432C115.006 153.599 114.943 153.766 114.86 153.922" stroke="#263238" stroke-linecap="round" stroke-linejoin="round"/>
<path d="M82.354 211.818C83.5325 214.394 84.2729 216.574 84.5545 218.889C84.8569 221.351 84.9507 223.28 83.2717 230.195" stroke="#263238" stroke-linecap="round" stroke-linejoin="round"/>
<path d="M58.8169 155.925C58.6917 156.352 58.6083 156.811 58.7126 157.249C58.8586 157.812 59.307 158.251 59.745 158.636C63.0717 161.557 66.8155 164.008 70.8305 165.875C71.2894 166.094 71.7899 166.323 72.0611 166.751C72.3427 167.178 72.3531 167.721 72.3531 168.232C72.3635 170.912 72.3844 173.603 72.3948 176.284C72.3948 177.118 72.4052 177.963 72.1549 178.755C71.571 180.633 70.2778 182.156 69.3392 183.876C68.4007 185.597 67.8793 187.339 67.9418 189.3C67.6811 187.308 74.6578 183.438 76.5349 175.595C76.7956 174.5 82.2289 167.919 78.9752 160.19C75.8466 152.775 70.9244 149.583 69.2662 149.198C66.7113 148.613 64.7507 148.926 62.6441 150.47C60.8087 151.805 59.4217 153.745 58.8169 155.925Z" fill="#263238" stroke="#263238" stroke-linecap="round" stroke-linejoin="round"/>
<path d="M65.6475 178.474C65.0427 178.599 64.4483 178.714 63.833 178.787C61.7994 179.048 59.5156 178.724 58.1599 177.202C58.2642 178.568 59.2236 183.731 61.9976 183.866C64.9175 184.012 65.6475 178.474 65.6475 178.474Z" stroke="#263238" stroke-linecap="round" stroke-linejoin="round"/>
<path d="M62.9361 152.765C64.125 155.487 66.0647 157.865 68.4841 159.586C70.2465 160.837 72.2592 161.755 73.8756 163.194C76.0031 165.093 77.3275 168.128 76.5245 170.871" stroke="white" stroke-linecap="round" stroke-linejoin="round"/>
<path d="M84.7317 194.901C84.7317 194.901 81.7179 197.008 81.0296 201.378C80.6855 203.568 80.9358 205.873 81.8222 207.907" stroke="#263238" stroke-linecap="round" stroke-linejoin="round"/>
<path d="M45.8855 212.11C45.7186 214.842 44.0188 217.21 42.3711 219.4L45.8855 212.11Z" fill="#263238"/>
<path d="M45.8855 212.11C45.7186 214.842 44.0188 217.21 42.3711 219.4" stroke="#263238" stroke-linecap="round" stroke-linejoin="round"/>
<path d="M41.8184 233C43.4869 235.806 46.2713 237.777 49.4729 238.424" stroke="#263238" stroke-linecap="round" stroke-linejoin="round"/>
<path d="M81.7179 234.627C81.7179 234.627 78.9126 238.831 69.381 239.675" stroke="#263238" stroke-linecap="round" stroke-linejoin="round"/>
<path d="M360.942 198.071C360.942 198.071 324.598 209.336 317.757 200.439L318.675 155.059H324.202L330.688 187.026L360.472 181.582C360.472 181.582 364.289 193.409 360.942 198.071Z" fill="white"/>
<mask id="mask0_201_270" style="mask-type:luminance" maskUnits="userSpaceOnUse" x="317" y="155" width="46" height="49">
<path d="M360.942 198.071C360.942 198.071 324.598 209.336 317.757 200.439L318.675 155.059H324.202L330.688 187.026L360.472 181.582C360.472 181.582 364.289 193.409 360.942 198.071Z" fill="white"/>
</mask>
<g mask="url(#mask0_201_270)">
<path d="M345.622 199.657C343.599 200.637 341.461 201.451 339.699 202.838C342.16 203.61 344.788 202.619 347.239 201.837C350.482 200.804 353.819 200.116 357.156 199.511C357.312 198.582 356.124 196.465 355.644 195.641C354.789 194.202 354.632 194.077 353.162 194.786C350.544 196.048 348.323 198.353 345.622 199.657Z" fill="#92E3A9"/>
</g>
<path d="M360.942 198.071C360.942 198.071 324.598 209.336 317.757 200.439L318.675 155.059H324.202L330.688 187.026L360.472 181.582C360.472 181.582 364.289 193.409 360.942 198.071Z" stroke="#263238" stroke-miterlimit="10" stroke-linecap="round" stroke-linejoin="round"/>
<path d="M357.375 199.26L363.768 238.56C363.59 264.04 375.74 260.202 384.176 260.129C393.927 260.045 408.725 250.377 401.467 235.327L404.262 180.852L387.263 179.538C381.653 179.11 358.72 179.83 356.895 182.75C352.171 190.374 357.375 199.26 357.375 199.26Z" fill="white"/>
<mask id="mask1_201_270" style="mask-type:luminance" maskUnits="userSpaceOnUse" x="354" y="179" width="51" height="82">
<path d="M357.375 199.26L363.768 238.56C363.59 264.04 375.74 260.202 384.176 260.129C393.927 260.045 408.725 250.377 401.467 235.327L404.262 180.852L387.263 179.538C381.653 179.11 358.72 179.83 356.895 182.75C352.171 190.374 357.375 199.26 357.375 199.26Z" fill="white"/>
</mask>
<g mask="url(#mask1_201_270)">
<path d="M358.376 202.546C362.057 216.741 371.36 229.403 383.811 237.162C382.445 237.058 381.162 236.463 379.869 236.015C378.576 235.567 377.116 235.285 375.844 235.806C374.572 236.317 373.654 237.903 374.29 239.123C374.551 239.634 375.03 239.989 375.489 240.322C377.554 241.783 379.828 242.94 382.216 243.764C380.12 243.545 377.992 243.712 375.959 244.255C375.583 246.059 377.606 247.331 379.191 248.27C381.726 249.761 383.926 251.827 385.574 254.267C379.974 254.278 374.384 254.601 368.815 255.227C368.075 255.31 367.272 255.393 366.615 255.018C365.843 254.58 365.509 253.652 365.269 252.786C364.028 248.447 363.309 243.973 363.121 239.467C363.017 236.933 363.079 234.388 362.787 231.864C362.558 229.882 362.11 227.922 361.692 225.971C360.076 218.462 358.825 210.869 357.969 203.234C357.573 203.203 358.376 202.546 358.376 202.546Z" fill="#92E3A9"/>
<path d="M401.456 199.365C400.612 199.094 398.881 198.395 397.577 197.279C397.9 198.843 400.236 201.545 401.602 202.379C401.894 202.556 402.301 202.702 402.541 202.462C402.75 202.254 402.958 201.607 403.208 201.451L401.456 199.365Z" fill="#92E3A9"/>
</g>
<path d="M357.375 199.26L363.768 238.56C363.59 264.04 375.74 260.202 384.176 260.129C393.927 260.045 408.725 250.377 401.467 235.327L404.262 180.852L387.263 179.538C381.653 179.11 358.72 179.83 356.895 182.75C352.171 190.374 357.375 199.26 357.375 199.26Z" stroke="#263238" stroke-miterlimit="10" stroke-linecap="round" stroke-linejoin="round"/>
<path d="M369.795 178.755C367.97 182.083 367.084 185.91 367.251 189.707C367.261 190.04 367.293 190.385 367.439 190.677C367.908 191.605 369.191 191.605 370.213 191.73C374.228 192.241 376.72 196.476 380.516 197.894C380.808 198.009 381.131 198.103 381.444 198.009C381.726 197.925 381.945 197.696 382.132 197.466C383.78 195.433 384.364 192.46 386.617 191.115C387.597 190.531 388.848 190.291 389.516 189.363C390.287 188.299 389.943 186.818 389.568 185.556C388.953 183.48 388.264 181.3 386.669 179.84C385.084 178.401 382.862 177.921 380.724 177.744C377.585 177.483 374.394 177.785 371.349 178.62C371.381 179.027 369.795 178.755 369.795 178.755Z" fill="#92E3A9" stroke="#263238" stroke-linecap="round" stroke-linejoin="round"/>
<path d="M420.259 205.425C417.714 201.732 415.827 197.581 414.721 193.222C414.169 191.073 413.804 188.841 412.813 186.849C411.238 183.668 408.078 181.332 404.585 180.748C403.834 180.623 403.042 180.581 402.332 180.852C400.82 181.426 400.163 183.168 399.85 184.753C399.193 188.143 399.392 191.689 400.414 194.984C401.112 197.227 409.507 213.57 415.076 219.901C414.544 216.71 418.215 206.05 420.259 205.425Z" fill="white"/>
<mask id="mask2_201_270" style="mask-type:luminance" maskUnits="userSpaceOnUse" x="399" y="180" width="22" height="40">
<path d="M420.259 205.425C417.714 201.732 415.827 197.581 414.721 193.222C414.169 191.073 413.804 188.841 412.813 186.849C411.238 183.668 408.078 181.332 404.585 180.748C403.834 180.623 403.042 180.581 402.332 180.852C400.82 181.426 400.163 183.168 399.85 184.753C399.193 188.143 399.392 191.689 400.414 194.984C401.112 197.227 409.507 213.57 415.076 219.901C414.544 216.71 418.215 206.05 420.259 205.425Z" fill="white"/>
</mask>
<g mask="url(#mask2_201_270)">
<path d="M403.803 202.223C405.524 205.466 407.234 208.699 408.955 211.943C409.685 213.33 410.529 214.811 411.968 215.416C411.061 212.214 410.55 208.898 410.435 205.56C410.373 203.891 410.414 202.181 409.862 200.596C409.653 200.773 409.424 200.022 409.424 200.022C409.205 200.45 408.59 200.46 408.12 200.366C404.752 199.667 402.447 196.653 400.445 193.858C399.903 195.714 400.288 197.821 401.456 199.354C401.456 199.365 403.636 201.899 403.803 202.223Z" fill="#92E3A9"/>
</g>
<path d="M420.259 205.425C417.714 201.732 415.827 197.581 414.721 193.222C414.169 191.073 413.804 188.841 412.813 186.849C411.238 183.668 408.078 181.332 404.585 180.748C403.834 180.623 403.042 180.581 402.332 180.852C400.82 181.426 400.163 183.168 399.85 184.753C399.193 188.143 399.392 191.689 400.414 194.984C401.112 197.227 409.507 213.57 415.076 219.901C414.544 216.71 418.215 206.05 420.259 205.425Z" stroke="#263238" stroke-miterlimit="10" stroke-linecap="round" stroke-linejoin="round"/>
<path d="M413.032 217.106C407.421 206.353 410.133 181.571 409.956 177.587L417.36 177.191C418.1 177.191 421.521 198.322 423.867 207.093C426.005 215.082 423.961 223.165 420.259 223.165C417.203 223.165 414.21 219.369 413.032 217.106Z" fill="white" stroke="#263238" stroke-miterlimit="10" stroke-linecap="round" stroke-linejoin="round"/>
<path d="M346.164 189.196C351.399 181.582 361.609 180.977 361.609 180.977" stroke="#263238" stroke-miterlimit="10" stroke-linecap="round" stroke-linejoin="round"/>
<path d="M326.058 193.451C327.862 191.949 329.228 189.415 329.666 188.247L326.058 193.451Z" fill="white"/>
<path d="M326.058 193.451C327.862 191.949 329.228 189.415 329.666 188.247" stroke="#263238" stroke-miterlimit="10" stroke-linecap="round" stroke-linejoin="round"/>
<path d="M364.79 229.434C367.772 234.294 387.013 239.509 394.688 238.393" stroke="#263238" stroke-miterlimit="10" stroke-linecap="round" stroke-linejoin="round"/>
<path d="M370.244 243.128C375.781 244.087 381.517 243.868 386.961 242.492" stroke="#263238" stroke-miterlimit="10" stroke-linecap="round" stroke-linejoin="round"/>
<path d="M395.783 195.933C397.003 197.591 398.224 199.25 399.444 200.908C399.944 201.586 400.643 202.347 401.467 202.16" stroke="#263238" stroke-miterlimit="10" stroke-linecap="round" stroke-linejoin="round"/>
<path d="M423.064 384.64C422.741 385.975 422.637 387.549 423.586 388.54C424.472 389.468 425.911 389.51 427.194 389.489C428.664 389.458 430.135 389.437 431.605 389.406C433.305 389.375 435.067 389.333 436.611 388.624C438.154 387.914 439.437 386.34 439.27 384.65C439.197 383.982 438.916 383.367 438.644 382.752C438.248 381.896 437.862 381.031 437.466 380.176C432.554 369.433 425.15 375.962 423.064 384.64Z" fill="white" stroke="#263238" stroke-miterlimit="10" stroke-linecap="round" stroke-linejoin="round"/>
<path d="M416.849 371.988C417.005 376.911 416.588 381.844 415.618 386.673C415.399 387.768 415.597 389.427 416.713 389.322C417.11 389.291 417.422 388.999 417.704 388.728C421.521 384.973 424.295 380.175 425.64 374.992C425.932 373.876 426.13 372.603 425.525 371.623C425.254 371.185 424.848 370.851 424.441 370.528C420.947 367.691 416.526 364.896 416.849 371.988Z" fill="white" stroke="#263238" stroke-miterlimit="10" stroke-linecap="round" stroke-linejoin="round"/>
<path d="M404.741 245.923C404.741 245.923 410.227 255.477 411.405 257.709C412.584 259.931 437.518 292.649 442.253 316.47C443.15 320.997 424.785 371.623 424.785 371.623L420.634 369.255C420.634 369.255 423.534 323.083 422.824 319.245C422.126 315.417 403.792 287.079 403.792 287.079C403.792 287.079 393.552 279.549 389.349 270.819L404.741 245.923Z" fill="#263238"/>
<path d="M405.336 269.86C405.336 269.86 402.166 276.827 402.155 277.828C402.145 278.829 419.373 333.21 424.42 345.788C427.632 353.892 430.458 362.184 432.877 370.642C432.877 370.642 434.838 373.219 433.357 375.847C431.876 378.475 425.995 380.207 424.775 377.849C423.565 375.492 411.645 363.248 406.618 351.066C401.623 338.957 394.553 318.556 390.538 310.943C385.261 301.232 380.578 291.23 376.532 280.999C371.464 268.055 366.302 254.111 366.302 254.111C368.408 254.299 370.515 254.351 372.622 254.278C377.565 254.111 382.476 253.245 387.232 251.691C398.224 247.999 402.979 240.938 402.979 240.938C402.979 240.938 405.701 248.301 406.399 249.73L405.336 269.86Z" fill="#263238"/>
<path d="M440.428 321.122C439.354 322.957 437.904 324.584 436.173 325.825" stroke="white" stroke-miterlimit="10" stroke-linecap="round" stroke-linejoin="round"/>
<path d="M441.773 318.087C441.617 318.598 441.429 319.088 441.21 319.578" stroke="white" stroke-miterlimit="10" stroke-linecap="round" stroke-linejoin="round"/>
<path d="M395.397 253.6C398.171 258.376 400.768 265.25 400.351 270.767C400.288 271.643 399.277 273.635 399.277 273.635" stroke="white" stroke-miterlimit="10" stroke-linecap="round" stroke-linejoin="round"/>
<path d="M378.597 258.919C378.899 261.579 379.306 266.001 378.733 268.608C378.149 271.226 376.741 273.75 374.467 275.179" stroke="white" stroke-miterlimit="10" stroke-linecap="round" stroke-linejoin="round"/>
<path d="M402.259 248.854C402.958 249.532 403.24 250.502 403.709 251.347C405.211 254.048 408.11 256.155 410.508 256.499" stroke="white" stroke-miterlimit="10" stroke-linecap="round" stroke-linejoin="round"/>
<path d="M393.406 259.513C397.087 267.565 399.903 275.638 405.617 289.321" stroke="white" stroke-miterlimit="10" stroke-linecap="round" stroke-linejoin="round"/>
<path d="M391.445 255.394C391.758 256.019 392.06 256.645 392.363 257.271" stroke="white" stroke-miterlimit="10" stroke-linecap="round" stroke-linejoin="round"/>
<path d="M422.084 316.992C423.763 320.246 425.922 323.25 428.456 325.888" stroke="white" stroke-miterlimit="10" stroke-linecap="round" stroke-linejoin="round"/>
<path d="M423.826 319.996C424.921 325.085 426.954 329.966 429.77 334.337" stroke="white" stroke-miterlimit="10" stroke-linecap="round" stroke-linejoin="round"/>
<path d="M397.89 320.256C389.766 302.922 381.1 285.723 370.452 259.513" stroke="white" stroke-miterlimit="10" stroke-linecap="round" stroke-linejoin="round"/>
<path d="M399.736 325.304C399.538 324.699 399.329 324.084 399.11 323.479" stroke="white" stroke-miterlimit="10" stroke-linecap="round" stroke-linejoin="round"/>
<path d="M427.809 378.59C425.734 375.868 410.519 354.633 406.744 344.964C404.23 338.539 402.332 334.003 400.445 327.599" stroke="white" stroke-miterlimit="10" stroke-linecap="round" stroke-linejoin="round"/>
<path d="M422.084 337.664L429.311 358.909" stroke="white" stroke-miterlimit="10" stroke-linecap="round" stroke-linejoin="round"/>
<path d="M417.214 177.202L415.013 177.389C413.355 177.525 411.374 178.14 406.692 177.003C404.95 176.576 400.914 175.324 400.445 175.241C399.496 175.053 397.775 174.73 396.805 174.667C393.134 174.438 394.991 173.071 396.524 173.134C398.547 173.228 399.225 173.176 400.779 173.301C400.601 173.197 400.017 173.082 400.017 172.633C399.996 171.538 401.456 171.611 401.456 171.611C401.456 171.611 399.882 170.944 400.101 170.109C400.299 169.379 401.373 169.077 402.051 169.129C402.051 169.129 401.164 168.712 401.206 168.242C401.383 166.469 405.033 166.344 405.033 166.344C403.991 165.729 403.261 165.52 402.583 164.832C402.312 164.561 402.113 164.185 402.03 163.81C401.832 162.934 402.75 162.277 403.532 162.715C404.502 163.247 405.325 164.091 406.243 164.748C407.369 165.541 408.673 166.063 409.862 166.782C410.373 167.095 412.02 168.941 412.604 170.381C412.782 170.662 417.214 177.202 417.214 177.202Z" fill="white" stroke="#263238" stroke-miterlimit="10" stroke-linecap="round" stroke-linejoin="round"/>
<path d="M318.675 155.059V149.271C318.675 146.392 319.071 143.513 319.937 140.77C320.416 139.248 320.969 137.913 321.49 137.725C322.439 137.381 322.857 141.229 322.857 141.229C322.857 141.229 321.49 135.222 321.49 131.874C321.49 128.526 325.996 142.429 325.996 142.429L324.202 155.07H318.675V155.059Z" fill="white" stroke="#263238" stroke-miterlimit="10" stroke-linecap="round" stroke-linejoin="round"/>
<path d="M324.15 145.714C324.692 145.297 325.109 144.723 325.318 144.066L324.15 145.714Z" fill="white"/>
<path d="M324.15 145.714C324.692 145.297 325.109 144.723 325.318 144.066" stroke="#263238" stroke-miterlimit="10" stroke-linecap="round" stroke-linejoin="round"/>
<path d="M367.804 167.053C369.764 170.328 370.859 174.052 370.974 177.869C371.162 184.21 378.503 193.096 380.599 193.514C382.695 193.931 384.635 183.512 384.541 180.341C384.447 177.17 383.279 168.451 383.279 168.451C383.279 168.451 373.195 160.848 367.804 167.053Z" fill="white" stroke="#263238" stroke-miterlimit="10" stroke-linecap="round" stroke-linejoin="round"/>
<path d="M370.755 175.439C370.755 175.439 380.38 188.58 384.155 175.22C387.931 161.859 373.57 178.87 370.755 175.439Z" fill="#263238"/>
<path d="M387.002 165.958C386.491 173.749 382.935 178.13 378.837 178.902C375.093 179.6 369.618 175.762 366.886 170.109C366.886 170.109 366.886 170.109 366.875 170.099C366.667 169.963 363.34 167.648 362.548 167.085C361.724 166.501 361.171 165.52 361.223 164.509C361.275 163.549 361.943 162.61 362.86 162.339C362.892 162.329 362.933 162.318 362.965 162.308C363.444 162.193 363.914 162.256 364.373 162.412C363.674 159.742 363.111 157.051 362.694 154.329C362.892 148.04 364.967 142.961 371.641 142.45C378.326 141.939 383.895 145.683 384.145 148.374C384.343 150.46 385.011 155.977 385.626 161.682C385.793 163.267 387.107 164.248 387.002 165.958Z" fill="white" stroke="#263238" stroke-miterlimit="10" stroke-linecap="round" stroke-linejoin="round"/>
<path d="M384.155 156.989C384.155 156.989 379.859 155.018 380.589 161.422C380.735 162.684 383.092 164.603 383.092 164.603C383.092 164.603 382.487 166.49 381.371 166.49" fill="white"/>
<path d="M384.155 156.989C384.155 156.989 379.859 155.018 380.589 161.422C380.735 162.684 383.092 164.603 383.092 164.603C383.092 164.603 382.487 166.49 381.371 166.49" stroke="#263238" stroke-miterlimit="10" stroke-linecap="round" stroke-linejoin="round"/>
<path d="M375.854 159.179C375.854 159.179 373.664 157.844 372.163 158.668C371.38 159.012 370.713 159.575 370.244 160.295" fill="white"/>
<path d="M375.854 159.179C375.854 159.179 373.664 157.844 372.163 158.668C371.38 159.012 370.713 159.575 370.244 160.295" stroke="#263238" stroke-miterlimit="10" stroke-linecap="round" stroke-linejoin="round"/>
<path d="M374.603 162.84C374.77 163.611 374.561 164.31 374.154 164.394C373.737 164.477 373.278 163.935 373.112 163.152C372.945 162.381 373.153 161.692 373.57 161.598C373.988 161.515 374.446 162.089 374.603 162.84Z" fill="#263238"/>
<path d="M383.071 160.629C383.238 161.401 383.029 162.089 382.622 162.183C382.216 162.277 381.736 161.714 381.58 160.942C381.423 160.18 381.621 159.471 382.028 159.388C382.445 159.304 382.904 159.857 383.071 160.629Z" fill="#263238"/>
<path d="M362.193 146.34C361.39 147.028 360.962 148.061 360.67 149.083C359.398 153.474 359.993 158.376 362.266 162.339C362.266 162.339 363.424 162.193 364.362 162.433C365.092 162.621 366.031 163.862 366.375 164.529C366.719 165.197 366.802 165.958 366.886 166.709C366.719 164.738 366.563 162.756 366.396 160.785C366.333 159.992 366.271 159.168 366.5 158.407C366.5 158.397 366.5 158.397 366.51 158.386C367.021 156.759 366.458 152.921 366.604 149.49C370.932 154.788 377.22 153.849 379.306 153.672C382.435 153.411 385.104 150.209 384.927 147.925C384.75 145.599 384.145 139.759 373.831 139.154C371.568 139.018 369.18 139.289 367.282 140.52C365.999 141.354 365.176 142.71 364.936 144.212C364.79 145.172 365.155 145.255 364.425 145.725C363.83 146.1 362.902 145.725 362.193 146.34Z" fill="#263238" stroke="#263238" stroke-miterlimit="10" stroke-linecap="round" stroke-linejoin="round"/>
<path d="M375.854 170.12C375.854 170.12 377.387 171.799 380.589 170.693L375.854 170.12Z" fill="white"/>
<path d="M375.854 170.12C375.854 170.12 377.387 171.799 380.589 170.693" stroke="#263238" stroke-miterlimit="10" stroke-linecap="round" stroke-linejoin="round"/>
</g>
<defs>
<clipPath id="clip0_201_270">
<rect width="449" height="390" fill="white"/>
</clipPath>
</defs>
</svg>
