<svg width="129" height="128" viewBox="0 0 129 128" fill="none" xmlns="http://www.w3.org/2000/svg">
<g clip-path="url(#clip0_102_106)">
<path d="M126.985 81.0624L111.891 54.8552C111.485 54.1579 110.6 53.9254 109.904 54.3177L88.1121 66.9274C87.4161 67.3341 87.1841 68.2203 87.5756 68.9031L98.9865 88.7038H80.7174V79.0867C80.7174 78.2877 80.065 77.634 79.2675 77.634C78.8615 77.634 78.4701 77.8083 78.1946 78.1134L56.5472 101.836C56.0397 102.388 56.0397 103.246 56.5472 103.798L78.1946 127.521C78.7311 128.116 79.659 128.16 80.239 127.608C80.5435 127.332 80.7174 126.94 80.7174 126.533V116.843H104.032C110.832 116.829 117.111 113.197 120.518 107.299L126.999 96.0546C129.667 91.4349 129.667 85.7112 126.985 81.0624ZM110.107 57.5573L121.373 77.0965C122.548 79.232 122.722 80.9753 121.881 82.457C119.344 86.8879 108.426 88.4278 102.35 88.6747L90.8234 68.7142L110.107 57.5573ZM124.476 94.6164L117.995 105.861C115.11 110.858 109.788 113.938 104.032 113.952H79.2675C78.4701 113.952 77.8176 114.606 77.8176 115.405V122.814L59.5775 102.81L77.8176 82.8202V90.1565C77.8176 90.9555 78.4701 91.6092 79.2675 91.6092H101.553C104.67 91.5366 120.431 90.8248 124.389 83.8952C124.549 83.6338 124.679 83.3577 124.795 83.0672C126.637 86.7281 126.521 91.0717 124.476 94.6164Z" fill="#46A390" fill-opacity="0.2"/>
<path d="M108.237 25.0451C107.773 24.6673 107.121 24.6238 106.599 24.9143L98.218 29.7664L86.5751 9.52991C83.1678 3.64635 76.8896 0.0145273 70.0895 0H57.1271H57.0981C51.7479 0.0145273 46.8181 2.86188 44.1358 7.51061L29.0565 33.7179C28.6506 34.4152 28.897 35.3013 29.593 35.7081L51.3854 48.3033C52.0814 48.71 52.9658 48.4631 53.3718 47.7658L64.7827 27.965L73.9318 43.8288L65.6092 48.6374C64.9132 49.0442 64.6812 49.9303 65.0727 50.6276C65.2757 50.9763 65.6237 51.2378 66.0152 51.3249L97.3481 58.2545C98.0876 58.4143 98.8125 57.993 99.0445 57.2811L108.73 26.6285C108.89 26.0474 108.701 25.4228 108.237 25.0451ZM51.5739 45.0491L32.2899 33.9067L43.5558 14.353C44.8027 12.261 46.2382 11.2441 47.9346 11.2441H47.9491C53.0383 11.2441 59.824 19.946 63.0863 25.0886L51.5739 45.0491ZM96.6666 55.1166L70.278 49.2911L76.6141 45.6302C77.3101 45.2235 77.5421 44.3373 77.1506 43.64L66.0152 24.3042C64.3768 21.6311 55.8947 8.33867 47.9346 8.33867C47.6156 8.33867 47.3111 8.3532 46.9921 8.39678C49.225 4.98286 53.0238 2.90546 57.1126 2.90546H57.1271H70.0895C75.8457 2.90546 81.1669 5.98525 84.0668 10.9826L96.4491 32.4685C96.8551 33.1658 97.7396 33.3983 98.4355 33.006L104.83 29.3016L96.6666 55.1166Z" fill="#46A390" fill-opacity="0.2"/>
<path d="M53.6473 89.5026C53.6473 88.7036 52.9948 88.0499 52.1974 88.0499H29.3755L38.5245 72.1861L46.8326 76.9946C47.5286 77.4014 48.413 77.1544 48.819 76.4571C49.022 76.1085 49.0655 75.6872 48.9495 75.2949L39.264 44.6423C39.032 43.9305 38.3071 43.4947 37.5676 43.669L6.23467 50.584C5.45171 50.7583 4.95874 51.5283 5.13273 52.3127C5.21972 52.705 5.46621 53.0536 5.82869 53.257L14.1948 58.1091L2.53736 78.3457C-0.855471 84.2437 -0.855471 91.5074 2.53736 97.42L9.00403 108.664C11.6719 113.298 16.6161 116.16 21.9664 116.175H52.1974C52.9948 116.175 53.6473 115.521 53.6473 114.722V89.5026ZM20.8354 112.47C20.9949 112.732 21.1544 112.993 21.3429 113.24C17.2686 113.022 13.5713 110.756 11.5269 107.211L5.06023 95.9673C2.18938 90.9699 2.17488 84.8103 5.06023 79.7984L17.4426 58.3125C17.8486 57.6152 17.6021 56.729 16.9061 56.3223L10.512 52.6178L36.9006 46.7924L45.0637 72.6074L38.7275 68.9465C38.0316 68.5397 37.1471 68.7867 36.7411 69.484L25.6057 88.8198C24.0978 91.551 16.8336 105.57 20.8354 112.47ZM28.2156 113.255C25.7797 113.211 24.1848 112.485 23.3438 111.018C20.7919 106.601 24.9097 96.3595 27.7371 90.9554H50.7474V113.255H28.2156Z" fill="#46A390" fill-opacity="0.2"/>
</g>
<defs>
<clipPath id="clip0_102_106">
<rect width="129" height="128" fill="white"/>
</clipPath>
</defs>
</svg>
