<svg width="115" height="115" viewBox="0 0 115 115" fill="none" xmlns="http://www.w3.org/2000/svg">
<g clip-path="url(#clip0_203_3364)">
<path d="M22.838 49.009C13.4437 49.009 5.66901 41.8588 5.66901 33.2189C5.66901 24.579 13.4437 17.4287 22.838 17.4287C32.2324 17.4287 40.007 24.579 40.007 33.2189C40.007 41.8588 32.2324 49.009 22.838 49.009ZM22.838 23.3873C17.007 23.3873 12.1479 27.8562 12.1479 33.2189C12.1479 38.5816 17.007 43.0505 22.838 43.0505C28.669 43.0505 33.5282 38.5816 33.5282 33.2189C33.5282 27.8562 28.669 23.3873 22.838 23.3873Z" fill="#46A390" fill-opacity="0.2"/>
<path d="M3.23944 87.8885C1.45775 87.8885 0 86.5478 0 84.9092V72.2473C0 60.6281 10.2042 51.2434 22.838 51.2434C24.6197 51.2434 26.0775 52.5841 26.0775 54.2227C26.0775 55.8613 24.6197 57.202 22.838 57.202C13.9296 57.202 6.47887 63.9053 6.47887 72.2473V84.9092C6.47887 86.5478 5.02113 87.8885 3.23944 87.8885Z" fill="#46A390" fill-opacity="0.2"/>
<path d="M74.3451 55.1166C57.8239 55.1166 44.3803 42.7526 44.3803 27.5583C44.3803 12.364 57.8239 0 74.3451 0C90.8662 0 104.31 12.364 104.31 27.5583C104.31 42.7526 90.8662 55.1166 74.3451 55.1166ZM74.3451 6.10751C61.3873 6.10751 50.8592 15.7902 50.8592 27.7073C50.8592 39.6244 61.3873 49.307 74.3451 49.307C87.3028 49.307 97.831 39.6244 97.831 27.7073C97.831 15.7902 87.3028 6.10751 74.3451 6.10751Z" fill="#46A390" fill-opacity="0.2"/>
<path d="M111.761 115C109.979 115 108.521 113.659 108.521 112.021V94.145C108.521 76.7163 93.1338 62.7137 74.3451 62.7137C55.5563 62.7137 40.169 76.8652 40.169 94.145V112.021C40.169 113.659 38.7113 115 36.9296 115C35.1479 115 33.6901 113.659 33.6901 112.021V94.145C33.6901 73.4391 51.9929 56.7551 74.3451 56.7551C96.6972 56.7551 115 73.588 115 94.145V112.021C115 113.659 113.542 115 111.761 115Z" fill="#46A390" fill-opacity="0.2"/>
</g>
<defs>
<clipPath id="clip0_203_3364">
<rect width="115" height="115" fill="white"/>
</clipPath>
</defs>
</svg>
