<svg width="129" height="128" viewBox="0 0 129 128" fill="none" xmlns="http://www.w3.org/2000/svg">
<g clip-path="url(#clip0_102_111)">
<path d="M51.325 26.6875V13.9792C51.325 12.5812 50.1775 11.4375 48.775 11.4375C47.3725 11.4375 46.225 12.5812 46.225 13.9792V24.1458H36.025C34.6225 24.1458 33.475 25.2896 33.475 26.6875C33.475 28.0854 34.6225 29.2292 36.025 29.2292H48.775C50.1775 29.2292 51.325 28.0854 51.325 26.6875Z" fill="#46A390" fill-opacity="0.2"/>
<path d="M83.2 33.0417H62.8C61.3975 33.0417 60.25 34.1855 60.25 35.5834C60.25 36.9813 61.3975 38.1251 62.8 38.1251H83.2C84.6025 38.1251 85.75 36.9813 85.75 35.5834C85.75 34.1855 84.6025 33.0417 83.2 33.0417Z" fill="#46A390" fill-opacity="0.2"/>
<path d="M83.2 73.7083H42.4C40.9975 73.7083 39.85 74.852 39.85 76.2499C39.85 77.6478 40.9975 78.7916 42.4 78.7916H83.2C84.6025 78.7916 85.75 77.6478 85.75 76.2499C85.75 74.852 84.6025 73.7083 83.2 73.7083Z" fill="#46A390" fill-opacity="0.2"/>
<path d="M83.2 53.375H42.4C40.9975 53.375 39.85 54.5187 39.85 55.9167C39.85 57.3146 40.9975 58.4583 42.4 58.4583H83.2C84.6025 58.4583 85.75 57.3146 85.75 55.9167C85.75 54.5187 84.6025 53.375 83.2 53.375Z" fill="#46A390" fill-opacity="0.2"/>
<path d="M117.625 15.25H111.25C109.847 15.25 108.7 16.3938 108.7 17.7917C108.7 19.1896 109.847 20.3333 111.25 20.3333H117.625C118.339 20.3333 118.9 20.8925 118.9 21.6042V115.646C118.9 116.358 118.339 116.917 117.625 116.917H48.775C48.061 116.917 47.5 116.358 47.5 115.646V106.75H97.225C100.744 106.75 103.6 103.903 103.6 100.396V83.875C103.6 82.4771 102.452 81.3333 101.05 81.3333C99.6475 81.3333 98.5 82.4771 98.5 83.875V100.396C98.5 101.108 97.939 101.667 97.225 101.667H28.375C27.661 101.667 27.1 101.108 27.1 100.396V19.0625L45.7915 5.08333H97.225C97.939 5.08333 98.5 5.6425 98.5 6.35417V68.625C98.5 70.0229 99.6475 71.1667 101.05 71.1667C102.452 71.1667 103.6 70.0229 103.6 68.625V6.35417C103.6 2.84667 100.744 0 97.225 0H45.7915C44.695 0 43.624 0.355833 42.7315 1.01667L24.04 14.9958C22.765 15.9617 22 17.4613 22 19.0625V100.396C22 103.903 24.856 106.75 28.375 106.75H42.4V115.646C42.4 119.153 45.256 122 48.775 122H117.625C121.144 122 124 119.153 124 115.646V21.6042C124 18.0967 121.144 15.25 117.625 15.25Z" fill="#46A390" fill-opacity="0.2"/>
</g>
<defs>
<clipPath id="clip0_102_111">
<rect width="102" height="122" fill="white" transform="translate(22)"/>
</clipPath>
</defs>
</svg>
